<svg width="600" height="400" xmlns="http://www.w3.org/2000/svg" xmlns:xlink="http://www.w3.org/1999/xlink" version="1.1" baseProfile="full" viewBox="0 0 600 400">
<rect width="600" height="400" x="0" y="0" fill="none"></rect>
<path d="M90 320.5L540 320.5" fill="none" pointer-events="visible" stroke="#dbdee4" class="zr0-cls-0"></path>
<path d="M90 256.5L540 256.5" fill="none" pointer-events="visible" stroke="#dbdee4" class="zr0-cls-0"></path>
<path d="M90 192.5L540 192.5" fill="none" pointer-events="visible" stroke="#dbdee4" class="zr0-cls-0"></path>
<path d="M90 129.5L540 129.5" fill="none" pointer-events="visible" stroke="#dbdee4" class="zr0-cls-0"></path>
<path d="M90 65.5L540 65.5" fill="none" pointer-events="visible" stroke="#dbdee4" class="zr0-cls-0"></path>
<path d="M90 320.5L540 320.5" fill="none" pointer-events="visible" stroke="#54555a" stroke-linecap="round" class="zr0-cls-0"></path>
<text dominant-baseline="central" text-anchor="end" style="font-size:12px;font-family:sans-serif;" transform="translate(82 320)" fill="#54555a">0</text>
<text dominant-baseline="central" text-anchor="end" style="font-size:12px;font-family:sans-serif;" transform="translate(82 256.25)" fill="#54555a">10</text>
<text dominant-baseline="central" text-anchor="end" style="font-size:12px;font-family:sans-serif;" transform="translate(82 192.5)" fill="#54555a">20</text>
<text dominant-baseline="central" text-anchor="end" style="font-size:12px;font-family:sans-serif;" transform="translate(82 128.75)" fill="#54555a">30</text>
<text dominant-baseline="central" text-anchor="end" style="font-size:12px;font-family:sans-serif;" transform="translate(82 65)" fill="#54555a">40</text>
<text dominant-baseline="central" text-anchor="middle" style="font-size:12px;font-family:sans-serif;" y="6" transform="translate(122.1429 328)" fill="#54555a">Sun</text>
<text dominant-baseline="central" text-anchor="middle" style="font-size:12px;font-family:sans-serif;" y="6" transform="translate(186.4286 328)" fill="#54555a">Mon</text>
<text dominant-baseline="central" text-anchor="middle" style="font-size:12px;font-family:sans-serif;" y="6" transform="translate(250.7143 328)" fill="#54555a">Tue</text>
<text dominant-baseline="central" text-anchor="middle" style="font-size:12px;font-family:sans-serif;" y="6" transform="translate(315 328)" fill="#54555a">Wed</text>
<text dominant-baseline="central" text-anchor="middle" style="font-size:12px;font-family:sans-serif;" y="6" transform="translate(379.2857 328)" fill="#54555a">Thu</text>
<text dominant-baseline="central" text-anchor="middle" style="font-size:12px;font-family:sans-serif;" y="6" transform="translate(443.5714 328)" fill="#54555a">Fri</text>
<text dominant-baseline="central" text-anchor="middle" style="font-size:12px;font-family:sans-serif;" y="6" transform="translate(507.8571 328)" fill="#54555a">Sat</text>
<polygon points="122.1 149.8 186.4 158.7 250.7 163.2 315 149.1 379.3 153 443.6 161.3 507.9 158.7 507.9 110.3 443.6 119.8 379.3 109 315 91.8 250.7 111.5 186.4 113.5 122.1 112.8" fill="#5070dd" fill-opacity="0.2" ecmeta_series_index="0" ecmeta_data_index="6" ecmeta_ssr_type="chart" class="zr0-cls-1"></polygon>
<path d="M122.1 149.8L186.4 158.7L250.7 163.2L315 149.1L379.3 153L443.6 161.3L507.9 158.7" fill="none" pointer-events="visible" stroke="#5070dd" stroke-width="0" stroke-linecap="butt" stroke-miterlimit="10" ecmeta_series_index="0" ecmeta_data_index="6" ecmeta_ssr_type="chart" class="zr0-cls-2"></path>
<path d="M507.9 110.3L443.6 119.8L379.3 109L315 91.8L250.7 111.5L186.4 113.4L122.1 112.8" fill="none" pointer-events="visible" stroke="#5070dd" stroke-width="0" stroke-linecap="butt" stroke-miterlimit="10" ecmeta_series_index="0" ecmeta_data_index="6" ecmeta_ssr_type="chart" class="zr0-cls-2"></path>
<g clip-path="url(#zr0-c0)">
<path d="M122.1 135.3L186.4 127.3L250.7 124.9L315 117L379.3 139.2L443.6 136.6L507.9 130.8" fill="none" pointer-events="visible" stroke="#5070dd" stroke-width="2" stroke-linejoin="bevel" class="zr0-cls-2"></path>
</g>
<path d="M1 0A1 1 0 1 1 1 -0.1A1 1 0 0 1 1 0" transform="matrix(3,0,0,3,122.1429,135.3396)" fill="#fff" stroke="#5070dd" stroke-width="0.6666666666666666" ecmeta_series_index="1" ecmeta_data_index="0" ecmeta_ssr_type="chart" class="zr0-cls-4"></path>
<path d="M1 0A1 1 0 1 1 1 -0.1A1 1 0 0 1 1 0" transform="matrix(3,0,0,3,186.4286,127.2876)" fill="#fff" stroke="#5070dd" stroke-width="0.6666666666666666" ecmeta_series_index="1" ecmeta_data_index="1" ecmeta_ssr_type="chart" class="zr0-cls-4"></path>
<path d="M1 0A1 1 0 1 1 1 -0.1A1 1 0 0 1 1 0" transform="matrix(3,0,0,3,250.7143,124.9036)" fill="#fff" stroke="#5070dd" stroke-width="0.6666666666666666" ecmeta_series_index="1" ecmeta_data_index="2" ecmeta_ssr_type="chart" class="zr0-cls-4"></path>
<path d="M1 0A1 1 0 1 1 1 -0.1A1 1 0 0 1 1 0" transform="matrix(3,0,0,3,315,117.0233)" fill="#fff" stroke="#5070dd" stroke-width="0.6666666666666666" ecmeta_series_index="1" ecmeta_data_index="3" ecmeta_ssr_type="chart" class="zr0-cls-4"></path>
<path d="M1 0A1 1 0 1 1 1 -0.1A1 1 0 0 1 1 0" transform="matrix(3,0,0,3,379.2857,139.2217)" fill="#fff" stroke="#5070dd" stroke-width="0.6666666666666666" ecmeta_series_index="1" ecmeta_data_index="4" ecmeta_ssr_type="chart" class="zr0-cls-4"></path>
<path d="M1 0A1 1 0 1 1 1 -0.1A1 1 0 0 1 1 0" transform="matrix(3,0,0,3,443.5714,136.5538)" fill="#fff" stroke="#5070dd" stroke-width="0.6666666666666666" ecmeta_series_index="1" ecmeta_data_index="5" ecmeta_ssr_type="chart" class="zr0-cls-4"></path>
<path d="M1 0A1 1 0 1 1 1 -0.1A1 1 0 0 1 1 0" transform="matrix(3,0,0,3,507.8571,130.8321)" fill="#fff" stroke="#5070dd" stroke-width="0.6666666666666666" ecmeta_series_index="1" ecmeta_data_index="6" ecmeta_ssr_type="chart" class="zr0-cls-4"></path>
<path d="M-5 -5l58.7 0l0 24l-58.7 0Z" transform="translate(275.64 20)" fill="rgb(0,0,0)" fill-opacity="0" stroke="#b7b9be" stroke-width="0" class="zr0-cls-0"></path>
<path d="M3.5 0L21.5 0A3.5 3.5 0 0 1 25 3.5L25 10.5A3.5 3.5 0 0 1 21.5 14L3.5 14A3.5 3.5 0 0 1 0 10.5L0 3.5A3.5 3.5 0 0 1 3.5 0" transform="translate(275.64 20)" fill="#5070dd" ecmeta_series_index="0" ecmeta_data_index="0" ecmeta_ssr_type="legend" ecmeta_silent="true" class="zr0-cls-0"></path>
<text dominant-baseline="central" text-anchor="start" style="font-size:12px;font-family:sans-serif;" x="30" y="7" transform="translate(275.64 20)" fill="#54555a">line</text>
<path d="M0 0l48.7 0l0 14l-48.7 0Z" transform="translate(275.64 20)" fill="none" pointer-events="visible" ecmeta_series_index="0" ecmeta_data_index="0" ecmeta_ssr_type="legend" class="zr0-cls-5"></path>
<defs >
<clipPath id="zr0-c0">
<path d="M89 64l452 0l0 257l-452 0Z" fill="#000" class="zr0-cls-3"></path>
</clipPath>
</defs>
<style ><![CDATA[
.zr0-cls-0:hover {
pointer-events:none;
}
.zr0-cls-1:hover {
cursor:pointer;
fill:rgba(88,123,243,1);
}
.zr0-cls-2:hover {
cursor:pointer;
}
.zr0-cls-3:hover {
cursor:pointer;
fill:rgba(0,0,0,1);
}
.zr0-cls-4:hover {
cursor:pointer;
fill:rgba(255,255,255,1);
}
.zr0-cls-5:hover {
cursor:pointer;
fill:rgba(0,0,0,0);
}

]]>

</style>
</svg>