<svg width="600" height="400" xmlns="http://www.w3.org/2000/svg" xmlns:xlink="http://www.w3.org/1999/xlink" version="1.1" baseProfile="full" viewBox="0 0 600 400">
<rect width="600" height="400" x="0" y="0" fill="none"></rect>
<path d="M90 320.5L540 320.5" fill="none" pointer-events="visible" stroke="#dbdee4" class="zr0-cls-0"></path>
<path d="M90 288.5L540 288.5" fill="none" pointer-events="visible" stroke="#dbdee4" class="zr0-cls-0"></path>
<path d="M90 256.5L540 256.5" fill="none" pointer-events="visible" stroke="#dbdee4" class="zr0-cls-0"></path>
<path d="M90 224.5L540 224.5" fill="none" pointer-events="visible" stroke="#dbdee4" class="zr0-cls-0"></path>
<path d="M90 192.5L540 192.5" fill="none" pointer-events="visible" stroke="#dbdee4" class="zr0-cls-0"></path>
<path d="M90 160.5L540 160.5" fill="none" pointer-events="visible" stroke="#dbdee4" class="zr0-cls-0"></path>
<path d="M90 129.5L540 129.5" fill="none" pointer-events="visible" stroke="#dbdee4" class="zr0-cls-0"></path>
<path d="M90 97.5L540 97.5" fill="none" pointer-events="visible" stroke="#dbdee4" class="zr0-cls-0"></path>
<path d="M90 65.5L540 65.5" fill="none" pointer-events="visible" stroke="#dbdee4" class="zr0-cls-0"></path>
<path d="M90.5 65L90.5 320" fill="none" pointer-events="visible" stroke="#dbdee4" class="zr0-cls-0"></path>
<path d="M146.5 65L146.5 320" fill="none" pointer-events="visible" stroke="#dbdee4" class="zr0-cls-0"></path>
<path d="M202.5 65L202.5 320" fill="none" pointer-events="visible" stroke="#dbdee4" class="zr0-cls-0"></path>
<path d="M259.5 65L259.5 320" fill="none" pointer-events="visible" stroke="#dbdee4" class="zr0-cls-0"></path>
<path d="M315.5 65L315.5 320" fill="none" pointer-events="visible" stroke="#dbdee4" class="zr0-cls-0"></path>
<path d="M371.5 65L371.5 320" fill="none" pointer-events="visible" stroke="#dbdee4" class="zr0-cls-0"></path>
<path d="M427.5 65L427.5 320" fill="none" pointer-events="visible" stroke="#dbdee4" class="zr0-cls-0"></path>
<path d="M484.5 65L484.5 320" fill="none" pointer-events="visible" stroke="#dbdee4" class="zr0-cls-0"></path>
<path d="M540.5 65L540.5 320" fill="none" pointer-events="visible" stroke="#dbdee4" class="zr0-cls-0"></path>
<path d="M371.5 320L371.5 65" fill="none" pointer-events="visible" stroke="#54555a" stroke-linecap="round" class="zr0-cls-0"></path>
<path d="M90 160.5L540 160.5" fill="none" pointer-events="visible" stroke="#54555a" stroke-linecap="round" class="zr0-cls-0"></path>
<path d="M371.3 320.5L366.3 320.5" fill="none" pointer-events="visible" stroke="#54555a" class="zr0-cls-0"></path>
<path d="M371.3 288.5L366.3 288.5" fill="none" pointer-events="visible" stroke="#54555a" class="zr0-cls-0"></path>
<path d="M371.3 256.5L366.3 256.5" fill="none" pointer-events="visible" stroke="#54555a" class="zr0-cls-0"></path>
<path d="M371.3 224.5L366.3 224.5" fill="none" pointer-events="visible" stroke="#54555a" class="zr0-cls-0"></path>
<path d="M371.3 192.5L366.3 192.5" fill="none" pointer-events="visible" stroke="#54555a" class="zr0-cls-0"></path>
<path d="M371.3 160.5L366.3 160.5" fill="none" pointer-events="visible" stroke="#54555a" class="zr0-cls-0"></path>
<path d="M371.3 129.5L366.3 129.5" fill="none" pointer-events="visible" stroke="#54555a" class="zr0-cls-0"></path>
<path d="M371.3 97.5L366.3 97.5" fill="none" pointer-events="visible" stroke="#54555a" class="zr0-cls-0"></path>
<path d="M371.3 65.5L366.3 65.5" fill="none" pointer-events="visible" stroke="#54555a" class="zr0-cls-0"></path>
<path d="M90.5 160.6L90.5 165.6" fill="none" pointer-events="visible" stroke="#54555a" class="zr0-cls-0"></path>
<path d="M146.5 160.6L146.5 165.6" fill="none" pointer-events="visible" stroke="#54555a" class="zr0-cls-0"></path>
<path d="M202.5 160.6L202.5 165.6" fill="none" pointer-events="visible" stroke="#54555a" class="zr0-cls-0"></path>
<path d="M259.5 160.6L259.5 165.6" fill="none" pointer-events="visible" stroke="#54555a" class="zr0-cls-0"></path>
<path d="M315.5 160.6L315.5 165.6" fill="none" pointer-events="visible" stroke="#54555a" class="zr0-cls-0"></path>
<path d="M371.5 160.6L371.5 165.6" fill="none" pointer-events="visible" stroke="#54555a" class="zr0-cls-0"></path>
<path d="M427.5 160.6L427.5 165.6" fill="none" pointer-events="visible" stroke="#54555a" class="zr0-cls-0"></path>
<path d="M484.5 160.6L484.5 165.6" fill="none" pointer-events="visible" stroke="#54555a" class="zr0-cls-0"></path>
<path d="M540.5 160.6L540.5 165.6" fill="none" pointer-events="visible" stroke="#54555a" class="zr0-cls-0"></path>
<text dominant-baseline="central" text-anchor="end" style="font-size:12px;font-family:sans-serif;" transform="translate(82 320)" fill="#54555a">-150</text>
<text dominant-baseline="central" text-anchor="end" style="font-size:12px;font-family:sans-serif;" transform="translate(82 288.125)" fill="#54555a">-120</text>
<text dominant-baseline="central" text-anchor="end" style="font-size:12px;font-family:sans-serif;" transform="translate(82 256.25)" fill="#54555a">-90</text>
<text dominant-baseline="central" text-anchor="end" style="font-size:12px;font-family:sans-serif;" transform="translate(82 224.375)" fill="#54555a">-60</text>
<text dominant-baseline="central" text-anchor="end" style="font-size:12px;font-family:sans-serif;" transform="translate(82 192.5)" fill="#54555a">-30</text>
<text dominant-baseline="central" text-anchor="end" style="font-size:12px;font-family:sans-serif;" transform="translate(82 160.625)" fill="#54555a">0</text>
<text dominant-baseline="central" text-anchor="end" style="font-size:12px;font-family:sans-serif;" transform="translate(82 128.75)" fill="#54555a">30</text>
<text dominant-baseline="central" text-anchor="end" style="font-size:12px;font-family:sans-serif;" transform="translate(82 96.875)" fill="#54555a">60</text>
<text dominant-baseline="central" text-anchor="end" style="font-size:12px;font-family:sans-serif;" transform="translate(82 65)" fill="#54555a">90</text>
<text dominant-baseline="central" text-anchor="middle" style="font-size:12px;font-family:sans-serif;" y="6" transform="translate(90 328)" fill="#54555a">-150</text>
<text dominant-baseline="central" text-anchor="middle" style="font-size:12px;font-family:sans-serif;" y="6" transform="translate(146.25 328)" fill="#54555a">-120</text>
<text dominant-baseline="central" text-anchor="middle" style="font-size:12px;font-family:sans-serif;" y="6" transform="translate(202.5 328)" fill="#54555a">-90</text>
<text dominant-baseline="central" text-anchor="middle" style="font-size:12px;font-family:sans-serif;" y="6" transform="translate(258.75 328)" fill="#54555a">-60</text>
<text dominant-baseline="central" text-anchor="middle" style="font-size:12px;font-family:sans-serif;" y="6" transform="translate(315 328)" fill="#54555a">-30</text>
<text dominant-baseline="central" text-anchor="middle" style="font-size:12px;font-family:sans-serif;" y="6" transform="translate(371.25 328)" fill="#54555a">0</text>
<text dominant-baseline="central" text-anchor="middle" style="font-size:12px;font-family:sans-serif;" y="6" transform="translate(427.5 328)" fill="#54555a">30</text>
<text dominant-baseline="central" text-anchor="middle" style="font-size:12px;font-family:sans-serif;" y="6" transform="translate(483.75 328)" fill="#54555a">60</text>
<text dominant-baseline="central" text-anchor="middle" style="font-size:12px;font-family:sans-serif;" y="6" transform="translate(540 328)" fill="#54555a">90</text>
<path d="M290.7 269.5L293.5 268.9L297.5 267.8L301.5 266.5L304.3 265.5L305.5 265.1L309.5 263.6L313.5 261.9L314.3 261.5L317.5 260L321.5 257.9L322.1 257.5L325.5 255.5L328.8 253.5L329.5 253L333.5 250.5L335 249.5L337.5 247.8L341 245.5L341.5 245.2L345.5 242.6L347.1 241.5L349.5 240L353.3 237.5L353.5 237.4L357.5 234.8L359.4 233.5L361.5 232.1L365.2 229.5L365.5 229.3L369.5 226.4L370.7 225.5L373.5 223.4L375.9 221.5L377.5 220.2L380.9 217.5L381.5 217L385.5 213.8L385.9 213.5L389.5 210.6L390.8 209.5L393.5 207.3L395.7 205.5L397.5 204.1L400.8 201.5L401.5 200.9L405.5 197.8L405.9 197.5L409.5 194.7L410.9 193.5L413.5 191.5L415.9 189.5L417.5 188.2L420.8 185.5L421.5 184.9L425.5 181.5L425.5 181.5L429.5 177.9L430 177.5L433.5 174.3L434.3 173.5L437.5 170.5L438.5 169.5L441.5 166.4L442.3 165.5L445.5 161.8L445.8 161.5L448.8 157.5L449.5 156.6L451.6 153.5L453.5 150.3L453.9 149.5L456.1 145.5L457.5 142.3L457.8 141.5L459.3 137.5L460.5 133.5L461.4 129.5L461.5 129.1L462.1 125.5L462.5 121.5L462.6 117.5L462.4 113.5L462 109.5L461.5 106.9L461.2 105.5L460.2 101.5L458.9 97.5L457.5 93.9L457.3 93.5L455.5 89.5L453.5 86.1L453.1 85.5L450.4 81.5L449.5 80.3L447.2 77.5L445.5 75.6L443.5 73.5L441.5 71.5L439.3 69.5L437.5 67.9L434.5 65.5L433.5 64.7L429.5 61.8L429.1 61.5L425.5 59L423.2 57.5L421.5 56.3L417.5 53.8L417 53.5L413.5 51.3L410.7 49.5L409.5 48.7L405.5 46.1L404.5 45.5L401.5 43.5L398.6 41.5L397.5 40.7L393.5 37.9L392.9 37.5L389.5 35L387.3 33.5L385.5 32.2L381.7 29.5L381.5 29.3L377.5 26.3L376.4 25.5L373.5 23.2L371.3 21.5L369.5 20.1L366.3 17.5L365.5 16.8L361.5 13.5L361.5 13.4L357.5 10L356.9 9.5L353.5 6.6L352.2 5.5L349.5 3.2L347.4 1.5L345.5 -0.1L342.4 -2.5L341.5 -3.2L337.5 -6.2L337 -6.5L333.5 -9L331 -10.5L329.5 -11.5L325.5 -13.9L324.3 -14.5L321.5 -16L317.5 -17.9L316 -18.5L313.5 -19.6L309.5 -21.1L305.5 -22.3L304.5 -22.5L301.5 -23.3L297.5 -24L293.5 -24.6L289.5 -24.9L285.5 -25L281.5 -24.9L277.5 -24.6L273.5 -24.1L269.5 -23.4L265.7 -22.5L265.5 -22.5L261.5 -21.4L257.5 -20.1L253.5 -18.5L253.5 -18.5L249.5 -16.7L245.5 -14.6L245.3 -14.5L241.5 -12.4L238.5 -10.5L237.5 -9.9L233.5 -7.2L232.4 -6.5L229.5 -4.5L226.5 -2.5L225.5 -1.8L221.5 0.8L220.3 1.5L217.5 3.1L213.5 5.1L212.5 5.5L209.5 6.7L205.5 7.9L201.5 8.9L198.4 9.5L197.5 9.6L193.5 10.1L189.5 10.5L185.5 10.8L181.5 10.9L177.5 11L173.5 11L169.5 11.1L165.5 11.2L161.5 11.4L157.5 11.7L153.5 12.1L149.5 12.7L145.7 13.5L145.5 13.5L141.5 14.5L137.5 15.6L133.5 16.9L131.7 17.5L129.5 18.3L125.5 19.8L121.9 21.5L121.5 21.7L117.5 23.6L114.1 25.5L113.5 25.8L109.5 28.2L107.6 29.5L105.5 30.8L101.7 33.5L101.5 33.6L97.5 36.5L96.2 37.5L93.5 39.4L90.7 41.5L89.5 42.4L85.5 45.2L85.1 45.5L81.5 47.9L79.2 49.5L77.5 50.6L73.5 53.1L72.9 53.5L69.5 55.6L66.5 57.5L65.5 58.1L61.5 60.6L60 61.5L57.5 63L53.5 65.4L53.4 65.5L49.5 67.8L46.6 69.5L45.5 70.1L41.5 72.5L39.8 73.5L37.5 74.9L33.5 77.4L33.3 77.5L29.5 79.9L27.1 81.5L25.5 82.5L21.5 85.3L21.2 85.5L17.5 88.2L15.7 89.5L13.5 91.3L10.9 93.5L9.5 94.8L6.9 97.5L5.5 99.1L3.6 101.5L1.5 104.7L1 105.5L-1 109.5L-2.5 113.3L-2.6 113.5L-3.7 117.5L-4.6 121.5L-5.1 125.5L-5.2 129.5L-4.9 133.5L-4.3 137.5L-3.1 141.5L-2.5 143L-1.4 145.5L0.9 149.5L1.5 150.2L4.2 153.5L5.5 154.9L8.2 157.5L9.5 158.6L13.3 161.5L13.5 161.6L17.5 164.2L19.8 165.5L21.5 166.4L25.5 168.3L29.1 169.5L29.5 169.6L33.5 170.7L37.5 171.3L41.5 171.7L45.5 171.9L49.5 171.8L53.5 171.4L57.5 170.8L61.5 169.9L63 169.5L65.5 168.8L69.5 167.6L73.5 166.4L76.6 165.5L77.5 165.2L81.5 164.3L85.5 163.5L89.5 163L93.5 162.9L97.5 163.3L101.5 164.2L105.3 165.5L105.5 165.6L109.5 167.9L111.6 169.5L113.5 171.5L115.1 173.5L117.3 177.5L117.5 178L118.7 181.5L119.7 185.5L120.5 189.5L121.3 193.5L121.5 194.2L122.4 197.5L123.9 201.5L125.5 204.4L126.1 205.5L129 209.5L129.5 210.1L132.7 213.5L133.5 214.1L137.5 217.3L137.8 217.5L141.5 219.6L145.5 221.5L145.5 221.5L149.5 222.9L153.5 224.2L157.5 225.4L157.8 225.5L161.5 226.5L165.5 227.5L169.5 228.6L172.8 229.5L173.5 229.7L177.5 230.9L181.5 232.3L184.3 233.5L185.5 234L189.5 235.9L192.5 237.5L193.5 238L197.5 240.2L199.7 241.5L201.5 242.5L205.5 245L206.2 245.5L209.5 247.5L212.5 249.5L213.5 250.1L217.5 252.5L219 253.5L221.5 254.9L225.5 257.2L226 257.5L229.5 259.4L233.5 261.4L233.7 261.5L237.5 263.3L241.5 264.9L243 265.5L245.5 266.4L249.5 267.7L253.5 268.7L256.8 269.5L257.5 269.7L261.5 270.5L265.5 271L269.5 271.4L273.5 271.5L277.5 271.4L281.5 271.1L285.5 270.5L289.5 269.8Z" transform="translate(90 65)" fill="#5470c6" fill-opacity="0.3" ecmeta_series_index="0" ecmeta_data_index="299" ecmeta_ssr_type="chart" class="zr0-cls-1"></path>
<path d="M290.7 269.5L293.5 268.9L297.5 267.8L301.5 266.5L304.3 265.5L305.5 265.1L309.5 263.6L313.5 261.9L314.3 261.5L317.5 260L321.5 257.9L322.1 257.5L325.5 255.5L328.8 253.5L329.5 253L333.5 250.5L335 249.5L337.5 247.8L341 245.5L341.5 245.2L345.5 242.6L347.1 241.5L349.5 240L353.3 237.5L353.5 237.4L357.5 234.8L359.4 233.5L361.5 232.1L365.2 229.5L365.5 229.3L369.5 226.4L370.7 225.5L373.5 223.4L375.9 221.5L377.5 220.2L380.9 217.5L381.5 217L385.5 213.8L385.9 213.5L389.5 210.6L390.8 209.5L393.5 207.3L395.7 205.5L397.5 204.1L400.8 201.5L401.5 200.9L405.5 197.8L405.9 197.5L409.5 194.7L410.9 193.5L413.5 191.5L415.9 189.5L417.5 188.2L420.8 185.5L421.5 184.9L425.5 181.5L425.5 181.5L429.5 177.9L430 177.5L433.5 174.3L434.3 173.5L437.5 170.5L438.5 169.5L441.5 166.4L442.3 165.5L445.5 161.8L445.8 161.5L448.8 157.5L449.5 156.6L451.6 153.5L453.5 150.3L453.9 149.5L456.1 145.5L457.5 142.3L457.8 141.5L459.3 137.5L460.5 133.5L461.4 129.5L461.5 129.1L462.1 125.5L462.5 121.5L462.6 117.5L462.4 113.5L462 109.5L461.5 106.9L461.2 105.5L460.2 101.5L458.9 97.5L457.5 93.9L457.3 93.5L455.5 89.5L453.5 86.1L453.1 85.5L450.4 81.5L449.5 80.3L447.2 77.5L445.5 75.6L443.5 73.5L441.5 71.5L439.3 69.5L437.5 67.9L434.5 65.5L433.5 64.7L429.5 61.8L429.1 61.5L425.5 59L423.2 57.5L421.5 56.3L417.5 53.8L417 53.5L413.5 51.3L410.7 49.5L409.5 48.7L405.5 46.1L404.5 45.5L401.5 43.5L398.6 41.5L397.5 40.7L393.5 37.9L392.9 37.5L389.5 35L387.3 33.5L385.5 32.2L381.7 29.5L381.5 29.3L377.5 26.3L376.4 25.5L373.5 23.2L371.3 21.5L369.5 20.1L366.3 17.5L365.5 16.8L361.5 13.5L361.5 13.4L357.5 10L356.9 9.5L353.5 6.6L352.2 5.5L349.5 3.2L347.4 1.5L345.5 -0.1L342.4 -2.5L341.5 -3.2L337.5 -6.2L337 -6.5L333.5 -9L331 -10.5L329.5 -11.5L325.5 -13.9L324.3 -14.5L321.5 -16L317.5 -17.9L316 -18.5L313.5 -19.6L309.5 -21.1L305.5 -22.3L304.5 -22.5L301.5 -23.3L297.5 -24L293.5 -24.6L289.5 -24.9L285.5 -25L281.5 -24.9L277.5 -24.6L273.5 -24.1L269.5 -23.4L265.7 -22.5L265.5 -22.5L261.5 -21.4L257.5 -20.1L253.5 -18.5L253.5 -18.5L249.5 -16.7L245.5 -14.6L245.3 -14.5L241.5 -12.4L238.5 -10.5L237.5 -9.9L233.5 -7.2L232.4 -6.5L229.5 -4.5L226.5 -2.5L225.5 -1.8L221.5 0.8L220.3 1.5L217.5 3.1L213.5 5.1L212.5 5.5L209.5 6.7L205.5 7.9L201.5 8.9L198.4 9.5L197.5 9.6L193.5 10.1L189.5 10.5L185.5 10.8L181.5 10.9L177.5 11L173.5 11L169.5 11.1L165.5 11.2L161.5 11.4L157.5 11.7L153.5 12.1L149.5 12.7L145.7 13.5L145.5 13.5L141.5 14.5L137.5 15.6L133.5 16.9L131.7 17.5L129.5 18.3L125.5 19.8L121.9 21.5L121.5 21.7L117.5 23.6L114.1 25.5L113.5 25.8L109.5 28.2L107.6 29.5L105.5 30.8L101.7 33.5L101.5 33.6L97.5 36.5L96.2 37.5L93.5 39.4L90.7 41.5L89.5 42.4L85.5 45.2L85.1 45.5L81.5 47.9L79.2 49.5L77.5 50.6L73.5 53.1L72.9 53.5L69.5 55.6L66.5 57.5L65.5 58.1L61.5 60.6L60 61.5L57.5 63L53.5 65.4L53.4 65.5L49.5 67.8L46.6 69.5L45.5 70.1L41.5 72.5L39.8 73.5L37.5 74.9L33.5 77.4L33.3 77.5L29.5 79.9L27.1 81.5L25.5 82.5L21.5 85.3L21.2 85.5L17.5 88.2L15.7 89.5L13.5 91.3L10.9 93.5L9.5 94.8L6.9 97.5L5.5 99.1L3.6 101.5L1.5 104.7L1 105.5L-1 109.5L-2.5 113.3L-2.6 113.5L-3.7 117.5L-4.6 121.5L-5.1 125.5L-5.2 129.5L-4.9 133.5L-4.3 137.5L-3.1 141.5L-2.5 143L-1.4 145.5L0.9 149.5L1.5 150.2L4.2 153.5L5.5 154.9L8.2 157.5L9.5 158.6L13.3 161.5L13.5 161.6L17.5 164.2L19.8 165.5L21.5 166.4L25.5 168.3L29.1 169.5L29.5 169.6L33.5 170.7L37.5 171.3L41.5 171.7L45.5 171.9L49.5 171.8L53.5 171.4L57.5 170.8L61.5 169.9L63 169.5L65.5 168.8L69.5 167.6L73.5 166.4L76.6 165.5L77.5 165.2L81.5 164.3L85.5 163.5L89.5 163L93.5 162.9L97.5 163.3L101.5 164.2L105.3 165.5L105.5 165.6L109.5 167.9L111.6 169.5L113.5 171.5L115.1 173.5L117.3 177.5L117.5 178L118.7 181.5L119.7 185.5L120.5 189.5L121.3 193.5L121.5 194.2L122.4 197.5L123.9 201.5L125.5 204.4L126.1 205.5L129 209.5L129.5 210.1L132.7 213.5L133.5 214.1L137.5 217.3L137.8 217.5L141.5 219.6L145.5 221.5L145.5 221.5L149.5 222.9L153.5 224.2L157.5 225.4L157.8 225.5L161.5 226.5L165.5 227.5L169.5 228.6L172.8 229.5L173.5 229.7L177.5 230.9L181.5 232.3L184.3 233.5L185.5 234L189.5 235.9L192.5 237.5L193.5 238L197.5 240.2L199.7 241.5L201.5 242.5L205.5 245L206.2 245.5L209.5 247.5L212.5 249.5L213.5 250.1L217.5 252.5L219 253.5L221.5 254.9L225.5 257.2L226 257.5L229.5 259.4L233.5 261.4L233.7 261.5L237.5 263.3L241.5 264.9L243 265.5L245.5 266.4L249.5 267.7L253.5 268.7L256.8 269.5L257.5 269.7L261.5 270.5L265.5 271L269.5 271.4L273.5 271.5L277.5 271.4L281.5 271.1L285.5 270.5L289.5 269.8Z" transform="translate(90 65)" fill="none" pointer-events="visible" stroke="#5470c6" stroke-opacity="0.5" ecmeta_series_index="0" ecmeta_data_index="299" ecmeta_ssr_type="chart" class="zr0-cls-2"></path>
<path d="M286.7 245.5L289.5 245L293.5 244.1L297.5 243L301.5 241.6L301.9 241.5L305.5 240.1L309.5 238.4L311.5 237.5L313.5 236.6L317.5 234.5L319.2 233.5L321.5 232.1L325.5 229.6L325.6 229.5L329.5 226.9L331.6 225.5L333.5 224.2L337.3 221.5L337.5 221.4L341.5 218.5L342.9 217.5L345.5 215.5L348.1 213.5L349.5 212.4L353 209.5L353.5 209.1L357.5 205.6L357.7 205.5L361.5 202L362.1 201.5L365.5 198.2L366.3 197.5L369.5 194.3L370.3 193.5L373.5 190.4L374.5 189.5L377.5 186.7L378.9 185.5L381.5 183.3L383.7 181.5L385.5 180L388.8 177.5L389.5 177L393.5 174.1L394.4 173.5L397.5 171.4L400.3 169.5L401.5 168.7L405.5 166L406.3 165.5L409.5 163.2L411.8 161.5L413.5 160.2L416.9 157.5L417.5 157L421.3 153.5L421.5 153.3L425.3 149.5L425.5 149.3L428.7 145.5L429.5 144.5L431.6 141.5L433.5 138.5L434.1 137.5L436 133.5L437.4 129.5L437.5 129.3L438.5 125.5L439.1 121.5L439.3 117.5L439.1 113.5L438.6 109.5L437.6 105.5L437.5 105.1L436.3 101.5L434.5 97.5L433.5 95.6L432.3 93.5L429.6 89.5L429.5 89.4L426.3 85.5L425.5 84.6L422.5 81.5L421.5 80.6L418.1 77.5L417.5 77L413.5 73.6L413.3 73.5L409.5 70.4L408.4 69.5L405.5 67.2L403.4 65.5L401.5 64L398.3 61.5L397.5 60.8L393.5 57.6L393.4 57.5L389.5 54.4L388.4 53.5L385.5 51.2L383.3 49.5L381.5 48L378.3 45.5L377.5 44.9L373.5 41.7L373.2 41.5L369.5 38.5L368.2 37.5L365.5 35.3L363.3 33.5L361.5 32L358.4 29.5L357.5 28.7L353.5 25.5L353.5 25.4L349.5 22.1L348.7 21.5L345.5 18.8L343.8 17.5L341.5 15.6L338.7 13.5L337.5 12.5L333.5 9.6L333.3 9.5L329.5 6.8L327.4 5.5L325.5 4.2L321.5 1.9L320.7 1.5L317.5 -0.3L313.5 -2.1L312.6 -2.5L309.5 -3.8L305.5 -5.2L301.5 -6.3L300.4 -6.5L297.5 -7.1L293.5 -7.7L289.5 -8L285.5 -8.1L281.5 -7.9L277.5 -7.4L273.5 -6.7L272.7 -6.5L269.5 -5.8L265.5 -4.5L261.5 -2.9L260.6 -2.5L257.5 -1.1L253.5 1.1L252.9 1.5L249.5 3.7L246.9 5.5L245.5 6.5L241.6 9.5L241.5 9.6L237.5 12.7L236.5 13.5L233.5 15.9L231.3 17.5L229.5 18.9L225.6 21.5L225.5 21.6L221.5 23.8L218 25.5L217.5 25.7L213.5 27.1L209.5 28.1L205.5 28.8L201.5 29.3L197.8 29.5L197.5 29.5L193.5 29.7L189.5 29.7L185.5 29.8L181.5 29.8L177.5 29.9L173.5 29.9L169.5 30.1L165.5 30.3L161.5 30.6L157.5 31.1L153.5 31.9L149.5 32.9L147.4 33.5L145.5 34.1L141.5 35.5L137.5 37.3L137 37.5L133.5 39.2L129.5 41.3L129.1 41.5L125.5 43.6L122.6 45.5L121.5 46.2L117.5 49L116.8 49.5L113.5 52.1L111.7 53.5L109.5 55.3L106.9 57.5L105.5 58.8L102.3 61.5L101.5 62.3L97.8 65.5L97.5 65.7L93.5 69.2L93.1 69.5L89.5 72.6L88.3 73.5L85.5 76L83.7 77.5L81.5 79.4L79 81.5L77.5 82.9L74.4 85.5L73.5 86.4L69.8 89.5L69.5 89.8L65.5 93.3L65.2 93.5L61.5 96.9L60.7 97.5L57.5 100.7L56.6 101.5L53.5 105.1L53.1 105.5L50.5 109.5L49.5 112L48.9 113.5L48.8 117.5L49.5 118.9L51.6 121.5L53.5 122.4L57.5 123.3L61.5 123.6L65.5 123.5L69.5 123.3L73.5 123.1L77.5 122.8L81.5 122.6L85.5 122.5L89.5 122.5L93.5 122.6L97.5 123L101.5 123.4L105.5 124L109.5 124.7L113.2 125.5L113.5 125.5L117.5 126.4L121.5 127.5L125.5 128.7L127.7 129.5L129.5 130.1L133.5 131.6L137.5 133.1L138.5 133.5L141.5 134.8L145.5 136.5L147.8 137.5L149.5 138.3L153.5 140.1L156.5 141.5L157.5 142L161.5 144L164.4 145.5L165.5 146.1L169.5 148.4L171.2 149.5L173.5 151L177.3 153.5L177.5 153.6L181.5 156.4L183 157.5L185.5 159.3L188.4 161.5L189.5 162.3L193.5 165.4L193.5 165.5L197.5 168.8L198.2 169.5L201.5 172.5L202.5 173.5L205.5 176.6L206.3 177.5L209.5 181.1L209.8 181.5L212.7 185.5L213.5 186.6L215.4 189.5L217.5 193L217.8 193.5L220 197.5L221.5 200L222.3 201.5L224.6 205.5L225.5 206.9L227 209.5L229.5 213.4L229.5 213.5L232.1 217.5L233.5 219.6L234.7 221.5L237.5 225.3L237.6 225.5L241 229.5L241.5 230L245.2 233.5L245.5 233.7L249.5 236.6L250.8 237.5L253.5 239.1L257.5 241.3L258 241.5L261.5 243L265.5 244.4L269.5 245.4L270.3 245.5L273.5 245.9L277.5 246.2L281.5 246.1L285.5 245.7Z" transform="translate(90 65)" fill="#5470c6" fill-opacity="0.39999999999999997" ecmeta_series_index="0" ecmeta_data_index="299" ecmeta_ssr_type="chart" class="zr0-cls-1"></path>
<path d="M286.7 245.5L289.5 245L293.5 244.1L297.5 243L301.5 241.6L301.9 241.5L305.5 240.1L309.5 238.4L311.5 237.5L313.5 236.6L317.5 234.5L319.2 233.5L321.5 232.1L325.5 229.6L325.6 229.5L329.5 226.9L331.6 225.5L333.5 224.2L337.3 221.5L337.5 221.4L341.5 218.5L342.9 217.5L345.5 215.5L348.1 213.5L349.5 212.4L353 209.5L353.5 209.1L357.5 205.6L357.7 205.5L361.5 202L362.1 201.5L365.5 198.2L366.3 197.5L369.5 194.3L370.3 193.5L373.5 190.4L374.5 189.5L377.5 186.7L378.9 185.5L381.5 183.3L383.7 181.5L385.5 180L388.8 177.5L389.5 177L393.5 174.1L394.4 173.5L397.5 171.4L400.3 169.5L401.5 168.7L405.5 166L406.3 165.5L409.5 163.2L411.8 161.5L413.5 160.2L416.9 157.5L417.5 157L421.3 153.5L421.5 153.3L425.3 149.5L425.5 149.3L428.7 145.5L429.5 144.5L431.6 141.5L433.5 138.5L434.1 137.5L436 133.5L437.4 129.5L437.5 129.3L438.5 125.5L439.1 121.5L439.3 117.5L439.1 113.5L438.6 109.5L437.6 105.5L437.5 105.1L436.3 101.5L434.5 97.5L433.5 95.6L432.3 93.5L429.6 89.5L429.5 89.4L426.3 85.5L425.5 84.6L422.5 81.5L421.5 80.6L418.1 77.5L417.5 77L413.5 73.6L413.3 73.5L409.5 70.4L408.4 69.5L405.5 67.2L403.4 65.5L401.5 64L398.3 61.5L397.5 60.8L393.5 57.6L393.4 57.5L389.5 54.4L388.4 53.5L385.5 51.2L383.3 49.5L381.5 48L378.3 45.5L377.5 44.9L373.5 41.7L373.2 41.5L369.5 38.5L368.2 37.5L365.5 35.3L363.3 33.5L361.5 32L358.4 29.5L357.5 28.7L353.5 25.5L353.5 25.4L349.5 22.1L348.7 21.5L345.5 18.8L343.8 17.5L341.5 15.6L338.7 13.5L337.5 12.5L333.5 9.6L333.3 9.5L329.5 6.8L327.4 5.5L325.5 4.2L321.5 1.9L320.7 1.5L317.5 -0.3L313.5 -2.1L312.6 -2.5L309.5 -3.8L305.5 -5.2L301.5 -6.3L300.4 -6.5L297.5 -7.1L293.5 -7.7L289.5 -8L285.5 -8.1L281.5 -7.9L277.5 -7.4L273.5 -6.7L272.7 -6.5L269.5 -5.8L265.5 -4.5L261.5 -2.9L260.6 -2.5L257.5 -1.1L253.5 1.1L252.9 1.5L249.5 3.7L246.9 5.5L245.5 6.5L241.6 9.5L241.5 9.6L237.5 12.7L236.5 13.5L233.5 15.9L231.3 17.5L229.5 18.9L225.6 21.5L225.5 21.6L221.5 23.8L218 25.5L217.5 25.7L213.5 27.1L209.5 28.1L205.5 28.8L201.5 29.3L197.8 29.5L197.5 29.5L193.5 29.7L189.5 29.7L185.5 29.8L181.5 29.8L177.5 29.9L173.5 29.9L169.5 30.1L165.5 30.3L161.5 30.6L157.5 31.1L153.5 31.9L149.5 32.9L147.4 33.5L145.5 34.1L141.5 35.5L137.5 37.3L137 37.5L133.5 39.2L129.5 41.3L129.1 41.5L125.5 43.6L122.6 45.5L121.5 46.2L117.5 49L116.8 49.5L113.5 52.1L111.7 53.5L109.5 55.3L106.9 57.5L105.5 58.8L102.3 61.5L101.5 62.3L97.8 65.5L97.5 65.7L93.5 69.2L93.1 69.5L89.5 72.6L88.3 73.5L85.5 76L83.7 77.5L81.5 79.4L79 81.5L77.5 82.9L74.4 85.5L73.5 86.4L69.8 89.5L69.5 89.8L65.5 93.3L65.2 93.5L61.5 96.9L60.7 97.5L57.5 100.7L56.6 101.5L53.5 105.1L53.1 105.5L50.5 109.5L49.5 112L48.9 113.5L48.8 117.5L49.5 118.9L51.6 121.5L53.5 122.4L57.5 123.3L61.5 123.6L65.5 123.5L69.5 123.3L73.5 123.1L77.5 122.8L81.5 122.6L85.5 122.5L89.5 122.5L93.5 122.6L97.5 123L101.5 123.4L105.5 124L109.5 124.7L113.2 125.5L113.5 125.5L117.5 126.4L121.5 127.5L125.5 128.7L127.7 129.5L129.5 130.1L133.5 131.6L137.5 133.1L138.5 133.5L141.5 134.8L145.5 136.5L147.8 137.5L149.5 138.3L153.5 140.1L156.5 141.5L157.5 142L161.5 144L164.4 145.5L165.5 146.1L169.5 148.4L171.2 149.5L173.5 151L177.3 153.5L177.5 153.6L181.5 156.4L183 157.5L185.5 159.3L188.4 161.5L189.5 162.3L193.5 165.4L193.5 165.5L197.5 168.8L198.2 169.5L201.5 172.5L202.5 173.5L205.5 176.6L206.3 177.5L209.5 181.1L209.8 181.5L212.7 185.5L213.5 186.6L215.4 189.5L217.5 193L217.8 193.5L220 197.5L221.5 200L222.3 201.5L224.6 205.5L225.5 206.9L227 209.5L229.5 213.4L229.5 213.5L232.1 217.5L233.5 219.6L234.7 221.5L237.5 225.3L237.6 225.5L241 229.5L241.5 230L245.2 233.5L245.5 233.7L249.5 236.6L250.8 237.5L253.5 239.1L257.5 241.3L258 241.5L261.5 243L265.5 244.4L269.5 245.4L270.3 245.5L273.5 245.9L277.5 246.2L281.5 246.1L285.5 245.7Z" transform="translate(90 65)" fill="none" pointer-events="visible" stroke="#5470c6" stroke-opacity="0.5" ecmeta_series_index="0" ecmeta_data_index="299" ecmeta_ssr_type="chart" class="zr0-cls-2"></path>
<path d="M309.3 213.5L309.5 213.4L313.5 211.7L317.5 209.7L317.8 209.5L321.5 207.2L323.9 205.5L325.5 204.3L329 201.5L329.5 201.1L333.5 197.5L333.5 197.5L337.5 193.7L337.7 193.5L341.5 189.8L341.8 189.5L345.5 185.8L345.8 185.5L349.5 182L350 181.5L353.5 178.2L354.3 177.5L357.5 174.6L358.7 173.5L361.5 171.1L363.3 169.5L365.5 167.6L368.1 165.5L369.5 164.4L373.1 161.5L373.5 161.2L377.5 158.3L378.7 157.5L381.5 155.6L384.7 153.5L385.5 153L389.5 150.4L390.9 149.5L393.5 147.8L396.9 145.5L397.5 145L401.5 142L402.2 141.5L405.5 138.5L406.6 137.5L409.5 134.1L410 133.5L412.7 129.5L413.5 127.8L414.6 125.5L415.8 121.5L416.5 117.5L416.6 113.5L416.1 109.5L415.1 105.5L413.6 101.5L413.5 101.3L411.6 97.5L409.5 94.2L409.1 93.5L406.2 89.5L405.5 88.7L402.9 85.5L401.5 83.9L399.4 81.5L397.5 79.5L395.6 77.5L393.5 75.3L391.7 73.5L389.5 71.3L387.7 69.5L385.5 67.4L383.6 65.5L381.5 63.6L379.3 61.5L377.5 59.9L374.9 57.5L373.5 56.2L370.4 53.5L369.5 52.7L365.9 49.5L365.5 49.2L361.5 45.7L361.3 45.5L357.5 42.2L356.6 41.5L353.5 38.8L351.9 37.5L349.5 35.5L347 33.5L345.5 32.2L342 29.5L341.5 29.1L337.5 26L336.8 25.5L333.5 23L331.3 21.5L329.5 20.2L325.5 17.6L325.4 17.5L321.5 15.1L318.7 13.5L317.5 12.8L313.5 10.8L310.5 9.5L309.5 9L305.5 7.6L301.5 6.4L297.5 5.6L297 5.5L293.5 5L289.5 4.7L285.5 4.8L281.5 5.2L279.8 5.5L277.5 5.9L273.5 6.9L269.5 8.2L266.6 9.5L265.5 10L261.5 12.1L259.2 13.5L257.5 14.6L253.5 17.5L253.5 17.5L249.5 20.6L248.5 21.5L245.5 24L243.8 25.5L241.5 27.5L239.2 29.5L237.5 31L234.5 33.5L233.5 34.4L229.5 37.4L229.4 37.5L225.5 40.1L222.9 41.5L221.5 42.2L217.5 43.8L213.5 44.8L209.5 45.5L209.4 45.5L205.5 45.8L201.5 45.9L197.5 45.8L193.5 45.7L189.5 45.6L185.5 45.6L181.5 45.6L177.5 45.7L173.5 45.9L169.5 46.2L165.5 46.7L161.5 47.4L157.5 48.3L153.9 49.5L153.5 49.6L149.5 51.4L145.5 53.5L145.5 53.5L141.5 56.2L139.7 57.5L137.5 59.3L135 61.5L133.5 63L131.1 65.5L129.5 67.4L127.7 69.5L125.5 72.9L125.1 73.5L123.1 77.5L121.9 81.5L121.6 85.5L122.3 89.5L124.1 93.5L125.5 95.3L127.1 97.5L129.5 99.7L131.4 101.5L133.5 103.1L136.7 105.5L137.5 106L141.5 108.6L142.9 109.5L145.5 111L149.5 113.2L150 113.5L153.5 115.3L157.5 117.2L158.1 117.5L161.5 119.1L165.5 120.9L166.8 121.5L169.5 122.7L173.5 124.5L175.5 125.5L177.5 126.4L181.5 128.4L183.6 129.5L185.5 130.5L189.5 132.6L191 133.5L193.5 135L197.4 137.5L197.5 137.5L201.5 140.4L203 141.5L205.5 143.4L208.1 145.5L209.5 146.6L212.8 149.5L213.5 150.1L217.3 153.5L217.5 153.7L221.5 157.3L221.7 157.5L225.5 160.9L226.2 161.5L229.5 164.4L230.7 165.5L233.5 168.1L235.1 169.5L237.5 171.9L239.2 173.5L241.5 175.9L243 177.5L245.5 180.3L246.6 181.5L249.5 185.2L249.7 185.5L252.6 189.5L253.5 190.8L255.3 193.5L257.5 196.7L258 197.5L260.9 201.5L261.5 202.3L264.1 205.5L265.5 207L268.1 209.5L269.5 210.7L273.5 213.4L273.6 213.5L277.5 215.3L281.5 216.5L285.5 217.2L289.5 217.3L293.5 217.1L297.5 216.6L301.5 215.8L305.5 214.7Z" transform="translate(90 65)" fill="#5470c6" fill-opacity="0.5" ecmeta_series_index="0" ecmeta_data_index="299" ecmeta_ssr_type="chart" class="zr0-cls-1"></path>
<path d="M309.3 213.5L309.5 213.4L313.5 211.7L317.5 209.7L317.8 209.5L321.5 207.2L323.9 205.5L325.5 204.3L329 201.5L329.5 201.1L333.5 197.5L333.5 197.5L337.5 193.7L337.7 193.5L341.5 189.8L341.8 189.5L345.5 185.8L345.8 185.5L349.5 182L350 181.5L353.5 178.2L354.3 177.5L357.5 174.6L358.7 173.5L361.5 171.1L363.3 169.5L365.5 167.6L368.1 165.5L369.5 164.4L373.1 161.5L373.5 161.2L377.5 158.3L378.7 157.5L381.5 155.6L384.7 153.5L385.5 153L389.5 150.4L390.9 149.5L393.5 147.8L396.9 145.5L397.5 145L401.5 142L402.2 141.5L405.5 138.5L406.6 137.5L409.5 134.1L410 133.5L412.7 129.5L413.5 127.8L414.6 125.5L415.8 121.5L416.5 117.5L416.6 113.5L416.1 109.5L415.1 105.5L413.6 101.5L413.5 101.3L411.6 97.5L409.5 94.2L409.1 93.5L406.2 89.5L405.5 88.7L402.9 85.5L401.5 83.9L399.4 81.5L397.5 79.5L395.6 77.5L393.5 75.3L391.7 73.5L389.5 71.3L387.7 69.5L385.5 67.4L383.6 65.5L381.5 63.6L379.3 61.5L377.5 59.9L374.9 57.5L373.5 56.2L370.4 53.5L369.5 52.7L365.9 49.5L365.5 49.2L361.5 45.7L361.3 45.5L357.5 42.2L356.6 41.5L353.5 38.8L351.9 37.5L349.5 35.5L347 33.5L345.5 32.2L342 29.5L341.5 29.1L337.5 26L336.8 25.5L333.5 23L331.3 21.5L329.5 20.2L325.5 17.6L325.4 17.5L321.5 15.1L318.7 13.5L317.5 12.8L313.5 10.8L310.5 9.5L309.5 9L305.5 7.6L301.5 6.4L297.5 5.6L297 5.5L293.5 5L289.5 4.7L285.5 4.8L281.5 5.2L279.8 5.5L277.5 5.9L273.5 6.9L269.5 8.2L266.6 9.5L265.5 10L261.5 12.1L259.2 13.5L257.5 14.6L253.5 17.5L253.5 17.5L249.5 20.6L248.5 21.5L245.5 24L243.8 25.5L241.5 27.5L239.2 29.5L237.5 31L234.5 33.5L233.5 34.4L229.5 37.4L229.4 37.5L225.5 40.1L222.9 41.5L221.5 42.2L217.5 43.8L213.5 44.8L209.5 45.5L209.4 45.5L205.5 45.8L201.5 45.9L197.5 45.8L193.5 45.7L189.5 45.6L185.5 45.6L181.5 45.6L177.5 45.7L173.5 45.9L169.5 46.2L165.5 46.7L161.5 47.4L157.5 48.3L153.9 49.5L153.5 49.6L149.5 51.4L145.5 53.5L145.5 53.5L141.5 56.2L139.7 57.5L137.5 59.3L135 61.5L133.5 63L131.1 65.5L129.5 67.4L127.7 69.5L125.5 72.9L125.1 73.5L123.1 77.5L121.9 81.5L121.6 85.5L122.3 89.5L124.1 93.5L125.5 95.3L127.1 97.5L129.5 99.7L131.4 101.5L133.5 103.1L136.7 105.5L137.5 106L141.5 108.6L142.9 109.5L145.5 111L149.5 113.2L150 113.5L153.5 115.3L157.5 117.2L158.1 117.5L161.5 119.1L165.5 120.9L166.8 121.5L169.5 122.7L173.5 124.5L175.5 125.5L177.5 126.4L181.5 128.4L183.6 129.5L185.5 130.5L189.5 132.6L191 133.5L193.5 135L197.4 137.5L197.5 137.5L201.5 140.4L203 141.5L205.5 143.4L208.1 145.5L209.5 146.6L212.8 149.5L213.5 150.1L217.3 153.5L217.5 153.7L221.5 157.3L221.7 157.5L225.5 160.9L226.2 161.5L229.5 164.4L230.7 165.5L233.5 168.1L235.1 169.5L237.5 171.9L239.2 173.5L241.5 175.9L243 177.5L245.5 180.3L246.6 181.5L249.5 185.2L249.7 185.5L252.6 189.5L253.5 190.8L255.3 193.5L257.5 196.7L258 197.5L260.9 201.5L261.5 202.3L264.1 205.5L265.5 207L268.1 209.5L269.5 210.7L273.5 213.4L273.6 213.5L277.5 215.3L281.5 216.5L285.5 217.2L289.5 217.3L293.5 217.1L297.5 216.6L301.5 215.8L305.5 214.7Z" transform="translate(90 65)" fill="none" pointer-events="visible" stroke="#5470c6" stroke-opacity="0.5" ecmeta_series_index="0" ecmeta_data_index="299" ecmeta_ssr_type="chart" class="zr0-cls-2"></path>
<path d="M306.1 181.5L309.5 180.9L313.5 179.6L317.5 177.9L318.2 177.5L321.5 175.8L325.2 173.5L325.5 173.3L329.5 170.6L331 169.5L333.5 167.7L336.3 165.5L337.5 164.6L341.4 161.5L341.5 161.4L345.5 158.3L346.6 157.5L349.5 155.3L352 153.5L353.5 152.4L357.5 149.6L357.6 149.5L361.5 146.8L363.3 145.5L365.5 143.9L368.7 141.5L369.5 140.9L373.5 137.9L374 137.5L377.5 134.7L378.9 133.5L381.5 131.2L383.3 129.5L385.5 127L386.8 125.5L389.5 121.6L389.6 121.5L391.5 117.5L392.6 113.5L393 109.5L392.8 105.5L392.1 101.5L390.9 97.5L389.5 94.3L389.2 93.5L387.1 89.5L385.5 87L384.6 85.5L381.8 81.5L381.5 81.1L378.8 77.5L377.5 75.9L375.6 73.5L373.5 71.1L372.2 69.5L369.5 66.6L368.5 65.5L365.5 62.3L364.7 61.5L361.5 58.3L360.7 57.5L357.5 54.4L356.5 53.5L353.5 50.7L352.2 49.5L349.5 47.1L347.7 45.5L345.5 43.6L342.9 41.5L341.5 40.3L337.9 37.5L337.5 37.2L333.5 34.2L332.5 33.5L329.5 31.4L326.6 29.5L325.5 28.7L321.5 26.2L320.2 25.5L317.5 23.9L313.5 21.9L312.5 21.5L309.5 20.1L305.5 18.7L301.5 17.5L301.3 17.5L297.5 16.7L293.5 16.2L289.5 16.1L285.5 16.3L281.5 16.9L279.2 17.5L277.5 17.9L273.5 19.3L269.5 21.1L268.7 21.5L265.5 23.3L262.2 25.5L261.5 26L257.5 29.1L257 29.5L253.5 32.7L252.6 33.5L249.5 36.6L248.6 37.5L245.5 40.8L244.8 41.5L241.5 45.1L241.1 45.5L237.5 49.3L237.3 49.5L233.5 53.3L233.2 53.5L229.5 56.7L228.4 57.5L225.5 59.5L221.7 61.5L221.5 61.6L217.5 63.1L213.5 64L209.5 64.4L205.5 64.4L201.5 64.3L197.5 64L193.5 63.8L189.5 63.7L185.5 63.8L181.5 64.1L177.5 64.6L173.5 65.4L173 65.5L169.5 66.6L165.5 68.3L163.4 69.5L161.5 71L159.1 73.5L157.5 76.4L157 77.5L156.4 81.5L157.1 85.5L157.5 86.2L159.3 89.5L161.5 92.1L162.8 93.5L165.5 95.7L167.8 97.5L169.5 98.6L173.5 101.2L174 101.5L177.5 103.4L181.2 105.5L181.5 105.6L185.5 107.7L189 109.5L189.5 109.7L193.5 111.8L196.6 113.5L197.5 114L201.5 116.3L203.4 117.5L205.5 118.8L209.4 121.5L209.5 121.5L213.5 124.5L214.7 125.5L217.5 127.7L219.5 129.5L221.5 131.2L224 133.5L225.5 134.8L228.3 137.5L229.5 138.6L232.6 141.5L233.5 142.3L236.9 145.5L237.5 146L241.3 149.5L241.5 149.6L245.5 153.1L246 153.5L249.5 156.3L251.1 157.5L253.5 159.3L256.5 161.5L257.5 162.2L261.5 165L262.3 165.5L265.5 167.7L268.3 169.5L269.5 170.4L273.5 172.9L274.5 173.5L277.5 175.3L281.5 177.4L281.7 177.5L285.5 179.2L289.5 180.5L293.5 181.3L294.7 181.5L297.5 181.8L301.5 181.9L305.5 181.6Z" transform="translate(90 65)" fill="rgb(175, 203, 109)" fill-opacity="0.6" ecmeta_series_index="0" ecmeta_data_index="299" ecmeta_ssr_type="chart" class="zr0-cls-3"></path>
<path d="M306.1 181.5L309.5 180.9L313.5 179.6L317.5 177.9L318.2 177.5L321.5 175.8L325.2 173.5L325.5 173.3L329.5 170.6L331 169.5L333.5 167.7L336.3 165.5L337.5 164.6L341.4 161.5L341.5 161.4L345.5 158.3L346.6 157.5L349.5 155.3L352 153.5L353.5 152.4L357.5 149.6L357.6 149.5L361.5 146.8L363.3 145.5L365.5 143.9L368.7 141.5L369.5 140.9L373.5 137.9L374 137.5L377.5 134.7L378.9 133.5L381.5 131.2L383.3 129.5L385.5 127L386.8 125.5L389.5 121.6L389.6 121.5L391.5 117.5L392.6 113.5L393 109.5L392.8 105.5L392.1 101.5L390.9 97.5L389.5 94.3L389.2 93.5L387.1 89.5L385.5 87L384.6 85.5L381.8 81.5L381.5 81.1L378.8 77.5L377.5 75.9L375.6 73.5L373.5 71.1L372.2 69.5L369.5 66.6L368.5 65.5L365.5 62.3L364.7 61.5L361.5 58.3L360.7 57.5L357.5 54.4L356.5 53.5L353.5 50.7L352.2 49.5L349.5 47.1L347.7 45.5L345.5 43.6L342.9 41.5L341.5 40.3L337.9 37.5L337.5 37.2L333.5 34.2L332.5 33.5L329.5 31.4L326.6 29.5L325.5 28.7L321.5 26.2L320.2 25.5L317.5 23.9L313.5 21.9L312.5 21.5L309.5 20.1L305.5 18.7L301.5 17.5L301.3 17.5L297.5 16.7L293.5 16.2L289.5 16.1L285.5 16.3L281.5 16.9L279.2 17.5L277.5 17.9L273.5 19.3L269.5 21.1L268.7 21.5L265.5 23.3L262.2 25.5L261.5 26L257.5 29.1L257 29.5L253.5 32.7L252.6 33.5L249.5 36.6L248.6 37.5L245.5 40.8L244.8 41.5L241.5 45.1L241.1 45.5L237.5 49.3L237.3 49.5L233.5 53.3L233.2 53.5L229.5 56.7L228.4 57.5L225.5 59.5L221.7 61.5L221.5 61.6L217.5 63.1L213.5 64L209.5 64.4L205.5 64.4L201.5 64.3L197.5 64L193.5 63.8L189.5 63.7L185.5 63.8L181.5 64.1L177.5 64.6L173.5 65.4L173 65.5L169.5 66.6L165.5 68.3L163.4 69.5L161.5 71L159.1 73.5L157.5 76.4L157 77.5L156.4 81.5L157.1 85.5L157.5 86.2L159.3 89.5L161.5 92.1L162.8 93.5L165.5 95.7L167.8 97.5L169.5 98.6L173.5 101.2L174 101.5L177.5 103.4L181.2 105.5L181.5 105.6L185.5 107.7L189 109.5L189.5 109.7L193.5 111.8L196.6 113.5L197.5 114L201.5 116.3L203.4 117.5L205.5 118.8L209.4 121.5L209.5 121.5L213.5 124.5L214.7 125.5L217.5 127.7L219.5 129.5L221.5 131.2L224 133.5L225.5 134.8L228.3 137.5L229.5 138.6L232.6 141.5L233.5 142.3L236.9 145.5L237.5 146L241.3 149.5L241.5 149.6L245.5 153.1L246 153.5L249.5 156.3L251.1 157.5L253.5 159.3L256.5 161.5L257.5 162.2L261.5 165L262.3 165.5L265.5 167.7L268.3 169.5L269.5 170.4L273.5 172.9L274.5 173.5L277.5 175.3L281.5 177.4L281.7 177.5L285.5 179.2L289.5 180.5L293.5 181.3L294.7 181.5L297.5 181.8L301.5 181.9L305.5 181.6Z" transform="translate(90 65)" fill="none" pointer-events="visible" stroke="rgb(175, 203, 109)" stroke-opacity="0.5" ecmeta_series_index="0" ecmeta_data_index="299" ecmeta_ssr_type="chart" class="zr0-cls-2"></path>
<path d="M320.1 153.5L321.5 153L325.5 151.3L329.1 149.5L329.5 149.3L333.5 147.1L336.2 145.5L337.5 144.7L341.5 142.2L342.5 141.5L345.5 139.5L348.4 137.5L349.5 136.7L353.5 133.8L353.8 133.5L357.5 130.5L358.7 129.5L361.5 126.9L363 125.5L365.5 122.7L366.6 121.5L369.4 117.5L369.5 117.4L371.6 113.5L373.1 109.5L373.5 107.4L373.9 105.5L374 101.5L373.7 97.5L373.5 96.7L372.8 93.5L371.5 89.5L369.7 85.5L369.5 85.1L367.6 81.5L365.5 78.2L365.1 77.5L362.3 73.5L361.5 72.4L359.3 69.5L357.5 67.4L356 65.5L353.5 62.8L352.3 61.5L349.5 58.6L348.4 57.5L345.5 54.7L344.2 53.5L341.5 51L339.7 49.5L337.5 47.7L334.8 45.5L333.5 44.5L329.5 41.6L329.4 41.5L325.5 38.8L323.4 37.5L321.5 36.3L317.5 34L316.5 33.5L313.5 32L309.5 30.3L307.3 29.5L305.5 28.8L301.5 27.8L297.5 27L293.5 26.7L289.5 26.7L285.5 27.2L281.5 28L277.5 29.4L277.3 29.5L273.5 31.2L269.6 33.5L269.5 33.6L265.5 36.6L264.4 37.5L261.5 40.2L260.3 41.5L257.5 44.6L256.8 45.5L253.6 49.5L253.5 49.7L250.7 53.5L249.5 55.4L248 57.5L245.5 61.1L245.2 61.5L242.5 65.5L241.5 67.1L239.8 69.5L237.5 73.2L237.3 73.5L234.8 77.5L233.5 80.1L232.6 81.5L230.8 85.5L229.5 89.5L229.5 89.8L228.7 93.5L228.5 97.5L229 101.5L229.5 103.4L230 105.5L231.6 109.5L233.5 113.2L233.6 113.5L236.1 117.5L237.5 119.4L238.9 121.5L241.5 124.6L242.2 125.5L245.5 129L245.9 129.5L249.5 133L250 133.5L253.5 136.7L254.4 137.5L257.5 140L259.4 141.5L261.5 143L265.1 145.5L265.5 145.8L269.5 148.3L271.6 149.5L273.5 150.5L277.5 152.5L280 153.5L281.5 154.1L285.5 155.4L289.5 156.3L293.5 157L297.5 157.3L301.5 157.4L305.5 157.1L309.5 156.6L313.5 155.7L317.5 154.5Z" transform="translate(90 65)" fill="rgb(220, 201, 96)" fill-opacity="0.7" ecmeta_series_index="0" ecmeta_data_index="299" ecmeta_ssr_type="chart" class="zr0-cls-4"></path>
<path d="M320.1 153.5L321.5 153L325.5 151.3L329.1 149.5L329.5 149.3L333.5 147.1L336.2 145.5L337.5 144.7L341.5 142.2L342.5 141.5L345.5 139.5L348.4 137.5L349.5 136.7L353.5 133.8L353.8 133.5L357.5 130.5L358.7 129.5L361.5 126.9L363 125.5L365.5 122.7L366.6 121.5L369.4 117.5L369.5 117.4L371.6 113.5L373.1 109.5L373.5 107.4L373.9 105.5L374 101.5L373.7 97.5L373.5 96.7L372.8 93.5L371.5 89.5L369.7 85.5L369.5 85.1L367.6 81.5L365.5 78.2L365.1 77.5L362.3 73.5L361.5 72.4L359.3 69.5L357.5 67.4L356 65.5L353.5 62.8L352.3 61.5L349.5 58.6L348.4 57.5L345.5 54.7L344.2 53.5L341.5 51L339.7 49.5L337.5 47.7L334.8 45.5L333.5 44.5L329.5 41.6L329.4 41.5L325.5 38.8L323.4 37.5L321.5 36.3L317.5 34L316.5 33.5L313.5 32L309.5 30.3L307.3 29.5L305.5 28.8L301.5 27.8L297.5 27L293.5 26.7L289.5 26.7L285.5 27.2L281.5 28L277.5 29.4L277.3 29.5L273.5 31.2L269.6 33.5L269.5 33.6L265.5 36.6L264.4 37.5L261.5 40.2L260.3 41.5L257.5 44.6L256.8 45.5L253.6 49.5L253.5 49.7L250.7 53.5L249.5 55.4L248 57.5L245.5 61.1L245.2 61.5L242.5 65.5L241.5 67.1L239.8 69.5L237.5 73.2L237.3 73.5L234.8 77.5L233.5 80.1L232.6 81.5L230.8 85.5L229.5 89.5L229.5 89.8L228.7 93.5L228.5 97.5L229 101.5L229.5 103.4L230 105.5L231.6 109.5L233.5 113.2L233.6 113.5L236.1 117.5L237.5 119.4L238.9 121.5L241.5 124.6L242.2 125.5L245.5 129L245.9 129.5L249.5 133L250 133.5L253.5 136.7L254.4 137.5L257.5 140L259.4 141.5L261.5 143L265.1 145.5L265.5 145.8L269.5 148.3L271.6 149.5L273.5 150.5L277.5 152.5L280 153.5L281.5 154.1L285.5 155.4L289.5 156.3L293.5 157L297.5 157.3L301.5 157.4L305.5 157.1L309.5 156.6L313.5 155.7L317.5 154.5Z" transform="translate(90 65)" fill="none" pointer-events="visible" stroke="rgb(220, 201, 96)" stroke-opacity="0.5" ecmeta_series_index="0" ecmeta_data_index="299" ecmeta_ssr_type="chart" class="zr0-cls-2"></path>
<path d="M321 137.5L321.5 137.3L325.5 135.8L329.5 134L330.5 133.5L333.5 131.9L337.4 129.5L337.5 129.4L341.5 126.6L343 125.5L345.5 123.4L347.6 121.5L349.5 119.6L351.4 117.5L353.5 114.7L354.4 113.5L356.6 109.5L357.5 107.2L358.1 105.5L359 101.5L359.3 97.5L359 93.5L358.2 89.5L357.5 87.3L356.9 85.5L355.2 81.5L353.5 78.4L353 77.5L350.5 73.5L349.5 72.1L347.6 69.5L345.5 66.9L344.3 65.5L341.5 62.5L340.6 61.5L337.5 58.5L336.4 57.5L333.5 55L331.7 53.5L329.5 51.8L326.4 49.5L325.5 48.8L321.5 46.2L320.3 45.5L317.5 43.8L313.5 41.8L312.8 41.5L309.5 40.1L305.5 38.7L301.5 37.7L300 37.5L297.5 37.1L293.5 36.9L289.5 37.2L288.1 37.5L285.5 38L281.5 39.4L277.5 41.4L277.3 41.5L273.5 44.1L271.9 45.5L269.5 47.7L267.8 49.5L265.5 52.4L264.6 53.5L262 57.5L261.5 58.3L259.6 61.5L257.6 65.5L257.5 65.6L255.7 69.5L254.1 73.5L253.5 75.4L252.8 77.5L251.7 81.5L250.9 85.5L250.5 89.5L250.4 93.5L250.6 97.5L251.2 101.5L252.1 105.5L253.5 109.2L253.6 109.5L255.6 113.5L257.5 116.5L258.1 117.5L261.4 121.5L261.5 121.6L265.3 125.5L265.5 125.6L269.5 128.9L270.2 129.5L273.5 131.8L276.2 133.5L277.5 134.2L281.5 136.2L284.7 137.5L285.5 137.8L289.5 139L293.5 139.9L297.5 140.4L301.5 140.6L305.5 140.5L309.5 140.2L313.5 139.5L317.5 138.6Z" transform="translate(90 65)" fill="rgb(248, 186, 90)" fill-opacity="0.8" ecmeta_series_index="0" ecmeta_data_index="299" ecmeta_ssr_type="chart" class="zr0-cls-5"></path>
<path d="M321 137.5L321.5 137.3L325.5 135.8L329.5 134L330.5 133.5L333.5 131.9L337.4 129.5L337.5 129.4L341.5 126.6L343 125.5L345.5 123.4L347.6 121.5L349.5 119.6L351.4 117.5L353.5 114.7L354.4 113.5L356.6 109.5L357.5 107.2L358.1 105.5L359 101.5L359.3 97.5L359 93.5L358.2 89.5L357.5 87.3L356.9 85.5L355.2 81.5L353.5 78.4L353 77.5L350.5 73.5L349.5 72.1L347.6 69.5L345.5 66.9L344.3 65.5L341.5 62.5L340.6 61.5L337.5 58.5L336.4 57.5L333.5 55L331.7 53.5L329.5 51.8L326.4 49.5L325.5 48.8L321.5 46.2L320.3 45.5L317.5 43.8L313.5 41.8L312.8 41.5L309.5 40.1L305.5 38.7L301.5 37.7L300 37.5L297.5 37.1L293.5 36.9L289.5 37.2L288.1 37.5L285.5 38L281.5 39.4L277.5 41.4L277.3 41.5L273.5 44.1L271.9 45.5L269.5 47.7L267.8 49.5L265.5 52.4L264.6 53.5L262 57.5L261.5 58.3L259.6 61.5L257.6 65.5L257.5 65.6L255.7 69.5L254.1 73.5L253.5 75.4L252.8 77.5L251.7 81.5L250.9 85.5L250.5 89.5L250.4 93.5L250.6 97.5L251.2 101.5L252.1 105.5L253.5 109.2L253.6 109.5L255.6 113.5L257.5 116.5L258.1 117.5L261.4 121.5L261.5 121.6L265.3 125.5L265.5 125.6L269.5 128.9L270.2 129.5L273.5 131.8L276.2 133.5L277.5 134.2L281.5 136.2L284.7 137.5L285.5 137.8L289.5 139L293.5 139.9L297.5 140.4L301.5 140.6L305.5 140.5L309.5 140.2L313.5 139.5L317.5 138.6Z" transform="translate(90 65)" fill="none" pointer-events="visible" stroke="rgb(248, 186, 90)" stroke-opacity="0.5" ecmeta_series_index="0" ecmeta_data_index="299" ecmeta_ssr_type="chart" class="zr0-cls-2"></path>
<path d="M315.4 125.5L317.5 125L321.5 123.7L325.5 122.1L326.6 121.5L329.5 119.9L333.1 117.5L333.5 117.2L337.5 113.6L337.6 113.5L341 109.5L341.5 108.7L343.4 105.5L345 101.5L345.5 99.4L345.9 97.5L346.1 93.5L345.7 89.5L345.5 88.5L344.7 85.5L343.2 81.5L341.5 78.1L341.2 77.5L338.6 73.5L337.5 72L335.5 69.5L333.5 67.2L331.8 65.5L329.5 63.3L327.5 61.5L325.5 59.8L322.4 57.5L321.5 56.8L317.5 54.3L316 53.5L313.5 52.2L309.5 50.5L306.5 49.5L305.5 49.2L301.5 48.3L297.5 48L293.5 48.1L289.5 48.9L287.8 49.5L285.5 50.4L281.5 52.8L280.6 53.5L277.5 56.3L276.4 57.5L273.5 61.1L273.2 61.5L270.8 65.5L269.5 68.2L268.9 69.5L267.4 73.5L266.4 77.5L265.6 81.5L265.5 83.3L265.3 85.5L265.3 89.5L265.5 91.1L265.7 93.5L266.5 97.5L267.6 101.5L269.2 105.5L269.5 105.9L271.5 109.5L273.5 112.2L274.5 113.5L277.5 116.5L278.6 117.5L281.5 119.7L284.4 121.5L285.5 122.1L289.5 123.9L293.5 125.2L294.6 125.5L297.5 126.1L301.5 126.6L305.5 126.7L309.5 126.5L313.5 125.9Z" transform="translate(90 65)" fill="rgb(243, 144, 96)" fill-opacity="0.8999999999999999" ecmeta_series_index="0" ecmeta_data_index="299" ecmeta_ssr_type="chart" class="zr0-cls-6"></path>
<path d="M315.4 125.5L317.5 125L321.5 123.7L325.5 122.1L326.6 121.5L329.5 119.9L333.1 117.5L333.5 117.2L337.5 113.6L337.6 113.5L341 109.5L341.5 108.7L343.4 105.5L345 101.5L345.5 99.4L345.9 97.5L346.1 93.5L345.7 89.5L345.5 88.5L344.7 85.5L343.2 81.5L341.5 78.1L341.2 77.5L338.6 73.5L337.5 72L335.5 69.5L333.5 67.2L331.8 65.5L329.5 63.3L327.5 61.5L325.5 59.8L322.4 57.5L321.5 56.8L317.5 54.3L316 53.5L313.5 52.2L309.5 50.5L306.5 49.5L305.5 49.2L301.5 48.3L297.5 48L293.5 48.1L289.5 48.9L287.8 49.5L285.5 50.4L281.5 52.8L280.6 53.5L277.5 56.3L276.4 57.5L273.5 61.1L273.2 61.5L270.8 65.5L269.5 68.2L268.9 69.5L267.4 73.5L266.4 77.5L265.6 81.5L265.5 83.3L265.3 85.5L265.3 89.5L265.5 91.1L265.7 93.5L266.5 97.5L267.6 101.5L269.2 105.5L269.5 105.9L271.5 109.5L273.5 112.2L274.5 113.5L277.5 116.5L278.6 117.5L281.5 119.7L284.4 121.5L285.5 122.1L289.5 123.9L293.5 125.2L294.6 125.5L297.5 126.1L301.5 126.6L305.5 126.7L309.5 126.5L313.5 125.9Z" transform="translate(90 65)" fill="none" pointer-events="visible" stroke="rgb(243, 144, 96)" stroke-opacity="0.5" ecmeta_series_index="0" ecmeta_data_index="299" ecmeta_ssr_type="chart" class="zr0-cls-2"></path>
<path d="M319.2 109.5L321.5 108.3L325.3 105.5L325.5 105.3L328.7 101.5L329.5 100.2L330.8 97.5L331.8 93.5L331.8 89.5L331.1 85.5L329.6 81.5L329.5 81.3L327.3 77.5L325.5 75L324.2 73.5L321.5 70.7L320.2 69.5L317.5 67.4L314.6 65.5L313.5 64.8L309.5 63L305.5 61.8L303.6 61.5L301.5 61.2L297.5 61.3L296.6 61.5L293.5 62.3L289.5 64.4L288 65.5L285.5 68L284.3 69.5L282 73.5L281.5 74.8L280.6 77.5L279.8 81.5L279.5 85.5L279.9 89.5L280.8 93.5L281.5 95.4L282.4 97.5L284.7 101.5L285.5 102.5L288.2 105.5L289.5 106.6L293.5 109.2L294 109.5L297.5 110.9L301.5 111.8L305.5 112.2L309.5 112.1L313.5 111.5L317.5 110.2Z" transform="translate(90 65)" fill="#ee6666" ecmeta_series_index="0" ecmeta_data_index="299" ecmeta_ssr_type="chart" class="zr0-cls-7"></path>
<path d="M319.2 109.5L321.5 108.3L325.3 105.5L325.5 105.3L328.7 101.5L329.5 100.2L330.8 97.5L331.8 93.5L331.8 89.5L331.1 85.5L329.6 81.5L329.5 81.3L327.3 77.5L325.5 75L324.2 73.5L321.5 70.7L320.2 69.5L317.5 67.4L314.6 65.5L313.5 64.8L309.5 63L305.5 61.8L303.6 61.5L301.5 61.2L297.5 61.3L296.6 61.5L293.5 62.3L289.5 64.4L288 65.5L285.5 68L284.3 69.5L282 73.5L281.5 74.8L280.6 77.5L279.8 81.5L279.5 85.5L279.9 89.5L280.8 93.5L281.5 95.4L282.4 97.5L284.7 101.5L285.5 102.5L288.2 105.5L289.5 106.6L293.5 109.2L294 109.5L297.5 110.9L301.5 111.8L305.5 112.2L309.5 112.1L313.5 111.5L317.5 110.2Z" transform="translate(90 65)" fill="none" pointer-events="visible" stroke="#ee6666" stroke-opacity="0.5" ecmeta_series_index="0" ecmeta_data_index="299" ecmeta_ssr_type="chart" class="zr0-cls-2"></path>
<style ><![CDATA[
.zr0-cls-0:hover {
pointer-events:none;
}
.zr0-cls-1:hover {
cursor:pointer;
fill:rgba(92,123,217,1);
}
.zr0-cls-2:hover {
cursor:pointer;
}
.zr0-cls-3:hover {
cursor:pointer;
fill:rgba(192,223,119,1);
}
.zr0-cls-4:hover {
cursor:pointer;
fill:rgba(242,221,105,1);
}
.zr0-cls-5:hover {
cursor:pointer;
fill:rgba(255,204,99,1);
}
.zr0-cls-6:hover {
cursor:pointer;
fill:rgba(255,158,105,1);
}
.zr0-cls-7:hover {
cursor:pointer;
fill:rgba(255,112,112,1);
}

]]>

</style>
</svg>