<svg width="600" height="400" xmlns="http://www.w3.org/2000/svg" xmlns:xlink="http://www.w3.org/1999/xlink" version="1.1" baseProfile="full" viewBox="0 0 600 400">
<rect width="600" height="400" x="0" y="0" fill="#fff"></rect>
<path d="M90 320.5L540 320.5" fill="none" pointer-events="visible" stroke="#dbdee4" class="zr1-cls-2"></path>
<path d="M90 269.5L540 269.5" fill="none" pointer-events="visible" stroke="#dbdee4" class="zr1-cls-2"></path>
<path d="M90 218.5L540 218.5" fill="none" pointer-events="visible" stroke="#dbdee4" class="zr1-cls-2"></path>
<path d="M90 167.5L540 167.5" fill="none" pointer-events="visible" stroke="#dbdee4" class="zr1-cls-2"></path>
<path d="M90 116.5L540 116.5" fill="none" pointer-events="visible" stroke="#dbdee4" class="zr1-cls-2"></path>
<path d="M90 65.5L540 65.5" fill="none" pointer-events="visible" stroke="#dbdee4" class="zr1-cls-2"></path>
<path d="M90.5 65L90.5 320" fill="none" pointer-events="visible" stroke="#dbdee4" class="zr1-cls-2"></path>
<path d="M146.5 65L146.5 320" fill="none" pointer-events="visible" stroke="#dbdee4" class="zr1-cls-2"></path>
<path d="M202.5 65L202.5 320" fill="none" pointer-events="visible" stroke="#dbdee4" class="zr1-cls-2"></path>
<path d="M259.5 65L259.5 320" fill="none" pointer-events="visible" stroke="#dbdee4" class="zr1-cls-2"></path>
<path d="M315.5 65L315.5 320" fill="none" pointer-events="visible" stroke="#dbdee4" class="zr1-cls-2"></path>
<path d="M371.5 65L371.5 320" fill="none" pointer-events="visible" stroke="#dbdee4" class="zr1-cls-2"></path>
<path d="M427.5 65L427.5 320" fill="none" pointer-events="visible" stroke="#dbdee4" class="zr1-cls-2"></path>
<path d="M484.5 65L484.5 320" fill="none" pointer-events="visible" stroke="#dbdee4" class="zr1-cls-2"></path>
<path d="M540.5 65L540.5 320" fill="none" pointer-events="visible" stroke="#dbdee4" class="zr1-cls-2"></path>
<path d="M371.5 320L371.5 65" fill="none" pointer-events="visible" stroke="#54555a" stroke-linecap="round" class="zr1-cls-2"></path>
<path d="M90 167.5L540 167.5" fill="none" pointer-events="visible" stroke="#54555a" stroke-linecap="round" class="zr1-cls-2"></path>
<path d="M371.3 320.5L366.3 320.5" fill="none" pointer-events="visible" stroke="#54555a" class="zr1-cls-2"></path>
<path d="M371.3 269.5L366.3 269.5" fill="none" pointer-events="visible" stroke="#54555a" class="zr1-cls-2"></path>
<path d="M371.3 218.5L366.3 218.5" fill="none" pointer-events="visible" stroke="#54555a" class="zr1-cls-2"></path>
<path d="M371.3 167.5L366.3 167.5" fill="none" pointer-events="visible" stroke="#54555a" class="zr1-cls-2"></path>
<path d="M371.3 116.5L366.3 116.5" fill="none" pointer-events="visible" stroke="#54555a" class="zr1-cls-2"></path>
<path d="M371.3 65.5L366.3 65.5" fill="none" pointer-events="visible" stroke="#54555a" class="zr1-cls-2"></path>
<path d="M90.5 167L90.5 172" fill="none" pointer-events="visible" stroke="#54555a" class="zr1-cls-2"></path>
<path d="M146.5 167L146.5 172" fill="none" pointer-events="visible" stroke="#54555a" class="zr1-cls-2"></path>
<path d="M202.5 167L202.5 172" fill="none" pointer-events="visible" stroke="#54555a" class="zr1-cls-2"></path>
<path d="M259.5 167L259.5 172" fill="none" pointer-events="visible" stroke="#54555a" class="zr1-cls-2"></path>
<path d="M315.5 167L315.5 172" fill="none" pointer-events="visible" stroke="#54555a" class="zr1-cls-2"></path>
<path d="M371.5 167L371.5 172" fill="none" pointer-events="visible" stroke="#54555a" class="zr1-cls-2"></path>
<path d="M427.5 167L427.5 172" fill="none" pointer-events="visible" stroke="#54555a" class="zr1-cls-2"></path>
<path d="M484.5 167L484.5 172" fill="none" pointer-events="visible" stroke="#54555a" class="zr1-cls-2"></path>
<path d="M540.5 167L540.5 172" fill="none" pointer-events="visible" stroke="#54555a" class="zr1-cls-2"></path>
<text dominant-baseline="central" text-anchor="end" style="font-size:12px;font-family:sans-serif;" transform="translate(82 320)" fill="#54555a">-150</text>
<text dominant-baseline="central" text-anchor="end" style="font-size:12px;font-family:sans-serif;" transform="translate(82 269)" fill="#54555a">-100</text>
<text dominant-baseline="central" text-anchor="end" style="font-size:12px;font-family:sans-serif;" transform="translate(82 218)" fill="#54555a">-50</text>
<text dominant-baseline="central" text-anchor="end" style="font-size:12px;font-family:sans-serif;" transform="translate(82 167)" fill="#54555a">0</text>
<text dominant-baseline="central" text-anchor="end" style="font-size:12px;font-family:sans-serif;" transform="translate(82 116)" fill="#54555a">50</text>
<text dominant-baseline="central" text-anchor="end" style="font-size:12px;font-family:sans-serif;" transform="translate(82 65)" fill="#54555a">100</text>
<text dominant-baseline="central" text-anchor="middle" style="font-size:12px;font-family:sans-serif;" y="6" transform="translate(90 328)" fill="#54555a">-150</text>
<text dominant-baseline="central" text-anchor="middle" style="font-size:12px;font-family:sans-serif;" y="6" transform="translate(146.25 328)" fill="#54555a">-120</text>
<text dominant-baseline="central" text-anchor="middle" style="font-size:12px;font-family:sans-serif;" y="6" transform="translate(202.5 328)" fill="#54555a">-90</text>
<text dominant-baseline="central" text-anchor="middle" style="font-size:12px;font-family:sans-serif;" y="6" transform="translate(258.75 328)" fill="#54555a">-60</text>
<text dominant-baseline="central" text-anchor="middle" style="font-size:12px;font-family:sans-serif;" y="6" transform="translate(315 328)" fill="#54555a">-30</text>
<text dominant-baseline="central" text-anchor="middle" style="font-size:12px;font-family:sans-serif;" y="6" transform="translate(371.25 328)" fill="#54555a">0</text>
<text dominant-baseline="central" text-anchor="middle" style="font-size:12px;font-family:sans-serif;" y="6" transform="translate(427.5 328)" fill="#54555a">30</text>
<text dominant-baseline="central" text-anchor="middle" style="font-size:12px;font-family:sans-serif;" y="6" transform="translate(483.75 328)" fill="#54555a">60</text>
<text dominant-baseline="central" text-anchor="middle" style="font-size:12px;font-family:sans-serif;" y="6" transform="translate(540 328)" fill="#54555a">90</text>
<path d="M290.9 269.5L293.5 268.9L297.5 267.8L301.5 266.5L304.3 265.5L305.5 265.1L309.5 263.5L313.5 261.7L314 261.5L317.5 259.8L321.5 257.7L321.8 257.5L325.5 255.3L328.3 253.5L329.5 252.7L333.5 250.1L334.4 249.5L337.5 247.4L340.3 245.5L341.5 244.7L345.5 242L346.2 241.5L349.5 239.4L352.4 237.5L353.5 236.8L357.5 234.2L358.6 233.5L361.5 231.6L364.7 229.5L365.5 228.9L369.5 226.2L370.4 225.5L373.5 223.3L375.9 221.5L377.5 220.3L381.1 217.5L381.5 217.2L385.5 214.1L386.3 213.5L389.5 210.9L391.3 209.5L393.5 207.7L396.3 205.5L397.5 204.5L401.3 201.5L401.5 201.3L405.5 198.2L406.4 197.5L409.5 195.1L411.4 193.5L413.5 191.9L416.4 189.5L417.5 188.6L421.3 185.5L421.5 185.3L425.5 181.9L425.9 181.5L429.5 178.4L430.5 177.5L433.5 174.7L434.8 173.5L437.5 170.9L438.9 169.5L441.5 166.8L442.7 165.5L445.5 162.3L446.1 161.5L449.2 157.5L449.5 157.1L452 153.5L453.5 151L454.4 149.5L456.5 145.5L457.5 143.4L458.4 141.5L459.9 137.5L461.1 133.5L461.5 132L462.1 129.5L462.8 125.5L463.2 121.5L463.3 117.5L463.2 113.5L462.8 109.5L462.1 105.5L461.5 102.9L461.2 101.5L459.9 97.5L458.4 93.5L457.5 91.6L456.5 89.5L454.3 85.5L453.5 84.3L451.6 81.5L449.5 78.9L448.4 77.5L445.5 74.4L444.6 73.5L441.5 70.5L440.3 69.5L437.5 67.1L435.5 65.5L433.5 64L430 61.5L429.5 61.1L425.5 58.5L424 57.5L421.5 55.9L417.5 53.5L417.5 53.5L413.5 51L410.9 49.5L409.5 48.6L405.5 46.1L404.5 45.5L401.5 43.5L398.4 41.5L397.5 40.9L393.5 38.2L392.5 37.5L389.5 35.4L386.8 33.5L385.5 32.6L381.5 29.7L381.2 29.5L377.5 26.7L375.8 25.5L373.5 23.7L370.5 21.5L369.5 20.6L365.5 17.5L365.5 17.5L361.5 14.1L360.7 13.5L357.5 10.8L356 9.5L353.5 7.4L351.2 5.5L349.5 4L346.3 1.5L345.5 0.8L341.5 -2.3L341.2 -2.5L337.5 -5.3L335.8 -6.5L333.5 -8.1L329.8 -10.5L329.5 -10.7L325.5 -13.2L322.9 -14.5L321.5 -15.3L317.5 -17.3L314.6 -18.5L313.5 -19L309.5 -20.5L305.5 -21.8L302.4 -22.5L301.5 -22.8L297.5 -23.6L293.5 -24.2L289.5 -24.5L285.5 -24.7L281.5 -24.6L277.5 -24.4L273.5 -23.9L269.5 -23.3L266.1 -22.5L265.5 -22.4L261.5 -21.4L257.5 -20.1L253.5 -18.6L253.3 -18.5L249.5 -16.9L245.5 -14.9L244.8 -14.5L241.5 -12.7L237.8 -10.5L237.5 -10.3L233.5 -7.7L231.7 -6.5L229.5 -5L225.9 -2.5L225.5 -2.2L221.5 0.4L219.8 1.5L217.5 2.9L213.5 5.1L212.7 5.5L209.5 6.9L205.5 8.4L201.8 9.5L201.5 9.6L197.5 10.4L193.5 11.1L189.5 11.6L185.5 12L181.5 12.2L177.5 12.4L173.5 12.5L169.5 12.6L165.5 12.7L161.5 12.9L157.5 13.1L153.7 13.5L153.5 13.5L149.5 14L145.5 14.6L141.5 15.5L137.5 16.5L134 17.5L133.5 17.6L129.5 18.9L125.5 20.3L122.5 21.5L121.5 21.9L117.5 23.7L113.9 25.5L113.5 25.7L109.5 27.9L106.9 29.5L105.5 30.3L101.5 32.9L100.7 33.5L97.5 35.7L94.9 37.5L93.5 38.5L89.5 41.4L89.4 41.5L85.5 44.3L83.8 45.5L81.5 47.1L78 49.5L77.5 49.9L73.5 52.5L72 53.5L69.5 55.1L65.8 57.5L65.5 57.7L61.5 60.3L59.6 61.5L57.5 62.8L53.5 65.4L53.4 65.5L49.5 68L47.1 69.5L45.5 70.5L41.5 73.1L40.9 73.5L37.5 75.7L34.9 77.5L33.5 78.4L29.5 81.2L29 81.5L25.5 84L23.4 85.5L21.5 86.9L18 89.5L17.5 89.9L13.5 93.1L13 93.5L9.5 96.8L8.7 97.5L5.5 101.2L5.2 101.5L2.5 105.5L1.5 107.2L0.3 109.5L-1.4 113.5L-2.5 116.8L-2.7 117.5L-3.7 121.5L-4.3 125.5L-4.5 129.5L-4.4 133.5L-3.9 137.5L-2.9 141.5L-2.5 142.6L-1.4 145.5L0.7 149.5L1.5 150.6L3.7 153.5L5.5 155.4L7.6 157.5L9.5 159.2L12.5 161.5L13.5 162.3L17.5 164.9L18.5 165.5L21.5 167.2L25.5 169.1L26.6 169.5L29.5 170.6L33.5 171.7L37.5 172.4L41.5 172.9L45.5 173.1L49.5 173L53.5 172.7L57.5 172.1L61.5 171.3L65.5 170.3L68.2 169.5L69.5 169.1L73.5 167.9L77.5 166.7L81.4 165.5L81.5 165.5L85.5 164.5L89.5 163.8L93.5 163.5L97.5 163.7L101.5 164.3L105.5 165.4L105.8 165.5L109.5 167.2L113 169.5L113.5 169.9L116.8 173.5L117.5 174.6L119.1 177.5L120.6 181.5L121.5 184.9L121.6 185.5L122.4 189.5L123.1 193.5L124 197.5L125.4 201.5L125.5 201.8L127.3 205.5L129.5 208.9L129.9 209.5L133.3 213.5L133.5 213.7L137.5 217.3L137.7 217.5L141.5 220L144.2 221.5L145.5 222.1L149.5 223.8L153.5 225.3L154 225.5L157.5 226.6L161.5 227.8L165.5 228.9L167.4 229.5L169.5 230L173.5 231.1L177.5 232.3L180.9 233.5L181.5 233.7L185.5 235.2L189.5 237L190.4 237.5L193.5 238.9L197.5 241L198.3 241.5L201.5 243.2L205.2 245.5L205.5 245.6L209.5 248.1L211.7 249.5L213.5 250.5L217.5 252.9L218.5 253.5L221.5 255.1L225.5 257.3L225.8 257.5L229.5 259.4L233.5 261.4L233.7 261.5L237.5 263.2L241.5 264.9L243.1 265.5L245.5 266.4L249.5 267.6L253.5 268.7L256.9 269.5L257.5 269.6L261.5 270.4L265.5 271L269.5 271.3L273.5 271.5L277.5 271.4L281.5 271.1L285.5 270.6L289.5 269.8Z" transform="translate(90 65)" fill="#5470c6" fill-opacity="0.3" ecmeta_series_index="0" ecmeta_data_index="299" ecmeta_ssr_type="chart" class="zr1-cls-3"></path>
<path d="M290.9 269.5L293.5 268.9L297.5 267.8L301.5 266.5L304.3 265.5L305.5 265.1L309.5 263.5L313.5 261.7L314 261.5L317.5 259.8L321.5 257.7L321.8 257.5L325.5 255.3L328.3 253.5L329.5 252.7L333.5 250.1L334.4 249.5L337.5 247.4L340.3 245.5L341.5 244.7L345.5 242L346.2 241.5L349.5 239.4L352.4 237.5L353.5 236.8L357.5 234.2L358.6 233.5L361.5 231.6L364.7 229.5L365.5 228.9L369.5 226.2L370.4 225.5L373.5 223.3L375.9 221.5L377.5 220.3L381.1 217.5L381.5 217.2L385.5 214.1L386.3 213.5L389.5 210.9L391.3 209.5L393.5 207.7L396.3 205.5L397.5 204.5L401.3 201.5L401.5 201.3L405.5 198.2L406.4 197.5L409.5 195.1L411.4 193.5L413.5 191.9L416.4 189.5L417.5 188.6L421.3 185.5L421.5 185.3L425.5 181.9L425.9 181.5L429.5 178.4L430.5 177.5L433.5 174.7L434.8 173.5L437.5 170.9L438.9 169.5L441.5 166.8L442.7 165.5L445.5 162.3L446.1 161.5L449.2 157.5L449.5 157.1L452 153.5L453.5 151L454.4 149.5L456.5 145.5L457.5 143.4L458.4 141.5L459.9 137.5L461.1 133.5L461.5 132L462.1 129.5L462.8 125.5L463.2 121.5L463.3 117.5L463.2 113.5L462.8 109.5L462.1 105.5L461.5 102.9L461.2 101.5L459.9 97.5L458.4 93.5L457.5 91.6L456.5 89.5L454.3 85.5L453.5 84.3L451.6 81.5L449.5 78.9L448.4 77.5L445.5 74.4L444.6 73.5L441.5 70.5L440.3 69.5L437.5 67.1L435.5 65.5L433.5 64L430 61.5L429.5 61.1L425.5 58.5L424 57.5L421.5 55.9L417.5 53.5L417.5 53.5L413.5 51L410.9 49.5L409.5 48.6L405.5 46.1L404.5 45.5L401.5 43.5L398.4 41.5L397.5 40.9L393.5 38.2L392.5 37.5L389.5 35.4L386.8 33.5L385.5 32.6L381.5 29.7L381.2 29.5L377.5 26.7L375.8 25.5L373.5 23.7L370.5 21.5L369.5 20.6L365.5 17.5L365.5 17.5L361.5 14.1L360.7 13.5L357.5 10.8L356 9.5L353.5 7.4L351.2 5.5L349.5 4L346.3 1.5L345.5 0.8L341.5 -2.3L341.2 -2.5L337.5 -5.3L335.8 -6.5L333.5 -8.1L329.8 -10.5L329.5 -10.7L325.5 -13.2L322.9 -14.5L321.5 -15.3L317.5 -17.3L314.6 -18.5L313.5 -19L309.5 -20.5L305.5 -21.8L302.4 -22.5L301.5 -22.8L297.5 -23.6L293.5 -24.2L289.5 -24.5L285.5 -24.7L281.5 -24.6L277.5 -24.4L273.5 -23.9L269.5 -23.3L266.1 -22.5L265.5 -22.4L261.5 -21.4L257.5 -20.1L253.5 -18.6L253.3 -18.5L249.5 -16.9L245.5 -14.9L244.8 -14.5L241.5 -12.7L237.8 -10.5L237.5 -10.3L233.5 -7.7L231.7 -6.5L229.5 -5L225.9 -2.5L225.5 -2.2L221.5 0.4L219.8 1.5L217.5 2.9L213.5 5.1L212.7 5.5L209.5 6.9L205.5 8.4L201.8 9.5L201.5 9.6L197.5 10.4L193.5 11.1L189.5 11.6L185.5 12L181.5 12.2L177.5 12.4L173.5 12.5L169.5 12.6L165.5 12.7L161.5 12.9L157.5 13.1L153.7 13.5L153.5 13.5L149.5 14L145.5 14.6L141.5 15.5L137.5 16.5L134 17.5L133.5 17.6L129.5 18.9L125.5 20.3L122.5 21.5L121.5 21.9L117.5 23.7L113.9 25.5L113.5 25.7L109.5 27.9L106.9 29.5L105.5 30.3L101.5 32.9L100.7 33.5L97.5 35.7L94.9 37.5L93.5 38.5L89.5 41.4L89.4 41.5L85.5 44.3L83.8 45.5L81.5 47.1L78 49.5L77.5 49.9L73.5 52.5L72 53.5L69.5 55.1L65.8 57.5L65.5 57.7L61.5 60.3L59.6 61.5L57.5 62.8L53.5 65.4L53.4 65.5L49.5 68L47.1 69.5L45.5 70.5L41.5 73.1L40.9 73.5L37.5 75.7L34.9 77.5L33.5 78.4L29.5 81.2L29 81.5L25.5 84L23.4 85.5L21.5 86.9L18 89.5L17.5 89.9L13.5 93.1L13 93.5L9.5 96.8L8.7 97.5L5.5 101.2L5.2 101.5L2.5 105.5L1.5 107.2L0.3 109.5L-1.4 113.5L-2.5 116.8L-2.7 117.5L-3.7 121.5L-4.3 125.5L-4.5 129.5L-4.4 133.5L-3.9 137.5L-2.9 141.5L-2.5 142.6L-1.4 145.5L0.7 149.5L1.5 150.6L3.7 153.5L5.5 155.4L7.6 157.5L9.5 159.2L12.5 161.5L13.5 162.3L17.5 164.9L18.5 165.5L21.5 167.2L25.5 169.1L26.6 169.5L29.5 170.6L33.5 171.7L37.5 172.4L41.5 172.9L45.5 173.1L49.5 173L53.5 172.7L57.5 172.1L61.5 171.3L65.5 170.3L68.2 169.5L69.5 169.1L73.5 167.9L77.5 166.7L81.4 165.5L81.5 165.5L85.5 164.5L89.5 163.8L93.5 163.5L97.5 163.7L101.5 164.3L105.5 165.4L105.8 165.5L109.5 167.2L113 169.5L113.5 169.9L116.8 173.5L117.5 174.6L119.1 177.5L120.6 181.5L121.5 184.9L121.6 185.5L122.4 189.5L123.1 193.5L124 197.5L125.4 201.5L125.5 201.8L127.3 205.5L129.5 208.9L129.9 209.5L133.3 213.5L133.5 213.7L137.5 217.3L137.7 217.5L141.5 220L144.2 221.5L145.5 222.1L149.5 223.8L153.5 225.3L154 225.5L157.5 226.6L161.5 227.8L165.5 228.9L167.4 229.5L169.5 230L173.5 231.1L177.5 232.3L180.9 233.5L181.5 233.7L185.5 235.2L189.5 237L190.4 237.5L193.5 238.9L197.5 241L198.3 241.5L201.5 243.2L205.2 245.5L205.5 245.6L209.5 248.1L211.7 249.5L213.5 250.5L217.5 252.9L218.5 253.5L221.5 255.1L225.5 257.3L225.8 257.5L229.5 259.4L233.5 261.4L233.7 261.5L237.5 263.2L241.5 264.9L243.1 265.5L245.5 266.4L249.5 267.6L253.5 268.7L256.9 269.5L257.5 269.6L261.5 270.4L265.5 271L269.5 271.3L273.5 271.5L277.5 271.4L281.5 271.1L285.5 270.6L289.5 269.8Z" transform="translate(90 65)" fill="none" pointer-events="visible" stroke="#5470c6" stroke-opacity="0.5" ecmeta_series_index="0" ecmeta_data_index="299" ecmeta_ssr_type="chart" class="zr1-cls-4"></path>
<path d="M287.3 245.5L289.5 245.1L293.5 244.2L297.5 243L301.5 241.5L301.6 241.5L305.5 239.9L309.5 238.2L310.9 237.5L313.5 236.2L317.5 234L318.4 233.5L321.5 231.6L324.8 229.5L325.5 229L329.5 226.3L330.7 225.5L333.5 223.6L336.5 221.5L337.5 220.8L341.5 217.9L342.1 217.5L345.5 215L347.5 213.5L349.5 212L352.7 209.5L353.5 208.8L357.5 205.5L357.5 205.5L361.5 202.1L362.2 201.5L365.5 198.5L366.6 197.5L369.5 194.7L370.8 193.5L373.5 191L375.1 189.5L377.5 187.3L379.6 185.5L381.5 183.9L384.4 181.5L385.5 180.7L389.5 177.6L389.6 177.5L393.5 174.7L395.1 173.5L397.5 171.9L401 169.5L401.5 169.1L405.5 166.4L406.8 165.5L409.5 163.6L412.4 161.5L413.5 160.7L417.5 157.5L417.5 157.5L421.5 153.9L421.9 153.5L425.5 149.9L425.9 149.5L429.3 145.5L429.5 145.3L432.3 141.5L433.5 139.6L434.8 137.5L436.8 133.5L437.5 131.6L438.2 129.5L439.3 125.5L439.9 121.5L440.2 117.5L440 113.5L439.5 109.5L438.6 105.5L437.5 102.1L437.3 101.5L435.5 97.5L433.5 93.8L433.3 93.5L430.6 89.5L429.5 88L427.4 85.5L425.5 83.5L423.4 81.5L421.5 79.7L418.9 77.5L417.5 76.3L413.9 73.5L413.5 73.2L409.5 70.1L408.7 69.5L405.5 67.1L403.4 65.5L401.5 64L398.2 61.5L397.5 60.9L393.5 57.8L393.1 57.5L389.5 54.7L388 53.5L385.5 51.5L382.9 49.5L381.5 48.4L377.8 45.5L377.5 45.3L373.5 42.1L372.7 41.5L369.5 38.9L367.7 37.5L365.5 35.8L362.6 33.5L361.5 32.6L357.6 29.5L357.5 29.4L353.5 26.1L352.7 25.5L349.5 22.8L347.8 21.5L345.5 19.6L342.8 17.5L341.5 16.4L337.7 13.5L337.5 13.4L333.5 10.4L332.2 9.5L329.5 7.6L326.2 5.5L325.5 5L321.5 2.6L319.4 1.5L317.5 0.4L313.5 -1.5L311.1 -2.5L309.5 -3.2L305.5 -4.6L301.5 -5.8L298.1 -6.5L297.5 -6.7L293.5 -7.3L289.5 -7.7L285.5 -7.8L281.5 -7.7L277.5 -7.3L273.5 -6.7L272.9 -6.5L269.5 -5.8L265.5 -4.6L261.5 -3.1L260.1 -2.5L257.5 -1.4L253.5 0.7L252.2 1.5L249.5 3.1L246 5.5L245.5 5.9L241.5 8.8L240.6 9.5L237.5 11.9L235.5 13.5L233.5 15.1L230.4 17.5L229.5 18.2L225.5 21.1L224.9 21.5L221.5 23.6L217.9 25.5L217.5 25.7L213.5 27.3L209.5 28.6L205.5 29.5L205.3 29.5L201.5 30L197.5 30.4L193.5 30.7L189.5 30.9L185.5 31L181.5 31.1L177.5 31.2L173.5 31.3L169.5 31.4L165.5 31.6L161.5 31.9L157.5 32.4L153.5 33L151.3 33.5L149.5 33.9L145.5 34.9L141.5 36.3L138.3 37.5L137.5 37.8L133.5 39.5L129.5 41.5L129.5 41.5L125.5 43.6L122.3 45.5L121.5 46L117.5 48.6L116.2 49.5L113.5 51.4L110.7 53.5L109.5 54.4L105.7 57.5L105.5 57.7L101.5 61L100.9 61.5L97.5 64.4L96.2 65.5L93.5 67.8L91.5 69.5L89.5 71.2L86.7 73.5L85.5 74.6L82 77.5L81.5 78L77.5 81.5L77.5 81.5L73.5 85.1L73 85.5L69.5 88.7L68.6 89.5L65.5 92.3L64.1 93.5L61.5 96L59.7 97.5L57.5 99.8L55.7 101.5L53.5 104.2L52.3 105.5L49.7 109.5L49.5 110L48 113.5L47.5 117.5L48.6 121.5L49.5 122.4L53.5 125L55.3 125.5L57.5 125.9L61.5 126L65.5 125.8L69.5 125.6L70.8 125.5L73.5 125.3L77.5 124.9L81.5 124.6L85.5 124.4L89.5 124.3L93.5 124.3L97.5 124.5L101.5 124.9L105.5 125.4L105.9 125.5L109.5 126L113.5 126.7L117.5 127.5L121.5 128.5L125.1 129.5L125.5 129.6L129.5 130.9L133.5 132.3L136.8 133.5L137.5 133.7L141.5 135.3L145.5 137L146.7 137.5L149.5 138.7L153.5 140.5L155.7 141.5L157.5 142.3L161.5 144.2L164.1 145.5L165.5 146.2L169.5 148.4L171.3 149.5L173.5 150.9L177.5 153.4L177.6 153.5L181.5 156.2L183.3 157.5L185.5 159.1L188.7 161.5L189.5 162.1L193.5 165.3L193.7 165.5L197.5 168.7L198.4 169.5L201.5 172.3L202.7 173.5L205.5 176.4L206.5 177.5L209.5 181L209.9 181.5L212.9 185.5L213.5 186.4L215.5 189.5L217.5 192.9L217.8 193.5L220 197.5L221.5 200L222.3 201.5L224.6 205.5L225.5 206.9L227 209.5L229.5 213.5L229.5 213.5L232.1 217.5L233.5 219.6L234.7 221.5L237.5 225.3L237.6 225.5L241 229.5L241.5 230L245.1 233.5L245.5 233.8L249.5 236.8L250.5 237.5L253.5 239.3L257.5 241.4L257.6 241.5L261.5 243.1L265.5 244.5L269.5 245.5L269.6 245.5L273.5 246L277.5 246.3L281.5 246.2L285.5 245.8Z" transform="translate(90 65)" fill="#5470c6" fill-opacity="0.39999999999999997" ecmeta_series_index="0" ecmeta_data_index="299" ecmeta_ssr_type="chart" class="zr1-cls-3"></path>
<path d="M287.3 245.5L289.5 245.1L293.5 244.2L297.5 243L301.5 241.5L301.6 241.5L305.5 239.9L309.5 238.2L310.9 237.5L313.5 236.2L317.5 234L318.4 233.5L321.5 231.6L324.8 229.5L325.5 229L329.5 226.3L330.7 225.5L333.5 223.6L336.5 221.5L337.5 220.8L341.5 217.9L342.1 217.5L345.5 215L347.5 213.5L349.5 212L352.7 209.5L353.5 208.8L357.5 205.5L357.5 205.5L361.5 202.1L362.2 201.5L365.5 198.5L366.6 197.5L369.5 194.7L370.8 193.5L373.5 191L375.1 189.5L377.5 187.3L379.6 185.5L381.5 183.9L384.4 181.5L385.5 180.7L389.5 177.6L389.6 177.5L393.5 174.7L395.1 173.5L397.5 171.9L401 169.5L401.5 169.1L405.5 166.4L406.8 165.5L409.5 163.6L412.4 161.5L413.5 160.7L417.5 157.5L417.5 157.5L421.5 153.9L421.9 153.5L425.5 149.9L425.9 149.5L429.3 145.5L429.5 145.3L432.3 141.5L433.5 139.6L434.8 137.5L436.8 133.5L437.5 131.6L438.2 129.5L439.3 125.5L439.9 121.5L440.2 117.5L440 113.5L439.5 109.5L438.6 105.5L437.5 102.1L437.3 101.5L435.5 97.5L433.5 93.8L433.3 93.5L430.6 89.5L429.5 88L427.4 85.5L425.5 83.5L423.4 81.5L421.5 79.7L418.9 77.5L417.5 76.3L413.9 73.5L413.5 73.2L409.5 70.1L408.7 69.5L405.5 67.1L403.4 65.5L401.5 64L398.2 61.5L397.5 60.9L393.5 57.8L393.1 57.5L389.5 54.7L388 53.5L385.5 51.5L382.9 49.5L381.5 48.4L377.8 45.5L377.5 45.3L373.5 42.1L372.7 41.5L369.5 38.9L367.7 37.5L365.5 35.8L362.6 33.5L361.5 32.6L357.6 29.5L357.5 29.4L353.5 26.1L352.7 25.5L349.5 22.8L347.8 21.5L345.5 19.6L342.8 17.5L341.5 16.4L337.7 13.5L337.5 13.4L333.5 10.4L332.2 9.5L329.5 7.6L326.2 5.5L325.5 5L321.5 2.6L319.4 1.5L317.5 0.4L313.5 -1.5L311.1 -2.5L309.5 -3.2L305.5 -4.6L301.5 -5.8L298.1 -6.5L297.5 -6.7L293.5 -7.3L289.5 -7.7L285.5 -7.8L281.5 -7.7L277.5 -7.3L273.5 -6.7L272.9 -6.5L269.5 -5.8L265.5 -4.6L261.5 -3.1L260.1 -2.5L257.5 -1.4L253.5 0.7L252.2 1.5L249.5 3.1L246 5.5L245.5 5.9L241.5 8.8L240.6 9.5L237.5 11.9L235.5 13.5L233.5 15.1L230.4 17.5L229.5 18.2L225.5 21.1L224.9 21.5L221.5 23.6L217.9 25.5L217.5 25.7L213.5 27.3L209.5 28.6L205.5 29.5L205.3 29.5L201.5 30L197.5 30.4L193.5 30.7L189.5 30.9L185.5 31L181.5 31.1L177.5 31.2L173.5 31.3L169.5 31.4L165.5 31.6L161.5 31.9L157.5 32.4L153.5 33L151.3 33.5L149.5 33.9L145.5 34.9L141.5 36.3L138.3 37.5L137.5 37.8L133.5 39.5L129.5 41.5L129.5 41.5L125.5 43.6L122.3 45.5L121.5 46L117.5 48.6L116.2 49.5L113.5 51.4L110.7 53.5L109.5 54.4L105.7 57.5L105.5 57.7L101.5 61L100.9 61.5L97.5 64.4L96.2 65.5L93.5 67.8L91.5 69.5L89.5 71.2L86.7 73.5L85.5 74.6L82 77.5L81.5 78L77.5 81.5L77.5 81.5L73.5 85.1L73 85.5L69.5 88.7L68.6 89.5L65.5 92.3L64.1 93.5L61.5 96L59.7 97.5L57.5 99.8L55.7 101.5L53.5 104.2L52.3 105.5L49.7 109.5L49.5 110L48 113.5L47.5 117.5L48.6 121.5L49.5 122.4L53.5 125L55.3 125.5L57.5 125.9L61.5 126L65.5 125.8L69.5 125.6L70.8 125.5L73.5 125.3L77.5 124.9L81.5 124.6L85.5 124.4L89.5 124.3L93.5 124.3L97.5 124.5L101.5 124.9L105.5 125.4L105.9 125.5L109.5 126L113.5 126.7L117.5 127.5L121.5 128.5L125.1 129.5L125.5 129.6L129.5 130.9L133.5 132.3L136.8 133.5L137.5 133.7L141.5 135.3L145.5 137L146.7 137.5L149.5 138.7L153.5 140.5L155.7 141.5L157.5 142.3L161.5 144.2L164.1 145.5L165.5 146.2L169.5 148.4L171.3 149.5L173.5 150.9L177.5 153.4L177.6 153.5L181.5 156.2L183.3 157.5L185.5 159.1L188.7 161.5L189.5 162.1L193.5 165.3L193.7 165.5L197.5 168.7L198.4 169.5L201.5 172.3L202.7 173.5L205.5 176.4L206.5 177.5L209.5 181L209.9 181.5L212.9 185.5L213.5 186.4L215.5 189.5L217.5 192.9L217.8 193.5L220 197.5L221.5 200L222.3 201.5L224.6 205.5L225.5 206.9L227 209.5L229.5 213.5L229.5 213.5L232.1 217.5L233.5 219.6L234.7 221.5L237.5 225.3L237.6 225.5L241 229.5L241.5 230L245.1 233.5L245.5 233.8L249.5 236.8L250.5 237.5L253.5 239.3L257.5 241.4L257.6 241.5L261.5 243.1L265.5 244.5L269.5 245.5L269.6 245.5L273.5 246L277.5 246.3L281.5 246.2L285.5 245.8Z" transform="translate(90 65)" fill="none" pointer-events="visible" stroke="#5470c6" stroke-opacity="0.5" ecmeta_series_index="0" ecmeta_data_index="299" ecmeta_ssr_type="chart" class="zr1-cls-4"></path>
<path d="M307.1 213.5L309.5 212.6L313.5 210.9L316.4 209.5L317.5 208.9L321.5 206.4L322.8 205.5L325.5 203.5L328.1 201.5L329.5 200.4L332.9 197.5L333.5 197L337.4 193.5L337.5 193.4L341.5 189.6L341.6 189.5L345.5 185.8L345.8 185.5L349.5 182L350.1 181.5L353.5 178.4L354.5 177.5L357.5 174.8L359 173.5L361.5 171.4L363.8 169.5L365.5 168.1L368.6 165.5L369.5 164.8L373.5 161.6L373.7 161.5L377.5 158.7L379.2 157.5L381.5 155.9L385.1 153.5L385.5 153.2L389.5 150.6L391.3 149.5L393.5 148L397.2 145.5L397.5 145.3L401.5 142.4L402.6 141.5L405.5 139.1L407.2 137.5L409.5 135L410.8 133.5L413.5 129.5L413.5 129.5L415.4 125.5L416.7 121.5L417.4 117.5L417.4 113.5L417 109.5L415.9 105.5L414.3 101.5L413.5 99.9L412.2 97.5L409.6 93.5L409.5 93.3L406.6 89.5L405.5 88.2L403.2 85.5L401.5 83.7L399.4 81.5L397.5 79.6L395.5 77.5L393.5 75.5L391.5 73.5L389.5 71.6L387.4 69.5L385.5 67.7L383.2 65.5L381.5 63.9L378.9 61.5L377.5 60.3L374.5 57.5L373.5 56.6L369.9 53.5L369.5 53.1L365.5 49.6L365.3 49.5L361.5 46.2L360.7 45.5L357.5 42.8L356 41.5L353.5 39.4L351.1 37.5L349.5 36.1L346.2 33.5L345.5 32.9L341.5 29.8L341.1 29.5L337.5 26.7L335.8 25.5L333.5 23.8L330.2 21.5L329.5 21L325.5 18.3L324.2 17.5L321.5 15.8L317.5 13.5L317.4 13.5L313.5 11.4L309.5 9.7L309 9.5L305.5 8.1L301.5 6.9L297.5 6L294.4 5.5L293.5 5.3L289.5 5L285.5 5L281.5 5.3L280 5.5L277.5 5.9L273.5 6.8L269.5 8L265.9 9.5L265.5 9.7L261.5 11.7L258.4 13.5L257.5 14L253.5 16.7L252.5 17.5L249.5 19.8L247.4 21.5L245.5 23.1L242.7 25.5L241.5 26.5L238.1 29.5L237.5 30L233.5 33.5L233.5 33.5L229.5 36.8L228.5 37.5L225.5 39.7L222.5 41.5L221.5 42.1L217.5 43.9L213.5 45.2L212.3 45.5L209.5 46.1L205.5 46.6L201.5 46.8L197.5 46.8L193.5 46.8L189.5 46.8L185.5 46.8L181.5 46.9L177.5 47L173.5 47.2L169.5 47.5L165.5 47.9L161.5 48.5L157.5 49.3L156.8 49.5L153.5 50.5L149.5 52L146.2 53.5L145.5 53.9L141.5 56.3L139.6 57.5L137.5 59.1L134.5 61.5L133.5 62.5L130.3 65.5L129.5 66.4L126.7 69.5L125.5 71.2L123.7 73.5L121.5 77.5L121.5 77.6L120.1 81.5L119.5 85.5L120 89.5L121.5 93.1L121.7 93.5L124.6 97.5L125.5 98.3L128.8 101.5L129.5 102L133.5 105L134.1 105.5L137.5 107.6L140.4 109.5L141.5 110.1L145.5 112.3L147.7 113.5L149.5 114.4L153.5 116.3L156 117.5L157.5 118.1L161.5 119.9L165.4 121.5L165.5 121.5L169.5 123.2L173.5 125L174.7 125.5L177.5 126.7L181.5 128.6L183.4 129.5L185.5 130.5L189.5 132.5L191.3 133.5L193.5 134.7L197.5 137.2L198 137.5L201.5 139.9L203.7 141.5L205.5 142.9L208.8 145.5L209.5 146.1L213.4 149.5L213.5 149.5L217.5 153.2L217.8 153.5L221.5 156.9L222.1 157.5L225.5 160.6L226.5 161.5L229.5 164.3L230.9 165.5L233.5 167.9L235.2 169.5L237.5 171.7L239.3 173.5L241.5 175.8L243.2 177.5L245.5 180.1L246.7 181.5L249.5 184.9L250 185.5L252.9 189.5L253.5 190.4L255.6 193.5L257.5 196.3L258.3 197.5L261.1 201.5L261.5 202L264.4 205.5L265.5 206.8L268.4 209.5L269.5 210.4L273.5 213.1L274.2 213.5L277.5 215L281.5 216.2L285.5 216.8L289.5 217L293.5 216.7L297.5 216.1L301.5 215.1L305.5 214Z" transform="translate(90 65)" fill="#5470c6" fill-opacity="0.5" ecmeta_series_index="0" ecmeta_data_index="299" ecmeta_ssr_type="chart" class="zr1-cls-3"></path>
<path d="M307.1 213.5L309.5 212.6L313.5 210.9L316.4 209.5L317.5 208.9L321.5 206.4L322.8 205.5L325.5 203.5L328.1 201.5L329.5 200.4L332.9 197.5L333.5 197L337.4 193.5L337.5 193.4L341.5 189.6L341.6 189.5L345.5 185.8L345.8 185.5L349.5 182L350.1 181.5L353.5 178.4L354.5 177.5L357.5 174.8L359 173.5L361.5 171.4L363.8 169.5L365.5 168.1L368.6 165.5L369.5 164.8L373.5 161.6L373.7 161.5L377.5 158.7L379.2 157.5L381.5 155.9L385.1 153.5L385.5 153.2L389.5 150.6L391.3 149.5L393.5 148L397.2 145.5L397.5 145.3L401.5 142.4L402.6 141.5L405.5 139.1L407.2 137.5L409.5 135L410.8 133.5L413.5 129.5L413.5 129.5L415.4 125.5L416.7 121.5L417.4 117.5L417.4 113.5L417 109.5L415.9 105.5L414.3 101.5L413.5 99.9L412.2 97.5L409.6 93.5L409.5 93.3L406.6 89.5L405.5 88.2L403.2 85.5L401.5 83.7L399.4 81.5L397.5 79.6L395.5 77.5L393.5 75.5L391.5 73.5L389.5 71.6L387.4 69.5L385.5 67.7L383.2 65.5L381.5 63.9L378.9 61.5L377.5 60.3L374.5 57.5L373.5 56.6L369.9 53.5L369.5 53.1L365.5 49.6L365.3 49.5L361.5 46.2L360.7 45.5L357.5 42.8L356 41.5L353.5 39.4L351.1 37.5L349.5 36.1L346.2 33.5L345.5 32.9L341.5 29.8L341.1 29.5L337.5 26.7L335.8 25.5L333.5 23.8L330.2 21.5L329.5 21L325.5 18.3L324.2 17.5L321.5 15.8L317.5 13.5L317.4 13.5L313.5 11.4L309.5 9.7L309 9.5L305.5 8.1L301.5 6.9L297.5 6L294.4 5.5L293.5 5.3L289.5 5L285.5 5L281.5 5.3L280 5.5L277.5 5.9L273.5 6.8L269.5 8L265.9 9.5L265.5 9.7L261.5 11.7L258.4 13.5L257.5 14L253.5 16.7L252.5 17.5L249.5 19.8L247.4 21.5L245.5 23.1L242.7 25.5L241.5 26.5L238.1 29.5L237.5 30L233.5 33.5L233.5 33.5L229.5 36.8L228.5 37.5L225.5 39.7L222.5 41.5L221.5 42.1L217.5 43.9L213.5 45.2L212.3 45.5L209.5 46.1L205.5 46.6L201.5 46.8L197.5 46.8L193.5 46.8L189.5 46.8L185.5 46.8L181.5 46.9L177.5 47L173.5 47.2L169.5 47.5L165.5 47.9L161.5 48.5L157.5 49.3L156.8 49.5L153.5 50.5L149.5 52L146.2 53.5L145.5 53.9L141.5 56.3L139.6 57.5L137.5 59.1L134.5 61.5L133.5 62.5L130.3 65.5L129.5 66.4L126.7 69.5L125.5 71.2L123.7 73.5L121.5 77.5L121.5 77.6L120.1 81.5L119.5 85.5L120 89.5L121.5 93.1L121.7 93.5L124.6 97.5L125.5 98.3L128.8 101.5L129.5 102L133.5 105L134.1 105.5L137.5 107.6L140.4 109.5L141.5 110.1L145.5 112.3L147.7 113.5L149.5 114.4L153.5 116.3L156 117.5L157.5 118.1L161.5 119.9L165.4 121.5L165.5 121.5L169.5 123.2L173.5 125L174.7 125.5L177.5 126.7L181.5 128.6L183.4 129.5L185.5 130.5L189.5 132.5L191.3 133.5L193.5 134.7L197.5 137.2L198 137.5L201.5 139.9L203.7 141.5L205.5 142.9L208.8 145.5L209.5 146.1L213.4 149.5L213.5 149.5L217.5 153.2L217.8 153.5L221.5 156.9L222.1 157.5L225.5 160.6L226.5 161.5L229.5 164.3L230.9 165.5L233.5 167.9L235.2 169.5L237.5 171.7L239.3 173.5L241.5 175.8L243.2 177.5L245.5 180.1L246.7 181.5L249.5 184.9L250 185.5L252.9 189.5L253.5 190.4L255.6 193.5L257.5 196.3L258.3 197.5L261.1 201.5L261.5 202L264.4 205.5L265.5 206.8L268.4 209.5L269.5 210.4L273.5 213.1L274.2 213.5L277.5 215L281.5 216.2L285.5 216.8L289.5 217L293.5 216.7L297.5 216.1L301.5 215.1L305.5 214Z" transform="translate(90 65)" fill="none" pointer-events="visible" stroke="#5470c6" stroke-opacity="0.5" ecmeta_series_index="0" ecmeta_data_index="299" ecmeta_ssr_type="chart" class="zr1-cls-4"></path>
<path d="M316.5 177.5L317.5 177.1L321.5 175.1L324.2 173.5L325.5 172.8L329.5 170.3L330.6 169.5L333.5 167.5L336.2 165.5L337.5 164.6L341.5 161.5L341.5 161.5L345.5 158.4L346.6 157.5L349.5 155.3L351.9 153.5L353.5 152.4L357.4 149.5L357.5 149.4L361.5 146.6L363 145.5L365.5 143.7L368.5 141.5L369.5 140.8L373.5 137.7L373.8 137.5L377.5 134.5L378.7 133.5L381.5 130.9L383.1 129.5L385.5 126.8L386.7 125.5L389.4 121.5L389.5 121.4L391.3 117.5L392.5 113.5L392.9 109.5L392.7 105.5L391.9 101.5L390.6 97.5L389.5 95L388.9 93.5L386.7 89.5L385.5 87.6L384.2 85.5L381.5 81.6L381.4 81.5L378.4 77.5L377.5 76.4L375.2 73.5L373.5 71.6L371.7 69.5L369.5 67.1L368 65.5L365.5 62.9L364.2 61.5L361.5 58.8L360.2 57.5L357.5 54.9L356 53.5L353.5 51.2L351.6 49.5L349.5 47.7L347 45.5L345.5 44.2L342.1 41.5L341.5 41L337.5 37.8L337 37.5L333.5 34.9L331.5 33.5L329.5 32L325.6 29.5L325.5 29.4L321.5 26.9L319 25.5L317.5 24.6L313.5 22.6L311.1 21.5L309.5 20.8L305.5 19.2L301.5 18L299.1 17.5L297.5 17.1L293.5 16.5L289.5 16.3L285.5 16.4L281.5 16.9L278.8 17.5L277.5 17.8L273.5 19L269.5 20.7L267.9 21.5L265.5 22.8L261.5 25.3L261.3 25.5L257.5 28.3L256 29.5L253.5 31.7L251.5 33.5L249.5 35.4L247.4 37.5L245.5 39.6L243.6 41.5L241.5 43.9L240 45.5L237.5 48.3L236.3 49.5L233.5 52.5L232.4 53.5L229.5 56.2L227.9 57.5L225.5 59.4L222 61.5L221.5 61.8L217.5 63.7L213.5 64.8L209.5 65.3L206.1 65.5L205.5 65.5L204.5 65.5L201.5 65.4L197.5 65.2L193.5 65L189.5 64.9L185.5 65L181.5 65.2L179.2 65.5L177.5 65.7L173.5 66.5L169.5 67.6L165.5 69L164.5 69.5L161.5 71.4L159 73.5L157.5 75.6L156.3 77.5L155.4 81.5L155.9 85.5L157.5 89.1L157.7 89.5L161.1 93.5L161.5 93.8L165.5 97L166.1 97.5L169.5 99.5L172.7 101.5L173.5 101.9L177.5 104L180.5 105.5L181.5 106L185.5 107.8L189.1 109.5L189.5 109.7L193.5 111.5L197.5 113.5L197.5 113.5L201.5 115.6L204.7 117.5L205.5 118L209.5 120.6L210.7 121.5L213.5 123.5L215.9 125.5L217.5 126.8L220.5 129.5L221.5 130.3L224.8 133.5L225.5 134.1L229 137.5L229.5 138L233.1 141.5L233.5 141.9L237.3 145.5L237.5 145.7L241.5 149.4L241.6 149.5L245.5 152.9L246.1 153.5L249.5 156.2L251.1 157.5L253.5 159.3L256.5 161.5L257.5 162.2L261.5 165L262.3 165.5L265.5 167.6L268.5 169.5L269.5 170.1L273.5 172.6L275.2 173.5L277.5 174.8L281.5 176.8L283.2 177.5L285.5 178.5L289.5 179.7L293.5 180.5L297.5 180.9L301.5 181L305.5 180.6L309.5 179.9L313.5 178.8Z" transform="translate(90 65)" fill="rgb(175, 203, 109)" fill-opacity="0.6" ecmeta_series_index="0" ecmeta_data_index="299" ecmeta_ssr_type="chart" class="zr1-cls-5"></path>
<path d="M316.5 177.5L317.5 177.1L321.5 175.1L324.2 173.5L325.5 172.8L329.5 170.3L330.6 169.5L333.5 167.5L336.2 165.5L337.5 164.6L341.5 161.5L341.5 161.5L345.5 158.4L346.6 157.5L349.5 155.3L351.9 153.5L353.5 152.4L357.4 149.5L357.5 149.4L361.5 146.6L363 145.5L365.5 143.7L368.5 141.5L369.5 140.8L373.5 137.7L373.8 137.5L377.5 134.5L378.7 133.5L381.5 130.9L383.1 129.5L385.5 126.8L386.7 125.5L389.4 121.5L389.5 121.4L391.3 117.5L392.5 113.5L392.9 109.5L392.7 105.5L391.9 101.5L390.6 97.5L389.5 95L388.9 93.5L386.7 89.5L385.5 87.6L384.2 85.5L381.5 81.6L381.4 81.5L378.4 77.5L377.5 76.4L375.2 73.5L373.5 71.6L371.7 69.5L369.5 67.1L368 65.5L365.5 62.9L364.2 61.5L361.5 58.8L360.2 57.5L357.5 54.9L356 53.5L353.5 51.2L351.6 49.5L349.5 47.7L347 45.5L345.5 44.2L342.1 41.5L341.5 41L337.5 37.8L337 37.5L333.5 34.9L331.5 33.5L329.5 32L325.6 29.5L325.5 29.4L321.5 26.9L319 25.5L317.5 24.6L313.5 22.6L311.1 21.5L309.5 20.8L305.5 19.2L301.5 18L299.1 17.5L297.5 17.1L293.5 16.5L289.5 16.3L285.5 16.4L281.5 16.9L278.8 17.5L277.5 17.8L273.5 19L269.5 20.7L267.9 21.5L265.5 22.8L261.5 25.3L261.3 25.5L257.5 28.3L256 29.5L253.5 31.7L251.5 33.5L249.5 35.4L247.4 37.5L245.5 39.6L243.6 41.5L241.5 43.9L240 45.5L237.5 48.3L236.3 49.5L233.5 52.5L232.4 53.5L229.5 56.2L227.9 57.5L225.5 59.4L222 61.5L221.5 61.8L217.5 63.7L213.5 64.8L209.5 65.3L206.1 65.5L205.5 65.5L204.5 65.5L201.5 65.4L197.5 65.2L193.5 65L189.5 64.9L185.5 65L181.5 65.2L179.2 65.5L177.5 65.7L173.5 66.5L169.5 67.6L165.5 69L164.5 69.5L161.5 71.4L159 73.5L157.5 75.6L156.3 77.5L155.4 81.5L155.9 85.5L157.5 89.1L157.7 89.5L161.1 93.5L161.5 93.8L165.5 97L166.1 97.5L169.5 99.5L172.7 101.5L173.5 101.9L177.5 104L180.5 105.5L181.5 106L185.5 107.8L189.1 109.5L189.5 109.7L193.5 111.5L197.5 113.5L197.5 113.5L201.5 115.6L204.7 117.5L205.5 118L209.5 120.6L210.7 121.5L213.5 123.5L215.9 125.5L217.5 126.8L220.5 129.5L221.5 130.3L224.8 133.5L225.5 134.1L229 137.5L229.5 138L233.1 141.5L233.5 141.9L237.3 145.5L237.5 145.7L241.5 149.4L241.6 149.5L245.5 152.9L246.1 153.5L249.5 156.2L251.1 157.5L253.5 159.3L256.5 161.5L257.5 162.2L261.5 165L262.3 165.5L265.5 167.6L268.5 169.5L269.5 170.1L273.5 172.6L275.2 173.5L277.5 174.8L281.5 176.8L283.2 177.5L285.5 178.5L289.5 179.7L293.5 180.5L297.5 180.9L301.5 181L305.5 180.6L309.5 179.9L313.5 178.8Z" transform="translate(90 65)" fill="none" pointer-events="visible" stroke="rgb(175, 203, 109)" stroke-opacity="0.5" ecmeta_series_index="0" ecmeta_data_index="299" ecmeta_ssr_type="chart" class="zr1-cls-4"></path>
<path d="M319.7 153.5L321.5 152.8L325.5 151.1L328.7 149.5L329.5 149.1L333.5 147L335.9 145.5L337.5 144.6L341.5 142L342.2 141.5L345.5 139.3L348 137.5L349.5 136.4L353.3 133.5L353.5 133.3L357.5 130.1L358.2 129.5L361.5 126.4L362.4 125.5L365.5 122.1L366 121.5L368.9 117.5L369.5 116.4L371 113.5L372.5 109.5L373.3 105.5L373.5 101.9L373.5 101.5L373.5 101.3L373.2 97.5L372.3 93.5L371 89.5L369.5 86.2L369.2 85.5L367.1 81.5L365.5 79L364.6 77.5L361.8 73.5L361.5 73.1L358.8 69.5L357.5 68L355.4 65.5L353.5 63.4L351.8 61.5L349.5 59.1L347.8 57.5L345.5 55.3L343.6 53.5L341.5 51.6L339 49.5L337.5 48.2L334 45.5L333.5 45.1L329.5 42.1L328.5 41.5L325.5 39.4L322.4 37.5L321.5 36.9L317.5 34.6L315.3 33.5L313.5 32.6L309.5 30.8L305.9 29.5L305.5 29.3L301.5 28.2L297.5 27.4L293.5 26.9L289.5 26.8L285.5 27.1L281.5 27.9L277.5 29.1L276.5 29.5L273.5 30.8L269.5 33L268.7 33.5L265.5 35.8L263.4 37.5L261.5 39.2L259.2 41.5L257.5 43.4L255.6 45.5L253.5 48.2L252.5 49.5L249.6 53.5L249.5 53.7L246.9 57.5L245.5 59.7L244.3 61.5L241.7 65.5L241.5 65.9L239.2 69.5L237.5 72.5L236.9 73.5L234.6 77.5L233.5 80L232.7 81.5L231.1 85.5L230 89.5L229.5 93.5L229.5 96.2L229.5 97.5L229.5 97.6L229.9 101.5L230.9 105.5L232.4 109.5L233.5 111.6L234.4 113.5L236.7 117.5L237.5 118.6L239.4 121.5L241.5 124.1L242.5 125.5L245.5 128.9L246.1 129.5L249.5 133L250 133.5L253.5 136.8L254.3 137.5L257.5 140.2L259.2 141.5L261.5 143.2L264.8 145.5L265.5 146L269.5 148.5L271.4 149.5L273.5 150.7L277.5 152.6L279.8 153.5L281.5 154.2L285.5 155.4L289.5 156.3L293.5 156.9L297.5 157.2L301.5 157.2L305.5 157L309.5 156.4L313.5 155.5L317.5 154.3Z" transform="translate(90 65)" fill="rgb(220, 201, 96)" fill-opacity="0.7" ecmeta_series_index="0" ecmeta_data_index="299" ecmeta_ssr_type="chart" class="zr1-cls-6"></path>
<path d="M319.7 153.5L321.5 152.8L325.5 151.1L328.7 149.5L329.5 149.1L333.5 147L335.9 145.5L337.5 144.6L341.5 142L342.2 141.5L345.5 139.3L348 137.5L349.5 136.4L353.3 133.5L353.5 133.3L357.5 130.1L358.2 129.5L361.5 126.4L362.4 125.5L365.5 122.1L366 121.5L368.9 117.5L369.5 116.4L371 113.5L372.5 109.5L373.3 105.5L373.5 101.9L373.5 101.5L373.5 101.3L373.2 97.5L372.3 93.5L371 89.5L369.5 86.2L369.2 85.5L367.1 81.5L365.5 79L364.6 77.5L361.8 73.5L361.5 73.1L358.8 69.5L357.5 68L355.4 65.5L353.5 63.4L351.8 61.5L349.5 59.1L347.8 57.5L345.5 55.3L343.6 53.5L341.5 51.6L339 49.5L337.5 48.2L334 45.5L333.5 45.1L329.5 42.1L328.5 41.5L325.5 39.4L322.4 37.5L321.5 36.9L317.5 34.6L315.3 33.5L313.5 32.6L309.5 30.8L305.9 29.5L305.5 29.3L301.5 28.2L297.5 27.4L293.5 26.9L289.5 26.8L285.5 27.1L281.5 27.9L277.5 29.1L276.5 29.5L273.5 30.8L269.5 33L268.7 33.5L265.5 35.8L263.4 37.5L261.5 39.2L259.2 41.5L257.5 43.4L255.6 45.5L253.5 48.2L252.5 49.5L249.6 53.5L249.5 53.7L246.9 57.5L245.5 59.7L244.3 61.5L241.7 65.5L241.5 65.9L239.2 69.5L237.5 72.5L236.9 73.5L234.6 77.5L233.5 80L232.7 81.5L231.1 85.5L230 89.5L229.5 93.5L229.5 96.2L229.5 97.5L229.5 97.6L229.9 101.5L230.9 105.5L232.4 109.5L233.5 111.6L234.4 113.5L236.7 117.5L237.5 118.6L239.4 121.5L241.5 124.1L242.5 125.5L245.5 128.9L246.1 129.5L249.5 133L250 133.5L253.5 136.8L254.3 137.5L257.5 140.2L259.2 141.5L261.5 143.2L264.8 145.5L265.5 146L269.5 148.5L271.4 149.5L273.5 150.7L277.5 152.6L279.8 153.5L281.5 154.2L285.5 155.4L289.5 156.3L293.5 156.9L297.5 157.2L301.5 157.2L305.5 157L309.5 156.4L313.5 155.5L317.5 154.3Z" transform="translate(90 65)" fill="none" pointer-events="visible" stroke="rgb(220, 201, 96)" stroke-opacity="0.5" ecmeta_series_index="0" ecmeta_data_index="299" ecmeta_ssr_type="chart" class="zr1-cls-4"></path>
<path d="M320.8 137.5L321.5 137.3L325.5 135.7L329.5 133.9L330.2 133.5L333.5 131.7L337.1 129.5L337.5 129.2L341.5 126.3L342.5 125.5L345.5 123L347.1 121.5L349.5 119L350.8 117.5L353.5 113.9L353.8 113.5L356 109.5L357.5 105.5L357.5 105.5L358.4 101.5L358.7 97.5L358.5 93.5L357.7 89.5L357.5 89L356.4 85.5L354.6 81.5L353.5 79.4L352.5 77.5L350 73.5L349.5 72.8L347 69.5L345.5 67.6L343.7 65.5L341.5 63.1L340 61.5L337.5 59.1L335.8 57.5L333.5 55.5L331 53.5L329.5 52.3L325.7 49.5L325.5 49.3L321.5 46.7L319.4 45.5L317.5 44.4L313.5 42.3L311.6 41.5L309.5 40.6L305.5 39.1L301.5 38.1L298.2 37.5L297.5 37.4L293.5 37.1L289.5 37.2L287.8 37.5L285.5 37.9L281.5 39.1L277.5 40.9L276.4 41.5L273.5 43.4L270.8 45.5L269.5 46.7L266.8 49.5L265.5 51.1L263.6 53.5L261.5 56.7L261 57.5L258.6 61.5L257.5 63.8L256.6 65.5L254.8 69.5L253.5 73L253.3 73.5L252 77.5L251 81.5L250.4 85.5L250 89.5L250 93.5L250.3 97.5L250.9 101.5L251.9 105.5L253.4 109.5L253.5 109.8L255.3 113.5L257.5 117L257.8 117.5L260.9 121.5L261.5 122.1L264.8 125.5L265.5 126.2L269.5 129.5L269.5 129.5L273.5 132.3L275.4 133.5L277.5 134.7L281.5 136.7L283.6 137.5L285.5 138.2L289.5 139.4L293.5 140.2L297.5 140.6L301.5 140.8L305.5 140.6L309.5 140.2L313.5 139.5L317.5 138.6Z" transform="translate(90 65)" fill="rgb(248, 186, 90)" fill-opacity="0.8" ecmeta_series_index="0" ecmeta_data_index="299" ecmeta_ssr_type="chart" class="zr1-cls-7"></path>
<path d="M320.8 137.5L321.5 137.3L325.5 135.7L329.5 133.9L330.2 133.5L333.5 131.7L337.1 129.5L337.5 129.2L341.5 126.3L342.5 125.5L345.5 123L347.1 121.5L349.5 119L350.8 117.5L353.5 113.9L353.8 113.5L356 109.5L357.5 105.5L357.5 105.5L358.4 101.5L358.7 97.5L358.5 93.5L357.7 89.5L357.5 89L356.4 85.5L354.6 81.5L353.5 79.4L352.5 77.5L350 73.5L349.5 72.8L347 69.5L345.5 67.6L343.7 65.5L341.5 63.1L340 61.5L337.5 59.1L335.8 57.5L333.5 55.5L331 53.5L329.5 52.3L325.7 49.5L325.5 49.3L321.5 46.7L319.4 45.5L317.5 44.4L313.5 42.3L311.6 41.5L309.5 40.6L305.5 39.1L301.5 38.1L298.2 37.5L297.5 37.4L293.5 37.1L289.5 37.2L287.8 37.5L285.5 37.9L281.5 39.1L277.5 40.9L276.4 41.5L273.5 43.4L270.8 45.5L269.5 46.7L266.8 49.5L265.5 51.1L263.6 53.5L261.5 56.7L261 57.5L258.6 61.5L257.5 63.8L256.6 65.5L254.8 69.5L253.5 73L253.3 73.5L252 77.5L251 81.5L250.4 85.5L250 89.5L250 93.5L250.3 97.5L250.9 101.5L251.9 105.5L253.4 109.5L253.5 109.8L255.3 113.5L257.5 117L257.8 117.5L260.9 121.5L261.5 122.1L264.8 125.5L265.5 126.2L269.5 129.5L269.5 129.5L273.5 132.3L275.4 133.5L277.5 134.7L281.5 136.7L283.6 137.5L285.5 138.2L289.5 139.4L293.5 140.2L297.5 140.6L301.5 140.8L305.5 140.6L309.5 140.2L313.5 139.5L317.5 138.6Z" transform="translate(90 65)" fill="none" pointer-events="visible" stroke="rgb(248, 186, 90)" stroke-opacity="0.5" ecmeta_series_index="0" ecmeta_data_index="299" ecmeta_ssr_type="chart" class="zr1-cls-4"></path>
<path d="M316.1 125.5L317.5 125.1L321.5 123.8L325.5 122.1L326.6 121.5L329.5 119.8L332.8 117.5L333.5 117L337.3 113.5L337.5 113.3L340.6 109.5L341.5 108L342.9 105.5L344.5 101.5L345.4 97.5L345.5 96L345.6 93.5L345.5 91.9L345.3 89.5L344.3 85.5L342.7 81.5L341.5 79L340.7 77.5L338.1 73.5L337.5 72.6L335 69.5L333.5 67.7L331.3 65.5L329.5 63.7L326.9 61.5L325.5 60.3L321.8 57.5L321.5 57.3L317.5 54.8L315.2 53.5L313.5 52.6L309.5 50.9L305.5 49.5L305.5 49.5L301.5 48.6L297.5 48.1L293.5 48.1L289.5 48.7L286.9 49.5L285.5 50L281.5 52.1L279.6 53.5L277.5 55.2L275.3 57.5L273.5 59.7L272.2 61.5L269.8 65.5L269.5 66.2L268 69.5L266.5 73.5L265.5 77.5L265.5 77.5L264.8 81.5L264.5 85.5L264.5 89.5L265 93.5L265.5 96.2L265.7 97.5L266.9 101.5L268.5 105.5L269.5 107.4L270.7 109.5L273.5 113.3L273.6 113.5L277.5 117.5L277.5 117.5L281.5 120.5L283 121.5L285.5 122.9L289.5 124.6L292.4 125.5L293.5 125.8L297.5 126.6L301.5 127L305.5 127L309.5 126.7L313.5 126.1Z" transform="translate(90 65)" fill="rgb(243, 144, 96)" fill-opacity="0.8999999999999999" ecmeta_series_index="0" ecmeta_data_index="299" ecmeta_ssr_type="chart" class="zr1-cls-8"></path>
<path d="M316.1 125.5L317.5 125.1L321.5 123.8L325.5 122.1L326.6 121.5L329.5 119.8L332.8 117.5L333.5 117L337.3 113.5L337.5 113.3L340.6 109.5L341.5 108L342.9 105.5L344.5 101.5L345.4 97.5L345.5 96L345.6 93.5L345.5 91.9L345.3 89.5L344.3 85.5L342.7 81.5L341.5 79L340.7 77.5L338.1 73.5L337.5 72.6L335 69.5L333.5 67.7L331.3 65.5L329.5 63.7L326.9 61.5L325.5 60.3L321.8 57.5L321.5 57.3L317.5 54.8L315.2 53.5L313.5 52.6L309.5 50.9L305.5 49.5L305.5 49.5L301.5 48.6L297.5 48.1L293.5 48.1L289.5 48.7L286.9 49.5L285.5 50L281.5 52.1L279.6 53.5L277.5 55.2L275.3 57.5L273.5 59.7L272.2 61.5L269.8 65.5L269.5 66.2L268 69.5L266.5 73.5L265.5 77.5L265.5 77.5L264.8 81.5L264.5 85.5L264.5 89.5L265 93.5L265.5 96.2L265.7 97.5L266.9 101.5L268.5 105.5L269.5 107.4L270.7 109.5L273.5 113.3L273.6 113.5L277.5 117.5L277.5 117.5L281.5 120.5L283 121.5L285.5 122.9L289.5 124.6L292.4 125.5L293.5 125.8L297.5 126.6L301.5 127L305.5 127L309.5 126.7L313.5 126.1Z" transform="translate(90 65)" fill="none" pointer-events="visible" stroke="rgb(243, 144, 96)" stroke-opacity="0.5" ecmeta_series_index="0" ecmeta_data_index="299" ecmeta_ssr_type="chart" class="zr1-cls-4"></path>
<path d="M319.6 109.5L321.5 108.4L325.4 105.5L325.5 105.4L328.6 101.5L329.5 99.9L330.6 97.5L331.5 93.5L331.6 89.5L330.8 85.5L329.5 81.8L329.4 81.5L327 77.5L325.5 75.4L323.9 73.5L321.5 71L319.8 69.5L317.5 67.7L314.1 65.5L313.5 65.1L309.5 63.3L305.5 61.9L303.1 61.5L301.5 61.2L297.5 61.2L295.6 61.5L293.5 61.9L289.5 63.7L287 65.5L285.5 66.8L283.3 69.5L281.5 72.4L280.9 73.5L279.5 77.5L278.7 81.5L278.4 85.5L278.8 89.5L279.7 93.5L281.2 97.5L281.5 98.1L283.5 101.5L285.5 104.1L286.8 105.5L289.5 107.8L292.2 109.5L293.5 110.2L297.5 111.7L301.5 112.6L305.5 112.8L309.5 112.6L313.5 111.8L317.5 110.5Z" transform="translate(90 65)" fill="#ee6666" ecmeta_series_index="0" ecmeta_data_index="299" ecmeta_ssr_type="chart" class="zr1-cls-9"></path>
<path d="M319.6 109.5L321.5 108.4L325.4 105.5L325.5 105.4L328.6 101.5L329.5 99.9L330.6 97.5L331.5 93.5L331.6 89.5L330.8 85.5L329.5 81.8L329.4 81.5L327 77.5L325.5 75.4L323.9 73.5L321.5 71L319.8 69.5L317.5 67.7L314.1 65.5L313.5 65.1L309.5 63.3L305.5 61.9L303.1 61.5L301.5 61.2L297.5 61.2L295.6 61.5L293.5 61.9L289.5 63.7L287 65.5L285.5 66.8L283.3 69.5L281.5 72.4L280.9 73.5L279.5 77.5L278.7 81.5L278.4 85.5L278.8 89.5L279.7 93.5L281.2 97.5L281.5 98.1L283.5 101.5L285.5 104.1L286.8 105.5L289.5 107.8L292.2 109.5L293.5 110.2L297.5 111.7L301.5 112.6L305.5 112.8L309.5 112.6L313.5 111.8L317.5 110.5Z" transform="translate(90 65)" fill="none" pointer-events="visible" stroke="#ee6666" stroke-opacity="0.5" ecmeta_series_index="0" ecmeta_data_index="299" ecmeta_ssr_type="chart" class="zr1-cls-4"></path>
<style ><![CDATA[
.zr1-cls-2:hover {
pointer-events:none;
}
.zr1-cls-3:hover {
cursor:pointer;
fill:rgba(92,123,217,1);
}
.zr1-cls-4:hover {
cursor:pointer;
}
.zr1-cls-5:hover {
cursor:pointer;
fill:rgba(192,223,119,1);
}
.zr1-cls-6:hover {
cursor:pointer;
fill:rgba(242,221,105,1);
}
.zr1-cls-7:hover {
cursor:pointer;
fill:rgba(255,204,99,1);
}
.zr1-cls-8:hover {
cursor:pointer;
fill:rgba(255,158,105,1);
}
.zr1-cls-9:hover {
cursor:pointer;
fill:rgba(255,112,112,1);
}

]]>

</style>
</svg>