<svg width="600" height="400" xmlns="http://www.w3.org/2000/svg" xmlns:xlink="http://www.w3.org/1999/xlink" version="1.1" baseProfile="full" viewBox="0 0 600 400">
<rect width="600" height="400" x="0" y="0" fill="#fff"></rect>
<path d="M60 330.5L540 330.5" fill="none" pointer-events="visible" stroke="#E0E6F1" class="zr0-cls-0"></path>
<path d="M60 296.5L540 296.5" fill="none" pointer-events="visible" stroke="#E0E6F1" class="zr0-cls-0"></path>
<path d="M60 262.5L540 262.5" fill="none" pointer-events="visible" stroke="#E0E6F1" class="zr0-cls-0"></path>
<path d="M60 229.5L540 229.5" fill="none" pointer-events="visible" stroke="#E0E6F1" class="zr0-cls-0"></path>
<path d="M60 195.5L540 195.5" fill="none" pointer-events="visible" stroke="#E0E6F1" class="zr0-cls-0"></path>
<path d="M60 161.5L540 161.5" fill="none" pointer-events="visible" stroke="#E0E6F1" class="zr0-cls-0"></path>
<path d="M60 127.5L540 127.5" fill="none" pointer-events="visible" stroke="#E0E6F1" class="zr0-cls-0"></path>
<path d="M60 94.5L540 94.5" fill="none" pointer-events="visible" stroke="#E0E6F1" class="zr0-cls-0"></path>
<path d="M60 60.5L540 60.5" fill="none" pointer-events="visible" stroke="#E0E6F1" class="zr0-cls-0"></path>
<path d="M60.5 60L60.5 330" fill="none" pointer-events="visible" stroke="#E0E6F1" class="zr0-cls-0"></path>
<path d="M120.5 60L120.5 330" fill="none" pointer-events="visible" stroke="#E0E6F1" class="zr0-cls-0"></path>
<path d="M180.5 60L180.5 330" fill="none" pointer-events="visible" stroke="#E0E6F1" class="zr0-cls-0"></path>
<path d="M240.5 60L240.5 330" fill="none" pointer-events="visible" stroke="#E0E6F1" class="zr0-cls-0"></path>
<path d="M300.5 60L300.5 330" fill="none" pointer-events="visible" stroke="#E0E6F1" class="zr0-cls-0"></path>
<path d="M360.5 60L360.5 330" fill="none" pointer-events="visible" stroke="#E0E6F1" class="zr0-cls-0"></path>
<path d="M420.5 60L420.5 330" fill="none" pointer-events="visible" stroke="#E0E6F1" class="zr0-cls-0"></path>
<path d="M480.5 60L480.5 330" fill="none" pointer-events="visible" stroke="#E0E6F1" class="zr0-cls-0"></path>
<path d="M540.5 60L540.5 330" fill="none" pointer-events="visible" stroke="#E0E6F1" class="zr0-cls-0"></path>
<path d="M360.5 330L360.5 60" fill="none" pointer-events="visible" stroke="#6E7079" stroke-linecap="round" class="zr0-cls-0"></path>
<path d="M60 161.5L540 161.5" fill="none" pointer-events="visible" stroke="#6E7079" stroke-linecap="round" class="zr0-cls-0"></path>
<path d="M360 330.5L355 330.5" fill="none" pointer-events="visible" stroke="#6E7079" class="zr0-cls-0"></path>
<path d="M360 296.5L355 296.5" fill="none" pointer-events="visible" stroke="#6E7079" class="zr0-cls-0"></path>
<path d="M360 262.5L355 262.5" fill="none" pointer-events="visible" stroke="#6E7079" class="zr0-cls-0"></path>
<path d="M360 229.5L355 229.5" fill="none" pointer-events="visible" stroke="#6E7079" class="zr0-cls-0"></path>
<path d="M360 195.5L355 195.5" fill="none" pointer-events="visible" stroke="#6E7079" class="zr0-cls-0"></path>
<path d="M360 161.5L355 161.5" fill="none" pointer-events="visible" stroke="#6E7079" class="zr0-cls-0"></path>
<path d="M360 127.5L355 127.5" fill="none" pointer-events="visible" stroke="#6E7079" class="zr0-cls-0"></path>
<path d="M360 94.5L355 94.5" fill="none" pointer-events="visible" stroke="#6E7079" class="zr0-cls-0"></path>
<path d="M360 60.5L355 60.5" fill="none" pointer-events="visible" stroke="#6E7079" class="zr0-cls-0"></path>
<path d="M60.5 161.3L60.5 166.3" fill="none" pointer-events="visible" stroke="#6E7079" class="zr0-cls-0"></path>
<path d="M120.5 161.3L120.5 166.3" fill="none" pointer-events="visible" stroke="#6E7079" class="zr0-cls-0"></path>
<path d="M180.5 161.3L180.5 166.3" fill="none" pointer-events="visible" stroke="#6E7079" class="zr0-cls-0"></path>
<path d="M240.5 161.3L240.5 166.3" fill="none" pointer-events="visible" stroke="#6E7079" class="zr0-cls-0"></path>
<path d="M300.5 161.3L300.5 166.3" fill="none" pointer-events="visible" stroke="#6E7079" class="zr0-cls-0"></path>
<path d="M360.5 161.3L360.5 166.3" fill="none" pointer-events="visible" stroke="#6E7079" class="zr0-cls-0"></path>
<path d="M420.5 161.3L420.5 166.3" fill="none" pointer-events="visible" stroke="#6E7079" class="zr0-cls-0"></path>
<path d="M480.5 161.3L480.5 166.3" fill="none" pointer-events="visible" stroke="#6E7079" class="zr0-cls-0"></path>
<path d="M540.5 161.3L540.5 166.3" fill="none" pointer-events="visible" stroke="#6E7079" class="zr0-cls-0"></path>
<text dominant-baseline="central" text-anchor="end" style="font-size:12px;font-family:sans-serif;" transform="translate(52 330)" fill="#6E7079">-150</text>
<text dominant-baseline="central" text-anchor="end" style="font-size:12px;font-family:sans-serif;" transform="translate(52 296.25)" fill="#6E7079">-120</text>
<text dominant-baseline="central" text-anchor="end" style="font-size:12px;font-family:sans-serif;" transform="translate(52 262.5)" fill="#6E7079">-90</text>
<text dominant-baseline="central" text-anchor="end" style="font-size:12px;font-family:sans-serif;" transform="translate(52 228.75)" fill="#6E7079">-60</text>
<text dominant-baseline="central" text-anchor="end" style="font-size:12px;font-family:sans-serif;" transform="translate(52 195)" fill="#6E7079">-30</text>
<text dominant-baseline="central" text-anchor="end" style="font-size:12px;font-family:sans-serif;" transform="translate(52 161.25)" fill="#6E7079">0</text>
<text dominant-baseline="central" text-anchor="end" style="font-size:12px;font-family:sans-serif;" transform="translate(52 127.5)" fill="#6E7079">30</text>
<text dominant-baseline="central" text-anchor="end" style="font-size:12px;font-family:sans-serif;" transform="translate(52 93.75)" fill="#6E7079">60</text>
<text dominant-baseline="central" text-anchor="end" style="font-size:12px;font-family:sans-serif;" transform="translate(52 60)" fill="#6E7079">90</text>
<text dominant-baseline="central" text-anchor="middle" style="font-size:12px;font-family:sans-serif;" y="6" transform="translate(60 338)" fill="#6E7079">-150</text>
<text dominant-baseline="central" text-anchor="middle" style="font-size:12px;font-family:sans-serif;" y="6" transform="translate(120 338)" fill="#6E7079">-120</text>
<text dominant-baseline="central" text-anchor="middle" style="font-size:12px;font-family:sans-serif;" y="6" transform="translate(180 338)" fill="#6E7079">-90</text>
<text dominant-baseline="central" text-anchor="middle" style="font-size:12px;font-family:sans-serif;" y="6" transform="translate(240 338)" fill="#6E7079">-60</text>
<text dominant-baseline="central" text-anchor="middle" style="font-size:12px;font-family:sans-serif;" y="6" transform="translate(300 338)" fill="#6E7079">-30</text>
<text dominant-baseline="central" text-anchor="middle" style="font-size:12px;font-family:sans-serif;" y="6" transform="translate(360 338)" fill="#6E7079">0</text>
<text dominant-baseline="central" text-anchor="middle" style="font-size:12px;font-family:sans-serif;" y="6" transform="translate(420 338)" fill="#6E7079">30</text>
<text dominant-baseline="central" text-anchor="middle" style="font-size:12px;font-family:sans-serif;" y="6" transform="translate(480 338)" fill="#6E7079">60</text>
<text dominant-baseline="central" text-anchor="middle" style="font-size:12px;font-family:sans-serif;" y="6" transform="translate(540 338)" fill="#6E7079">90</text>
<path d="M310.9 281.5L313.5 280.9L317.5 279.7L321.5 278.3L323.7 277.5L325.5 276.8L329.5 275.2L333.2 273.5L333.5 273.4L337.5 271.3L340.7 269.5L341.5 269.1L345.5 266.6L347.2 265.5L349.5 264L353.2 261.5L353.5 261.3L357.5 258.5L359 257.5L361.5 255.8L364.9 253.5L365.5 253.1L369.5 250.5L371 249.5L373.5 247.9L377.2 245.5L377.5 245.3L381.5 242.7L383.3 241.5L385.5 240L389.1 237.5L389.5 237.2L393.5 234.3L394.5 233.5L397.5 231.2L399.7 229.5L401.5 228.1L404.8 225.5L405.5 224.9L409.5 221.7L409.7 221.5L413.5 218.4L414.6 217.5L417.5 215.2L419.5 213.5L421.5 211.9L424.5 209.5L425.5 208.7L429.5 205.6L429.6 205.5L433.5 202.5L434.8 201.5L437.5 199.4L440 197.5L441.5 196.3L445.1 193.5L445.5 193.2L449.5 190L450 189.5L453.5 186.6L454.8 185.5L457.5 183.1L459.3 181.5L461.5 179.5L463.6 177.5L465.5 175.7L467.7 173.5L469.5 171.5L471.3 169.5L473.5 166.9L474.6 165.5L477.5 161.5L477.5 161.4L480 157.5L481.5 154.9L482.3 153.5L484.3 149.5L485.5 146.5L485.9 145.5L487.3 141.5L488.3 137.5L489.1 133.5L489.5 130L489.5 129.5L489.8 125.5L489.7 121.5L489.5 119.2L489.3 117.5L488.7 113.5L487.8 109.5L486.5 105.5L485.5 102.7L485 101.5L483.2 97.5L481.5 94.4L481 93.5L478.3 89.5L477.5 88.5L475.1 85.5L473.5 83.7L471.3 81.5L469.5 79.7L467 77.5L465.5 76.2L462.1 73.5L461.5 73L457.5 70.1L456.6 69.5L453.5 67.3L450.6 65.5L449.5 64.8L445.5 62.4L444 61.5L441.5 59.9L437.5 57.6L437.4 57.5L433.5 55.1L430.9 53.5L429.5 52.6L425.5 50L424.8 49.5L421.5 47.3L418.9 45.5L417.5 44.5L413.5 41.7L413.2 41.5L409.5 38.9L407.5 37.5L405.5 36L401.9 33.5L401.5 33.2L397.5 30.2L396.5 29.5L393.5 27.1L391.4 25.5L389.5 24L386.4 21.5L385.5 20.7L381.7 17.5L381.5 17.3L377.5 13.8L377.1 13.5L373.5 10.3L372.5 9.5L369.5 6.8L367.9 5.5L365.5 3.5L363 1.5L361.5 0.2L357.9 -2.5L357.5 -2.8L353.5 -5.8L352.4 -6.5L349.5 -8.5L346.2 -10.5L345.5 -11L341.5 -13.3L339 -14.5L337.5 -15.3L333.5 -17.1L329.7 -18.5L329.5 -18.6L325.5 -19.9L321.5 -21L317.5 -21.8L313.5 -22.4L311.7 -22.5L309.5 -22.7L305.5 -22.9L301.5 -22.8L297.5 -22.6L297 -22.5L293.5 -22.1L289.5 -21.5L285.5 -20.6L281.5 -19.5L278.5 -18.5L277.5 -18.2L273.5 -16.6L269.5 -14.8L268.9 -14.5L265.5 -12.7L261.8 -10.5L261.5 -10.4L257.5 -7.8L255.7 -6.5L253.5 -5L250.2 -2.5L249.5 -2L245.5 1L244.9 1.5L241.5 4L239.4 5.5L237.5 6.8L233.5 9.3L233.1 9.5L229.5 11.3L225.5 13L223.8 13.5L221.5 14.1L217.5 15L213.5 15.5L209.5 15.9L205.5 16.1L201.5 16.2L197.5 16.3L193.5 16.3L189.5 16.2L185.5 16.2L181.5 16.2L177.5 16.2L173.5 16.3L169.5 16.5L165.5 16.8L161.5 17.3L160.5 17.5L157.5 18L153.5 18.8L149.5 19.8L145.5 21L144.1 21.5L141.5 22.4L137.5 23.9L133.8 25.5L133.5 25.6L129.5 27.6L126 29.5L125.5 29.7L121.5 32.1L119.3 33.5L117.5 34.7L113.5 37.5L113.4 37.5L109.5 40.3L107.9 41.5L105.5 43.3L102.6 45.5L101.5 46.3L97.5 49.2L97.1 49.5L93.5 52L91.2 53.5L89.5 54.6L85.5 57.2L85 57.5L81.5 59.7L78.6 61.5L77.5 62.1L73.5 64.6L72 65.5L69.5 67L65.5 69.4L65.4 69.5L61.5 71.8L58.6 73.5L57.5 74.1L53.5 76.4L51.5 77.5L49.5 78.6L45.5 80.9L44.5 81.5L41.5 83.3L37.8 85.5L37.5 85.7L33.5 88.1L31.3 89.5L29.5 90.6L25.5 93.2L25 93.5L21.5 95.9L19.3 97.5L17.5 98.9L14.2 101.5L13.5 102.1L10 105.5L9.5 106L6.5 109.5L5.5 111L3.8 113.5L1.7 117.5L1.5 118.1L0.2 121.5L-1 125.5L-1.8 129.5L-2.2 133.5L-2.3 137.5L-1.9 141.5L-1.1 145.5L0.2 149.5L1.5 152.3L2.1 153.5L4.9 157.5L5.5 158.2L8.6 161.5L9.5 162.4L13.3 165.5L13.5 165.6L17.5 168.3L19.5 169.5L21.5 170.6L25.5 172.6L27.9 173.5L29.5 174.1L33.5 175.2L37.5 175.8L41.5 176.2L45.5 176.2L49.5 175.9L53.5 175.4L57.5 174.5L61.1 173.5L61.5 173.4L65.5 172.1L69.5 170.6L72.1 169.5L73.5 168.9L77.5 167.3L81.5 165.6L81.8 165.5L85.5 164.1L89.5 162.7L93.5 161.6L93.8 161.5L97.5 160.8L101.5 160.5L105.5 160.4L109.5 160.7L113.5 161.3L114.4 161.5L117.5 162.4L121.5 163.9L124.8 165.5L125.5 165.9L129.5 168.9L130.2 169.5L133.5 173.3L133.7 173.5L136.1 177.5L137.5 180.9L137.7 181.5L138.8 185.5L139.5 189.5L139.7 193.5L139.7 197.5L139.7 201.5L139.9 205.5L140.7 209.5L141.5 211.8L142.1 213.5L144.4 217.5L145.5 218.8L147.9 221.5L149.5 222.9L153.2 225.5L153.5 225.7L157.5 227.5L161.5 229L162.8 229.5L165.5 230.3L169.5 231.4L173.5 232.3L177.5 233.2L178.7 233.5L181.5 234L185.5 234.9L189.5 235.9L193.5 237.2L194.1 237.5L197.5 238.9L201.5 240.9L202.4 241.5L205.5 243.2L209.1 245.5L209.5 245.7L213.5 248.3L215.1 249.5L217.5 251.1L220.7 253.5L221.5 254L225.5 257L226.2 257.5L229.5 259.8L231.8 261.5L233.5 262.6L237.5 265.2L238 265.5L241.5 267.6L244.6 269.5L245.5 270L249.5 272.2L252.1 273.5L253.5 274.2L257.5 276L261.2 277.5L261.5 277.6L265.5 279L269.5 280.3L273.5 281.3L274.3 281.5L277.5 282.2L281.5 283L285.5 283.5L289.5 283.8L293.5 283.9L297.5 283.7L301.5 283.3L305.5 282.7L309.5 281.9Z" transform="translate(60 60)" fill="#5470c6" fill-opacity="0.3" ecmeta_series_index="0" ecmeta_data_index="299" ecmeta_ssr_type="chart" class="zr0-cls-1"></path>
<path d="M310.9 281.5L313.5 280.9L317.5 279.7L321.5 278.3L323.7 277.5L325.5 276.8L329.5 275.2L333.2 273.5L333.5 273.4L337.5 271.3L340.7 269.5L341.5 269.1L345.5 266.6L347.2 265.5L349.5 264L353.2 261.5L353.5 261.3L357.5 258.5L359 257.5L361.5 255.8L364.9 253.5L365.5 253.1L369.5 250.5L371 249.5L373.5 247.9L377.2 245.5L377.5 245.3L381.5 242.7L383.3 241.5L385.5 240L389.1 237.5L389.5 237.2L393.5 234.3L394.5 233.5L397.5 231.2L399.7 229.5L401.5 228.1L404.8 225.5L405.5 224.9L409.5 221.7L409.7 221.5L413.5 218.4L414.6 217.5L417.5 215.2L419.5 213.5L421.5 211.9L424.5 209.5L425.5 208.7L429.5 205.6L429.6 205.5L433.5 202.5L434.8 201.5L437.5 199.4L440 197.5L441.5 196.3L445.1 193.5L445.5 193.2L449.5 190L450 189.5L453.5 186.6L454.8 185.5L457.5 183.1L459.3 181.5L461.5 179.5L463.6 177.5L465.5 175.7L467.7 173.5L469.5 171.5L471.3 169.5L473.5 166.9L474.6 165.5L477.5 161.5L477.5 161.4L480 157.5L481.5 154.9L482.3 153.5L484.3 149.5L485.5 146.5L485.9 145.5L487.3 141.5L488.3 137.5L489.1 133.5L489.5 130L489.5 129.5L489.8 125.5L489.7 121.5L489.5 119.2L489.3 117.5L488.7 113.5L487.8 109.5L486.5 105.5L485.5 102.7L485 101.5L483.2 97.5L481.5 94.4L481 93.5L478.3 89.5L477.5 88.5L475.1 85.5L473.5 83.7L471.3 81.5L469.5 79.7L467 77.5L465.5 76.2L462.1 73.5L461.5 73L457.5 70.1L456.6 69.5L453.5 67.3L450.6 65.5L449.5 64.8L445.5 62.4L444 61.5L441.5 59.9L437.5 57.6L437.4 57.5L433.5 55.1L430.9 53.5L429.5 52.6L425.5 50L424.8 49.5L421.5 47.3L418.9 45.5L417.5 44.5L413.5 41.7L413.2 41.5L409.5 38.9L407.5 37.5L405.5 36L401.9 33.5L401.5 33.2L397.5 30.2L396.5 29.5L393.5 27.1L391.4 25.5L389.5 24L386.4 21.5L385.5 20.7L381.7 17.5L381.5 17.3L377.5 13.8L377.1 13.5L373.5 10.3L372.5 9.5L369.5 6.8L367.9 5.5L365.5 3.5L363 1.5L361.5 0.2L357.9 -2.5L357.5 -2.8L353.5 -5.8L352.4 -6.5L349.5 -8.5L346.2 -10.5L345.5 -11L341.5 -13.3L339 -14.5L337.5 -15.3L333.5 -17.1L329.7 -18.5L329.5 -18.6L325.5 -19.9L321.5 -21L317.5 -21.8L313.5 -22.4L311.7 -22.5L309.5 -22.7L305.5 -22.9L301.5 -22.8L297.5 -22.6L297 -22.5L293.5 -22.1L289.5 -21.5L285.5 -20.6L281.5 -19.5L278.5 -18.5L277.5 -18.2L273.5 -16.6L269.5 -14.8L268.9 -14.5L265.5 -12.7L261.8 -10.5L261.5 -10.4L257.5 -7.8L255.7 -6.5L253.5 -5L250.2 -2.5L249.5 -2L245.5 1L244.9 1.5L241.5 4L239.4 5.5L237.5 6.8L233.5 9.3L233.1 9.5L229.5 11.3L225.5 13L223.8 13.5L221.5 14.1L217.5 15L213.5 15.5L209.5 15.9L205.5 16.1L201.5 16.2L197.5 16.3L193.5 16.3L189.5 16.2L185.5 16.2L181.5 16.2L177.5 16.2L173.5 16.3L169.5 16.5L165.5 16.8L161.5 17.3L160.5 17.5L157.5 18L153.5 18.8L149.5 19.8L145.5 21L144.1 21.5L141.5 22.4L137.5 23.9L133.8 25.5L133.5 25.6L129.5 27.6L126 29.5L125.5 29.7L121.5 32.1L119.3 33.5L117.5 34.7L113.5 37.5L113.4 37.5L109.5 40.3L107.9 41.5L105.5 43.3L102.6 45.5L101.5 46.3L97.5 49.2L97.1 49.5L93.5 52L91.2 53.5L89.5 54.6L85.5 57.2L85 57.5L81.5 59.7L78.6 61.5L77.5 62.1L73.5 64.6L72 65.5L69.5 67L65.5 69.4L65.4 69.5L61.5 71.8L58.6 73.5L57.5 74.1L53.5 76.4L51.5 77.5L49.5 78.6L45.5 80.9L44.5 81.5L41.5 83.3L37.8 85.5L37.5 85.7L33.5 88.1L31.3 89.5L29.5 90.6L25.5 93.2L25 93.5L21.5 95.9L19.3 97.5L17.5 98.9L14.2 101.5L13.5 102.1L10 105.5L9.5 106L6.5 109.5L5.5 111L3.8 113.5L1.7 117.5L1.5 118.1L0.2 121.5L-1 125.5L-1.8 129.5L-2.2 133.5L-2.3 137.5L-1.9 141.5L-1.1 145.5L0.2 149.5L1.5 152.3L2.1 153.5L4.9 157.5L5.5 158.2L8.6 161.5L9.5 162.4L13.3 165.5L13.5 165.6L17.5 168.3L19.5 169.5L21.5 170.6L25.5 172.6L27.9 173.5L29.5 174.1L33.5 175.2L37.5 175.8L41.5 176.2L45.5 176.2L49.5 175.9L53.5 175.4L57.5 174.5L61.1 173.5L61.5 173.4L65.5 172.1L69.5 170.6L72.1 169.5L73.5 168.9L77.5 167.3L81.5 165.6L81.8 165.5L85.5 164.1L89.5 162.7L93.5 161.6L93.8 161.5L97.5 160.8L101.5 160.5L105.5 160.4L109.5 160.7L113.5 161.3L114.4 161.5L117.5 162.4L121.5 163.9L124.8 165.5L125.5 165.9L129.5 168.9L130.2 169.5L133.5 173.3L133.7 173.5L136.1 177.5L137.5 180.9L137.7 181.5L138.8 185.5L139.5 189.5L139.7 193.5L139.7 197.5L139.7 201.5L139.9 205.5L140.7 209.5L141.5 211.8L142.1 213.5L144.4 217.5L145.5 218.8L147.9 221.5L149.5 222.9L153.2 225.5L153.5 225.7L157.5 227.5L161.5 229L162.8 229.5L165.5 230.3L169.5 231.4L173.5 232.3L177.5 233.2L178.7 233.5L181.5 234L185.5 234.9L189.5 235.9L193.5 237.2L194.1 237.5L197.5 238.9L201.5 240.9L202.4 241.5L205.5 243.2L209.1 245.5L209.5 245.7L213.5 248.3L215.1 249.5L217.5 251.1L220.7 253.5L221.5 254L225.5 257L226.2 257.5L229.5 259.8L231.8 261.5L233.5 262.6L237.5 265.2L238 265.5L241.5 267.6L244.6 269.5L245.5 270L249.5 272.2L252.1 273.5L253.5 274.2L257.5 276L261.2 277.5L261.5 277.6L265.5 279L269.5 280.3L273.5 281.3L274.3 281.5L277.5 282.2L281.5 283L285.5 283.5L289.5 283.8L293.5 283.9L297.5 283.7L301.5 283.3L305.5 282.7L309.5 281.9Z" transform="translate(60 60)" fill="none" pointer-events="visible" stroke="#5470c6" stroke-opacity="0.5" ecmeta_series_index="0" ecmeta_data_index="299" ecmeta_ssr_type="chart" class="zr0-cls-2"></path>
<path d="M313.8 253.5L317.5 252.3L321.5 250.9L324.9 249.5L325.5 249.3L329.5 247.5L333.5 245.6L333.6 245.5L337.5 243.4L340.6 241.5L341.5 241L345.5 238.4L346.8 237.5L349.5 235.7L352.7 233.5L353.5 232.9L357.5 230L358.3 229.5L361.5 227L363.5 225.5L365.5 223.9L368.4 221.5L369.5 220.5L373 217.5L373.5 217L377.3 213.5L377.5 213.3L381.4 209.5L381.5 209.4L385.2 205.5L385.5 205.2L389 201.5L389.5 201L392.9 197.5L393.5 196.8L396.9 193.5L397.5 193L401.4 189.5L401.5 189.4L405.5 186.1L406.3 185.5L409.5 183.1L411.7 181.5L413.5 180.3L417.5 177.7L417.8 177.5L421.5 175.3L424.6 173.5L425.5 173L429.5 170.6L431.3 169.5L433.5 168.1L437.4 165.5L437.5 165.5L441.5 162.5L442.8 161.5L445.5 159.3L447.5 157.5L449.5 155.7L451.7 153.5L453.5 151.5L455.2 149.5L457.5 146.4L458.1 145.5L460.4 141.5L461.5 139.1L462.2 137.5L463.4 133.5L464.3 129.5L464.7 125.5L464.7 121.5L464.2 117.5L463.3 113.5L462 109.5L461.5 108.2L460.3 105.5L458.1 101.5L457.5 100.6L455.3 97.5L453.5 95.3L451.9 93.5L449.5 91L447.9 89.5L445.5 87.4L443.3 85.5L441.5 84L438.3 81.5L437.5 80.9L433.5 77.8L433.1 77.5L429.5 74.7L427.9 73.5L425.5 71.6L422.8 69.5L421.5 68.5L417.7 65.5L417.5 65.3L413.5 62.1L412.7 61.5L409.5 58.9L407.7 57.5L405.5 55.8L402.6 53.5L401.5 52.7L397.5 49.5L397.4 49.5L393.5 46.4L392.4 45.5L389.5 43.2L387.4 41.5L385.5 40L382.4 37.5L381.5 36.7L377.5 33.5L377.5 33.5L373.5 30.2L372.6 29.5L369.5 26.8L367.8 25.5L365.5 23.5L363 21.5L361.5 20.3L357.9 17.5L357.5 17.1L353.5 14.1L352.7 13.5L349.5 11.1L347.1 9.5L345.5 8.4L341.5 5.9L340.8 5.5L337.5 3.5L333.5 1.5L333.4 1.5L329.5 -0.3L325.5 -1.8L323 -2.5L321.5 -3L317.5 -3.9L313.5 -4.6L309.5 -5L305.5 -5.1L301.5 -4.9L297.5 -4.5L293.5 -3.9L289.5 -2.9L288.3 -2.5L285.5 -1.6L281.5 0L278.4 1.5L277.5 2L273.5 4.3L271.7 5.5L269.5 7L266.2 9.5L265.5 10.1L261.5 13.5L261.4 13.5L257.5 17L256.9 17.5L253.5 20.6L252.4 21.5L249.5 24.1L247.7 25.5L245.5 27.3L242.3 29.5L241.5 30.1L237.5 32.4L235 33.5L233.5 34.2L229.5 35.5L225.5 36.3L221.5 36.8L217.5 36.9L213.5 36.9L209.5 36.8L205.5 36.6L201.5 36.4L197.5 36.3L193.5 36.2L189.5 36.1L185.5 36.1L181.5 36.2L177.5 36.3L173.5 36.6L169.5 37.1L167.3 37.5L165.5 37.8L161.5 38.7L157.5 39.9L153.5 41.3L153.1 41.5L149.5 43L145.5 44.9L144.4 45.5L141.5 47.1L137.5 49.5L137.5 49.5L133.5 52.2L131.6 53.5L129.5 55.1L126.3 57.5L125.5 58.2L121.5 61.5L121.5 61.5L117.5 65.1L117 65.5L113.5 68.8L112.7 69.5L109.5 72.4L108.2 73.5L105.5 76L103.7 77.5L101.5 79.6L99.3 81.5L97.5 83.3L95 85.5L93.5 87.1L91 89.5L89.5 91.2L87.1 93.5L85.5 95.4L83.4 97.5L81.5 99.8L79.9 101.5L77.5 105L77.1 105.5L75.2 109.5L75.2 113.5L77.5 115.8L80.7 117.5L81.5 117.7L85.5 118.4L89.5 118.9L93.5 119.3L97.5 119.9L101.5 120.5L105.5 121.1L107.2 121.5L109.5 121.9L113.5 122.7L117.5 123.6L121.5 124.5L125.5 125.5L125.5 125.5L129.5 126.5L133.5 127.7L137.5 129L138.9 129.5L141.5 130.4L145.5 131.8L149.5 133.4L149.8 133.5L153.5 134.9L157.5 136.5L160.1 137.5L161.5 138L165.5 139.6L169.5 141.2L170.2 141.5L173.5 142.9L177.5 144.6L179.5 145.5L181.5 146.5L185.5 148.6L187.2 149.5L189.5 150.8L193.5 153.1L194.2 153.5L197.5 155.6L200.3 157.5L201.5 158.3L205.5 161.2L205.9 161.5L209.5 164.2L211 165.5L213.5 167.5L215.8 169.5L217.5 170.9L220.4 173.5L221.5 174.5L224.8 177.5L225.5 178.2L228.9 181.5L229.5 182.2L232.6 185.5L233.5 186.5L236 189.5L237.5 191.5L239 193.5L241.5 197.4L241.6 197.5L243.8 201.5L245.5 205L245.7 205.5L247.5 209.5L249.4 213.5L249.5 213.8L251.2 217.5L253.1 221.5L253.5 222.3L255.1 225.5L257.1 229.5L257.5 230.2L259.4 233.5L261.5 236.8L262 237.5L265.3 241.5L265.5 241.7L269.5 245.4L269.6 245.5L273.5 248.2L275.4 249.5L277.5 250.6L281.5 252.6L283.8 253.5L285.5 254.1L289.5 255L293.5 255.7L297.5 255.9L301.5 255.8L305.5 255.3L309.5 254.6L313.5 253.6Z" transform="translate(60 60)" fill="#5470c6" fill-opacity="0.39999999999999997" ecmeta_series_index="0" ecmeta_data_index="299" ecmeta_ssr_type="chart" class="zr0-cls-1"></path>
<path d="M313.8 253.5L317.5 252.3L321.5 250.9L324.9 249.5L325.5 249.3L329.5 247.5L333.5 245.6L333.6 245.5L337.5 243.4L340.6 241.5L341.5 241L345.5 238.4L346.8 237.5L349.5 235.7L352.7 233.5L353.5 232.9L357.5 230L358.3 229.5L361.5 227L363.5 225.5L365.5 223.9L368.4 221.5L369.5 220.5L373 217.5L373.5 217L377.3 213.5L377.5 213.3L381.4 209.5L381.5 209.4L385.2 205.5L385.5 205.2L389 201.5L389.5 201L392.9 197.5L393.5 196.8L396.9 193.5L397.5 193L401.4 189.5L401.5 189.4L405.5 186.1L406.3 185.5L409.5 183.1L411.7 181.5L413.5 180.3L417.5 177.7L417.8 177.5L421.5 175.3L424.6 173.5L425.5 173L429.5 170.6L431.3 169.5L433.5 168.1L437.4 165.5L437.5 165.5L441.5 162.5L442.8 161.5L445.5 159.3L447.5 157.5L449.5 155.7L451.7 153.5L453.5 151.5L455.2 149.5L457.5 146.4L458.1 145.5L460.4 141.5L461.5 139.1L462.2 137.5L463.4 133.5L464.3 129.5L464.7 125.5L464.7 121.5L464.2 117.5L463.3 113.5L462 109.5L461.5 108.2L460.3 105.5L458.1 101.5L457.5 100.6L455.3 97.5L453.5 95.3L451.9 93.5L449.5 91L447.9 89.5L445.5 87.4L443.3 85.5L441.5 84L438.3 81.5L437.5 80.9L433.5 77.8L433.1 77.5L429.5 74.7L427.9 73.5L425.5 71.6L422.8 69.5L421.5 68.5L417.7 65.5L417.5 65.3L413.5 62.1L412.7 61.5L409.5 58.9L407.7 57.5L405.5 55.8L402.6 53.5L401.5 52.7L397.5 49.5L397.4 49.5L393.5 46.4L392.4 45.5L389.5 43.2L387.4 41.5L385.5 40L382.4 37.5L381.5 36.7L377.5 33.5L377.5 33.5L373.5 30.2L372.6 29.5L369.5 26.8L367.8 25.5L365.5 23.5L363 21.5L361.5 20.3L357.9 17.5L357.5 17.1L353.5 14.1L352.7 13.5L349.5 11.1L347.1 9.5L345.5 8.4L341.5 5.9L340.8 5.5L337.5 3.5L333.5 1.5L333.4 1.5L329.5 -0.3L325.5 -1.8L323 -2.5L321.5 -3L317.5 -3.9L313.5 -4.6L309.5 -5L305.5 -5.1L301.5 -4.9L297.5 -4.5L293.5 -3.9L289.5 -2.9L288.3 -2.5L285.5 -1.6L281.5 0L278.4 1.5L277.5 2L273.5 4.3L271.7 5.5L269.5 7L266.2 9.5L265.5 10.1L261.5 13.5L261.4 13.5L257.5 17L256.9 17.5L253.5 20.6L252.4 21.5L249.5 24.1L247.7 25.5L245.5 27.3L242.3 29.5L241.5 30.1L237.5 32.4L235 33.5L233.5 34.2L229.5 35.5L225.5 36.3L221.5 36.8L217.5 36.9L213.5 36.9L209.5 36.8L205.5 36.6L201.5 36.4L197.5 36.3L193.5 36.2L189.5 36.1L185.5 36.1L181.5 36.2L177.5 36.3L173.5 36.6L169.5 37.1L167.3 37.5L165.5 37.8L161.5 38.7L157.5 39.9L153.5 41.3L153.1 41.5L149.5 43L145.5 44.9L144.4 45.5L141.5 47.1L137.5 49.5L137.5 49.5L133.5 52.2L131.6 53.5L129.5 55.1L126.3 57.5L125.5 58.2L121.5 61.5L121.5 61.5L117.5 65.1L117 65.5L113.5 68.8L112.7 69.5L109.5 72.4L108.2 73.5L105.5 76L103.7 77.5L101.5 79.6L99.3 81.5L97.5 83.3L95 85.5L93.5 87.1L91 89.5L89.5 91.2L87.1 93.5L85.5 95.4L83.4 97.5L81.5 99.8L79.9 101.5L77.5 105L77.1 105.5L75.2 109.5L75.2 113.5L77.5 115.8L80.7 117.5L81.5 117.7L85.5 118.4L89.5 118.9L93.5 119.3L97.5 119.9L101.5 120.5L105.5 121.1L107.2 121.5L109.5 121.9L113.5 122.7L117.5 123.6L121.5 124.5L125.5 125.5L125.5 125.5L129.5 126.5L133.5 127.7L137.5 129L138.9 129.5L141.5 130.4L145.5 131.8L149.5 133.4L149.8 133.5L153.5 134.9L157.5 136.5L160.1 137.5L161.5 138L165.5 139.6L169.5 141.2L170.2 141.5L173.5 142.9L177.5 144.6L179.5 145.5L181.5 146.5L185.5 148.6L187.2 149.5L189.5 150.8L193.5 153.1L194.2 153.5L197.5 155.6L200.3 157.5L201.5 158.3L205.5 161.2L205.9 161.5L209.5 164.2L211 165.5L213.5 167.5L215.8 169.5L217.5 170.9L220.4 173.5L221.5 174.5L224.8 177.5L225.5 178.2L228.9 181.5L229.5 182.2L232.6 185.5L233.5 186.5L236 189.5L237.5 191.5L239 193.5L241.5 197.4L241.6 197.5L243.8 201.5L245.5 205L245.7 205.5L247.5 209.5L249.4 213.5L249.5 213.8L251.2 217.5L253.1 221.5L253.5 222.3L255.1 225.5L257.1 229.5L257.5 230.2L259.4 233.5L261.5 236.8L262 237.5L265.3 241.5L265.5 241.7L269.5 245.4L269.6 245.5L273.5 248.2L275.4 249.5L277.5 250.6L281.5 252.6L283.8 253.5L285.5 254.1L289.5 255L293.5 255.7L297.5 255.9L301.5 255.8L305.5 255.3L309.5 254.6L313.5 253.6Z" transform="translate(60 60)" fill="none" pointer-events="visible" stroke="#5470c6" stroke-opacity="0.5" ecmeta_series_index="0" ecmeta_data_index="299" ecmeta_ssr_type="chart" class="zr0-cls-2"></path>
<path d="M327.4 217.5L329.5 216.8L333.5 215.2L336.6 213.5L337.5 213L341.5 210.3L342.6 209.5L345.5 207.2L347.5 205.5L349.5 203.7L351.8 201.5L353.5 199.9L355.8 197.5L357.5 195.7L359.6 193.5L361.5 191.5L363.3 189.5L365.5 187.2L367 185.5L369.5 182.9L370.8 181.5L373.5 178.7L374.7 177.5L377.5 174.8L378.9 173.5L381.5 171.2L383.5 169.5L385.5 167.9L388.6 165.5L389.5 164.8L393.5 162L394.2 161.5L397.5 159.3L400.4 157.5L401.5 156.9L405.5 154.5L407.4 153.5L409.5 152.3L413.5 150.1L414.6 149.5L417.5 147.8L421.3 145.5L421.5 145.4L425.5 142.5L426.8 141.5L429.5 139L430.9 137.5L433.5 134.1L433.9 133.5L435.9 129.5L437.1 125.5L437.5 122.9L437.7 121.5L437.5 117.5L437.5 117.2L436.8 113.5L435.4 109.5L433.5 105.5L433.5 105.5L431.1 101.5L429.5 99.3L428.2 97.5L425.5 94.1L425 93.5L421.5 89.5L421.5 89.5L417.8 85.5L417.5 85.1L414 81.5L413.5 80.9L410.1 77.5L409.5 76.9L406.1 73.5L405.5 72.9L401.9 69.5L401.5 69.1L397.6 65.5L397.5 65.4L393.5 61.7L393.3 61.5L389.5 58.1L388.8 57.5L385.5 54.6L384.3 53.5L381.5 51.1L379.6 49.5L377.5 47.7L374.9 45.5L373.5 44.3L370.1 41.5L369.5 41L365.5 37.8L365.1 37.5L361.5 34.6L360 33.5L357.5 31.5L354.8 29.5L353.5 28.5L349.5 25.6L349.3 25.5L345.5 22.8L343.5 21.5L341.5 20.1L337.5 17.7L337.1 17.5L333.5 15.5L329.5 13.6L329.1 13.5L325.5 12L321.5 10.7L317.5 9.8L315.7 9.5L313.5 9.1L309.5 8.8L305.5 8.8L301.5 9.1L299.4 9.5L297.5 9.8L293.5 10.8L289.5 12.2L286.7 13.5L285.5 14.1L281.5 16.3L279.8 17.5L277.5 19.1L274.4 21.5L273.5 22.3L269.8 25.5L269.5 25.8L265.7 29.5L265.5 29.7L261.7 33.5L261.5 33.7L257.8 37.5L257.5 37.9L254 41.5L253.5 42L249.9 45.5L249.5 45.9L245.5 49.2L245.1 49.5L241.5 51.9L238.2 53.5L237.5 53.8L233.5 55.2L229.5 55.9L225.5 56.1L221.5 56L217.5 55.6L213.5 55.1L209.5 54.5L205.5 54.1L201.5 53.7L197.5 53.5L197.1 53.5L193.5 53.4L189.5 53.4L185.9 53.5L185.5 53.5L181.5 53.8L177.5 54.3L173.5 55.1L169.5 56.1L165.7 57.5L165.5 57.6L161.5 59.6L158.3 61.5L157.5 62.1L153.5 65.2L153.2 65.5L149.5 69.2L149.3 69.5L146.2 73.5L145.5 74.6L143.7 77.5L142.1 81.5L141.5 84.4L141.2 85.5L141.3 89.5L141.5 90L142.5 93.5L144.7 97.5L145.5 98.4L148 101.5L149.5 102.9L152.4 105.5L153.5 106.3L157.5 109.2L157.8 109.5L161.5 111.8L164.4 113.5L165.5 114.1L169.5 116.2L172.1 117.5L173.5 118.1L177.5 119.9L180.9 121.5L181.5 121.7L185.5 123.5L189.5 125.3L189.9 125.5L193.5 127L197.5 128.8L199 129.5L201.5 130.7L205.5 132.6L207.2 133.5L209.5 134.8L213.5 137.1L214.1 137.5L217.5 139.7L220.1 141.5L221.5 142.5L225.3 145.5L225.5 145.6L229.5 149L230.1 149.5L233.5 152.5L234.6 153.5L237.5 156.2L238.9 157.5L241.5 159.8L243.4 161.5L245.5 163.3L248 165.5L249.5 166.7L252.9 169.5L253.5 170L257.5 173.2L257.9 173.5L261.5 176.3L263 177.5L265.5 179.6L267.7 181.5L269.5 183.1L272.1 185.5L273.5 186.9L276 189.5L277.5 191.2L279.6 193.5L281.5 195.9L282.8 197.5L285.5 201.1L285.8 201.5L288.9 205.5L289.5 206.2L292.4 209.5L293.5 210.6L296.7 213.5L297.5 214.1L301.5 216.7L303.4 217.5L305.5 218.3L309.5 219.2L313.5 219.6L317.5 219.4L321.5 218.9L325.5 218.1Z" transform="translate(60 60)" fill="#5470c6" fill-opacity="0.5" ecmeta_series_index="0" ecmeta_data_index="299" ecmeta_ssr_type="chart" class="zr0-cls-1"></path>
<path d="M327.4 217.5L329.5 216.8L333.5 215.2L336.6 213.5L337.5 213L341.5 210.3L342.6 209.5L345.5 207.2L347.5 205.5L349.5 203.7L351.8 201.5L353.5 199.9L355.8 197.5L357.5 195.7L359.6 193.5L361.5 191.5L363.3 189.5L365.5 187.2L367 185.5L369.5 182.9L370.8 181.5L373.5 178.7L374.7 177.5L377.5 174.8L378.9 173.5L381.5 171.2L383.5 169.5L385.5 167.9L388.6 165.5L389.5 164.8L393.5 162L394.2 161.5L397.5 159.3L400.4 157.5L401.5 156.9L405.5 154.5L407.4 153.5L409.5 152.3L413.5 150.1L414.6 149.5L417.5 147.8L421.3 145.5L421.5 145.4L425.5 142.5L426.8 141.5L429.5 139L430.9 137.5L433.5 134.1L433.9 133.5L435.9 129.5L437.1 125.5L437.5 122.9L437.7 121.5L437.5 117.5L437.5 117.2L436.8 113.5L435.4 109.5L433.5 105.5L433.5 105.5L431.1 101.5L429.5 99.3L428.2 97.5L425.5 94.1L425 93.5L421.5 89.5L421.5 89.5L417.8 85.5L417.5 85.1L414 81.5L413.5 80.9L410.1 77.5L409.5 76.9L406.1 73.5L405.5 72.9L401.9 69.5L401.5 69.1L397.6 65.5L397.5 65.4L393.5 61.7L393.3 61.5L389.5 58.1L388.8 57.5L385.5 54.6L384.3 53.5L381.5 51.1L379.6 49.5L377.5 47.7L374.9 45.5L373.5 44.3L370.1 41.5L369.5 41L365.5 37.8L365.1 37.5L361.5 34.6L360 33.5L357.5 31.5L354.8 29.5L353.5 28.5L349.5 25.6L349.3 25.5L345.5 22.8L343.5 21.5L341.5 20.1L337.5 17.7L337.1 17.5L333.5 15.5L329.5 13.6L329.1 13.5L325.5 12L321.5 10.7L317.5 9.8L315.7 9.5L313.5 9.1L309.5 8.8L305.5 8.8L301.5 9.1L299.4 9.5L297.5 9.8L293.5 10.8L289.5 12.2L286.7 13.5L285.5 14.1L281.5 16.3L279.8 17.5L277.5 19.1L274.4 21.5L273.5 22.3L269.8 25.5L269.5 25.8L265.7 29.5L265.5 29.7L261.7 33.5L261.5 33.7L257.8 37.5L257.5 37.9L254 41.5L253.5 42L249.9 45.5L249.5 45.9L245.5 49.2L245.1 49.5L241.5 51.9L238.2 53.5L237.5 53.8L233.5 55.2L229.5 55.9L225.5 56.1L221.5 56L217.5 55.6L213.5 55.1L209.5 54.5L205.5 54.1L201.5 53.7L197.5 53.5L197.1 53.5L193.5 53.4L189.5 53.4L185.9 53.5L185.5 53.5L181.5 53.8L177.5 54.3L173.5 55.1L169.5 56.1L165.7 57.5L165.5 57.6L161.5 59.6L158.3 61.5L157.5 62.1L153.5 65.2L153.2 65.5L149.5 69.2L149.3 69.5L146.2 73.5L145.5 74.6L143.7 77.5L142.1 81.5L141.5 84.4L141.2 85.5L141.3 89.5L141.5 90L142.5 93.5L144.7 97.5L145.5 98.4L148 101.5L149.5 102.9L152.4 105.5L153.5 106.3L157.5 109.2L157.8 109.5L161.5 111.8L164.4 113.5L165.5 114.1L169.5 116.2L172.1 117.5L173.5 118.1L177.5 119.9L180.9 121.5L181.5 121.7L185.5 123.5L189.5 125.3L189.9 125.5L193.5 127L197.5 128.8L199 129.5L201.5 130.7L205.5 132.6L207.2 133.5L209.5 134.8L213.5 137.1L214.1 137.5L217.5 139.7L220.1 141.5L221.5 142.5L225.3 145.5L225.5 145.6L229.5 149L230.1 149.5L233.5 152.5L234.6 153.5L237.5 156.2L238.9 157.5L241.5 159.8L243.4 161.5L245.5 163.3L248 165.5L249.5 166.7L252.9 169.5L253.5 170L257.5 173.2L257.9 173.5L261.5 176.3L263 177.5L265.5 179.6L267.7 181.5L269.5 183.1L272.1 185.5L273.5 186.9L276 189.5L277.5 191.2L279.6 193.5L281.5 195.9L282.8 197.5L285.5 201.1L285.8 201.5L288.9 205.5L289.5 206.2L292.4 209.5L293.5 210.6L296.7 213.5L297.5 214.1L301.5 216.7L303.4 217.5L305.5 218.3L309.5 219.2L313.5 219.6L317.5 219.4L321.5 218.9L325.5 218.1Z" transform="translate(60 60)" fill="none" pointer-events="visible" stroke="#5470c6" stroke-opacity="0.5" ecmeta_series_index="0" ecmeta_data_index="299" ecmeta_ssr_type="chart" class="zr0-cls-2"></path>
<path d="M325.9 177.5L329.5 177L333.5 176L337.5 174.6L339.9 173.5L341.5 172.8L345.5 170.7L347.3 169.5L349.5 168.2L353.5 165.6L353.6 165.5L357.5 162.8L359.3 161.5L361.5 160L365 157.5L365.5 157.2L369.5 154.4L370.8 153.5L373.5 151.7L376.7 149.5L377.5 149L381.5 146.2L382.5 145.5L385.5 143.3L387.9 141.5L389.5 140.3L393 137.5L393.5 137.1L397.5 133.6L397.6 133.5L401.5 129.5L401.5 129.5L404.6 125.5L405.5 124.1L407 121.5L408.6 117.5L409.3 113.5L409.4 109.5L408.8 105.5L407.8 101.5L406.2 97.5L405.5 96.2L404.2 93.5L401.8 89.5L401.5 89L399.2 85.5L397.5 83.2L396.3 81.5L393.5 78L393.1 77.5L389.7 73.5L389.5 73.2L386.2 69.5L385.5 68.8L382.4 65.5L381.5 64.6L378.3 61.5L377.5 60.7L374.1 57.5L373.5 57L369.6 53.5L369.5 53.4L365.5 50L364.9 49.5L361.5 46.7L360 45.5L357.5 43.5L354.8 41.5L353.5 40.5L349.5 37.6L349.3 37.5L345.5 34.9L343.4 33.5L341.5 32.2L337.5 29.8L336.8 29.5L333.5 27.7L329.5 25.8L328.7 25.5L325.5 24.2L321.5 22.9L317.5 22L313.9 21.5L313.5 21.4L309.5 21.2L305.5 21.4L305 21.5L301.5 22L297.5 23L293.5 24.5L291.3 25.5L289.5 26.4L285.5 28.8L284.6 29.5L281.5 31.8L279.6 33.5L277.5 35.5L275.5 37.5L273.5 39.7L272 41.5L269.5 44.7L268.9 45.5L265.9 49.5L265.5 50.1L263.1 53.5L261.5 55.8L260.2 57.5L257.5 61.3L257.3 61.5L254.2 65.5L253.5 66.4L250.6 69.5L249.5 70.8L246.6 73.5L245.5 74.6L241.6 77.5L241.5 77.6L237.5 80L233.5 81.4L233.2 81.5L229.5 82.2L225.5 82.2L221.9 81.5L221.5 81.4L217.5 80.5L213.5 79.3L209.5 78.2L206 77.5L205.5 77.4L201.5 77.1L197.5 77.2L195 77.5L193.5 77.8L189.5 79.2L185.6 81.5L185.5 81.7L183.5 85.5L184 89.5L185.5 91.8L186.6 93.5L189.5 95.9L191.5 97.5L193.5 98.6L197.5 100.9L198.7 101.5L201.5 102.7L205.5 104.4L208.2 105.5L209.5 106L213.5 107.5L217.5 109.3L217.8 109.5L221.5 111.3L224.7 113.5L225.5 114L229.5 117.2L229.8 117.5L233.5 121L233.9 121.5L237.5 125.2L237.7 125.5L241.5 129.4L241.5 129.5L245.4 133.5L245.5 133.6L249.3 137.5L249.5 137.6L253.3 141.5L253.5 141.6L257.5 145.5L257.5 145.5L261.5 149.1L261.9 149.5L265.5 152.6L266.6 153.5L269.5 155.8L271.8 157.5L273.5 158.7L277.5 161.4L277.6 161.5L281.5 163.9L284.3 165.5L285.5 166.2L289.5 168.3L291.8 169.5L293.5 170.4L297.5 172.2L300.7 173.5L301.5 173.8L305.5 175.2L309.5 176.3L313.5 177.1L316.9 177.5L317.5 177.6L321.5 177.7L325.5 177.5Z" transform="translate(60 60)" fill="rgb(175, 203, 109)" fill-opacity="0.6" ecmeta_series_index="0" ecmeta_data_index="299" ecmeta_ssr_type="chart" class="zr0-cls-3"></path>
<path d="M325.9 177.5L329.5 177L333.5 176L337.5 174.6L339.9 173.5L341.5 172.8L345.5 170.7L347.3 169.5L349.5 168.2L353.5 165.6L353.6 165.5L357.5 162.8L359.3 161.5L361.5 160L365 157.5L365.5 157.2L369.5 154.4L370.8 153.5L373.5 151.7L376.7 149.5L377.5 149L381.5 146.2L382.5 145.5L385.5 143.3L387.9 141.5L389.5 140.3L393 137.5L393.5 137.1L397.5 133.6L397.6 133.5L401.5 129.5L401.5 129.5L404.6 125.5L405.5 124.1L407 121.5L408.6 117.5L409.3 113.5L409.4 109.5L408.8 105.5L407.8 101.5L406.2 97.5L405.5 96.2L404.2 93.5L401.8 89.5L401.5 89L399.2 85.5L397.5 83.2L396.3 81.5L393.5 78L393.1 77.5L389.7 73.5L389.5 73.2L386.2 69.5L385.5 68.8L382.4 65.5L381.5 64.6L378.3 61.5L377.5 60.7L374.1 57.5L373.5 57L369.6 53.5L369.5 53.4L365.5 50L364.9 49.5L361.5 46.7L360 45.5L357.5 43.5L354.8 41.5L353.5 40.5L349.5 37.6L349.3 37.5L345.5 34.9L343.4 33.5L341.5 32.2L337.5 29.8L336.8 29.5L333.5 27.7L329.5 25.8L328.7 25.5L325.5 24.2L321.5 22.9L317.5 22L313.9 21.5L313.5 21.4L309.5 21.2L305.5 21.4L305 21.5L301.5 22L297.5 23L293.5 24.5L291.3 25.5L289.5 26.4L285.5 28.8L284.6 29.5L281.5 31.8L279.6 33.5L277.5 35.5L275.5 37.5L273.5 39.7L272 41.5L269.5 44.7L268.9 45.5L265.9 49.5L265.5 50.1L263.1 53.5L261.5 55.8L260.2 57.5L257.5 61.3L257.3 61.5L254.2 65.5L253.5 66.4L250.6 69.5L249.5 70.8L246.6 73.5L245.5 74.6L241.6 77.5L241.5 77.6L237.5 80L233.5 81.4L233.2 81.5L229.5 82.2L225.5 82.2L221.9 81.5L221.5 81.4L217.5 80.5L213.5 79.3L209.5 78.2L206 77.5L205.5 77.4L201.5 77.1L197.5 77.2L195 77.5L193.5 77.8L189.5 79.2L185.6 81.5L185.5 81.7L183.5 85.5L184 89.5L185.5 91.8L186.6 93.5L189.5 95.9L191.5 97.5L193.5 98.6L197.5 100.9L198.7 101.5L201.5 102.7L205.5 104.4L208.2 105.5L209.5 106L213.5 107.5L217.5 109.3L217.8 109.5L221.5 111.3L224.7 113.5L225.5 114L229.5 117.2L229.8 117.5L233.5 121L233.9 121.5L237.5 125.2L237.7 125.5L241.5 129.4L241.5 129.5L245.4 133.5L245.5 133.6L249.3 137.5L249.5 137.6L253.3 141.5L253.5 141.6L257.5 145.5L257.5 145.5L261.5 149.1L261.9 149.5L265.5 152.6L266.6 153.5L269.5 155.8L271.8 157.5L273.5 158.7L277.5 161.4L277.6 161.5L281.5 163.9L284.3 165.5L285.5 166.2L289.5 168.3L291.8 169.5L293.5 170.4L297.5 172.2L300.7 173.5L301.5 173.8L305.5 175.2L309.5 176.3L313.5 177.1L316.9 177.5L317.5 177.6L321.5 177.7L325.5 177.5Z" transform="translate(60 60)" fill="none" pointer-events="visible" stroke="rgb(175, 203, 109)" stroke-opacity="0.5" ecmeta_series_index="0" ecmeta_data_index="299" ecmeta_ssr_type="chart" class="zr0-cls-2"></path>
<path d="M333.7 153.5L337.5 152.6L341.5 151.4L345.5 149.9L346.5 149.5L349.5 148.2L353.5 146.2L354.8 145.5L357.5 144L361.5 141.5L361.5 141.5L365.5 138.9L367.4 137.5L369.5 136L372.7 133.5L373.5 132.8L377.3 129.5L377.5 129.3L381.2 125.5L381.5 125.1L384.3 121.5L385.5 119.6L386.8 117.5L388.5 113.5L389.5 109.7L389.5 109.5L390 105.5L389.9 101.5L389.5 99.4L389.2 97.5L388 93.5L386.4 89.5L385.5 87.7L384.4 85.5L382 81.5L381.5 80.8L379.2 77.5L377.5 75.3L376.1 73.5L373.5 70.4L372.7 69.5L369.5 66L369 65.5L365.5 62.1L364.9 61.5L361.5 58.4L360.5 57.5L357.5 55L355.6 53.5L353.5 51.8L350.4 49.5L349.5 48.8L345.5 46L344.8 45.5L341.5 43.3L338.5 41.5L337.5 40.9L333.5 38.8L330.7 37.5L329.5 36.9L325.5 35.4L321.5 34.3L317.7 33.5L317.5 33.5L313.5 33L309.5 33L305.6 33.5L305.5 33.5L301.5 34.5L297.5 35.9L294.4 37.5L293.5 38L289.5 40.7L288.6 41.5L285.5 44.4L284.4 45.5L281.5 49.1L281.2 49.5L278.4 53.5L277.5 55L276 57.5L273.8 61.5L273.5 62.2L271.8 65.5L269.8 69.5L269.5 70.3L268 73.5L266.3 77.5L265.5 79.7L264.8 81.5L263.5 85.5L262.5 89.5L261.8 93.5L261.5 96.4L261.4 97.5L261.2 101.5L261.2 105.5L261.5 108.5L261.6 109.5L262.3 113.5L263.5 117.5L265.3 121.5L265.5 121.9L267.6 125.5L269.5 128.1L270.5 129.5L273.5 132.7L274.2 133.5L277.5 136.5L278.7 137.5L281.5 139.8L283.8 141.5L285.5 142.7L289.5 145.3L289.9 145.5L293.5 147.6L297.3 149.5L297.5 149.6L301.5 151.3L305.5 152.6L308.9 153.5L309.5 153.6L313.5 154.3L317.5 154.7L321.5 154.8L325.5 154.7L329.5 154.2L333.5 153.5Z" transform="translate(60 60)" fill="rgb(220, 201, 96)" fill-opacity="0.7" ecmeta_series_index="0" ecmeta_data_index="299" ecmeta_ssr_type="chart" class="zr0-cls-4"></path>
<path d="M333.7 153.5L337.5 152.6L341.5 151.4L345.5 149.9L346.5 149.5L349.5 148.2L353.5 146.2L354.8 145.5L357.5 144L361.5 141.5L361.5 141.5L365.5 138.9L367.4 137.5L369.5 136L372.7 133.5L373.5 132.8L377.3 129.5L377.5 129.3L381.2 125.5L381.5 125.1L384.3 121.5L385.5 119.6L386.8 117.5L388.5 113.5L389.5 109.7L389.5 109.5L390 105.5L389.9 101.5L389.5 99.4L389.2 97.5L388 93.5L386.4 89.5L385.5 87.7L384.4 85.5L382 81.5L381.5 80.8L379.2 77.5L377.5 75.3L376.1 73.5L373.5 70.4L372.7 69.5L369.5 66L369 65.5L365.5 62.1L364.9 61.5L361.5 58.4L360.5 57.5L357.5 55L355.6 53.5L353.5 51.8L350.4 49.5L349.5 48.8L345.5 46L344.8 45.5L341.5 43.3L338.5 41.5L337.5 40.9L333.5 38.8L330.7 37.5L329.5 36.9L325.5 35.4L321.5 34.3L317.7 33.5L317.5 33.5L313.5 33L309.5 33L305.6 33.5L305.5 33.5L301.5 34.5L297.5 35.9L294.4 37.5L293.5 38L289.5 40.7L288.6 41.5L285.5 44.4L284.4 45.5L281.5 49.1L281.2 49.5L278.4 53.5L277.5 55L276 57.5L273.8 61.5L273.5 62.2L271.8 65.5L269.8 69.5L269.5 70.3L268 73.5L266.3 77.5L265.5 79.7L264.8 81.5L263.5 85.5L262.5 89.5L261.8 93.5L261.5 96.4L261.4 97.5L261.2 101.5L261.2 105.5L261.5 108.5L261.6 109.5L262.3 113.5L263.5 117.5L265.3 121.5L265.5 121.9L267.6 125.5L269.5 128.1L270.5 129.5L273.5 132.7L274.2 133.5L277.5 136.5L278.7 137.5L281.5 139.8L283.8 141.5L285.5 142.7L289.5 145.3L289.9 145.5L293.5 147.6L297.3 149.5L297.5 149.6L301.5 151.3L305.5 152.6L308.9 153.5L309.5 153.6L313.5 154.3L317.5 154.7L321.5 154.8L325.5 154.7L329.5 154.2L333.5 153.5Z" transform="translate(60 60)" fill="none" pointer-events="visible" stroke="rgb(220, 201, 96)" stroke-opacity="0.5" ecmeta_series_index="0" ecmeta_data_index="299" ecmeta_ssr_type="chart" class="zr0-cls-2"></path>
<path d="M335.9 137.5L337.5 137.2L341.5 136.1L345.5 134.7L348.3 133.5L349.5 132.9L353.5 130.8L355.5 129.5L357.5 128.2L361 125.5L361.5 125.1L365.4 121.5L365.5 121.3L368.8 117.5L369.5 116.5L371.4 113.5L373.3 109.5L373.5 108.7L374.4 105.5L374.9 101.5L374.8 97.5L374.1 93.5L373.5 91.7L372.8 89.5L371.1 85.5L369.5 82.6L368.9 81.5L366.2 77.5L365.5 76.6L363.1 73.5L361.5 71.7L359.5 69.5L357.5 67.5L355.4 65.5L353.5 63.7L350.9 61.5L349.5 60.4L345.8 57.5L345.5 57.3L341.5 54.5L339.9 53.5L337.5 52L333.5 49.9L332.6 49.5L329.5 48.1L325.5 46.7L321.5 45.7L320.4 45.5L317.5 45.1L313.5 44.9L309.5 45.3L308.7 45.5L305.5 46.3L301.5 48L299 49.5L297.5 50.5L294.1 53.5L293.5 54.1L290.6 57.5L289.5 59L287.9 61.5L285.7 65.5L285.5 65.9L283.8 69.5L282.3 73.5L281.5 76L281 77.5L280 81.5L279.4 85.5L279 89.5L279 93.5L279.2 97.5L279.7 101.5L280.5 105.5L281.5 109.1L281.6 109.5L283.1 113.5L285.1 117.5L285.5 118.1L287.9 121.5L289.5 123.4L291.5 125.5L293.5 127.3L296.2 129.5L297.5 130.4L301.5 132.8L302.7 133.5L305.5 134.8L309.5 136.3L313.5 137.4L314.2 137.5L317.5 138.1L321.5 138.5L325.5 138.6L329.5 138.4L333.5 137.9Z" transform="translate(60 60)" fill="rgb(248, 186, 90)" fill-opacity="0.8" ecmeta_series_index="0" ecmeta_data_index="299" ecmeta_ssr_type="chart" class="zr0-cls-5"></path>
<path d="M335.9 137.5L337.5 137.2L341.5 136.1L345.5 134.7L348.3 133.5L349.5 132.9L353.5 130.8L355.5 129.5L357.5 128.2L361 125.5L361.5 125.1L365.4 121.5L365.5 121.3L368.8 117.5L369.5 116.5L371.4 113.5L373.3 109.5L373.5 108.7L374.4 105.5L374.9 101.5L374.8 97.5L374.1 93.5L373.5 91.7L372.8 89.5L371.1 85.5L369.5 82.6L368.9 81.5L366.2 77.5L365.5 76.6L363.1 73.5L361.5 71.7L359.5 69.5L357.5 67.5L355.4 65.5L353.5 63.7L350.9 61.5L349.5 60.4L345.8 57.5L345.5 57.3L341.5 54.5L339.9 53.5L337.5 52L333.5 49.9L332.6 49.5L329.5 48.1L325.5 46.7L321.5 45.7L320.4 45.5L317.5 45.1L313.5 44.9L309.5 45.3L308.7 45.5L305.5 46.3L301.5 48L299 49.5L297.5 50.5L294.1 53.5L293.5 54.1L290.6 57.5L289.5 59L287.9 61.5L285.7 65.5L285.5 65.9L283.8 69.5L282.3 73.5L281.5 76L281 77.5L280 81.5L279.4 85.5L279 89.5L279 93.5L279.2 97.5L279.7 101.5L280.5 105.5L281.5 109.1L281.6 109.5L283.1 113.5L285.1 117.5L285.5 118.1L287.9 121.5L289.5 123.4L291.5 125.5L293.5 127.3L296.2 129.5L297.5 130.4L301.5 132.8L302.7 133.5L305.5 134.8L309.5 136.3L313.5 137.4L314.2 137.5L317.5 138.1L321.5 138.5L325.5 138.6L329.5 138.4L333.5 137.9Z" transform="translate(60 60)" fill="none" pointer-events="visible" stroke="rgb(248, 186, 90)" stroke-opacity="0.5" ecmeta_series_index="0" ecmeta_data_index="299" ecmeta_ssr_type="chart" class="zr0-cls-2"></path>
<path d="M340.5 121.5L341.5 121.2L345.5 119.3L348.4 117.5L349.5 116.7L353.2 113.5L353.5 113.2L356.4 109.5L357.5 107.6L358.5 105.5L359.8 101.5L360.2 97.5L359.9 93.5L358.9 89.5L357.5 86.1L357.2 85.5L354.9 81.5L353.5 79.5L351.9 77.5L349.5 74.7L348.4 73.5L345.5 70.8L344 69.5L341.5 67.4L338.8 65.5L337.5 64.6L333.5 62.4L331.6 61.5L329.5 60.6L325.5 59.3L321.5 58.6L317.5 58.4L313.5 58.9L309.5 60.2L307.1 61.5L305.5 62.5L302.1 65.5L301.5 66.2L299 69.5L297.5 72.1L296.8 73.5L295.2 77.5L294.2 81.5L293.6 85.5L293.5 87.6L293.4 89.5L293.5 90.2L293.8 93.5L294.6 97.5L295.7 101.5L297.4 105.5L297.5 105.7L299.6 109.5L301.5 112.1L302.7 113.5L305.5 116.2L307.1 117.5L309.5 119.1L313.5 121.1L314.6 121.5L317.5 122.4L321.5 123.3L325.5 123.7L329.5 123.7L333.5 123.3L337.5 122.4Z" transform="translate(60 60)" fill="rgb(243, 144, 96)" fill-opacity="0.8999999999999999" ecmeta_series_index="0" ecmeta_data_index="299" ecmeta_ssr_type="chart" class="zr0-cls-6"></path>
<path d="M340.5 121.5L341.5 121.2L345.5 119.3L348.4 117.5L349.5 116.7L353.2 113.5L353.5 113.2L356.4 109.5L357.5 107.6L358.5 105.5L359.8 101.5L360.2 97.5L359.9 93.5L358.9 89.5L357.5 86.1L357.2 85.5L354.9 81.5L353.5 79.5L351.9 77.5L349.5 74.7L348.4 73.5L345.5 70.8L344 69.5L341.5 67.4L338.8 65.5L337.5 64.6L333.5 62.4L331.6 61.5L329.5 60.6L325.5 59.3L321.5 58.6L317.5 58.4L313.5 58.9L309.5 60.2L307.1 61.5L305.5 62.5L302.1 65.5L301.5 66.2L299 69.5L297.5 72.1L296.8 73.5L295.2 77.5L294.2 81.5L293.6 85.5L293.5 87.6L293.4 89.5L293.5 90.2L293.8 93.5L294.6 97.5L295.7 101.5L297.4 105.5L297.5 105.7L299.6 109.5L301.5 112.1L302.7 113.5L305.5 116.2L307.1 117.5L309.5 119.1L313.5 121.1L314.6 121.5L317.5 122.4L321.5 123.3L325.5 123.7L329.5 123.7L333.5 123.3L337.5 122.4Z" transform="translate(60 60)" fill="none" pointer-events="visible" stroke="rgb(243, 144, 96)" stroke-opacity="0.5" ecmeta_series_index="0" ecmeta_data_index="299" ecmeta_ssr_type="chart" class="zr0-cls-2"></path>
<path d="M336.3 101.5L337.5 100.4L339.4 97.5L340.2 93.5L339.5 89.5L337.6 85.5L337.5 85.4L333.8 81.5L333.5 81.3L329.5 79L325.5 77.8L321.5 77.9L317.5 79.7L315.5 81.5L313.5 84.8L313.2 85.5L312.8 89.5L313.5 93.5L313.5 93.5L315.7 97.5L317.5 99.6L319.9 101.5L321.5 102.5L325.5 103.8L329.5 104L333.5 103Z" transform="translate(60 60)" fill="#ee6666" ecmeta_series_index="0" ecmeta_data_index="299" ecmeta_ssr_type="chart" class="zr0-cls-7"></path>
<path d="M336.3 101.5L337.5 100.4L339.4 97.5L340.2 93.5L339.5 89.5L337.6 85.5L337.5 85.4L333.8 81.5L333.5 81.3L329.5 79L325.5 77.8L321.5 77.9L317.5 79.7L315.5 81.5L313.5 84.8L313.2 85.5L312.8 89.5L313.5 93.5L313.5 93.5L315.7 97.5L317.5 99.6L319.9 101.5L321.5 102.5L325.5 103.8L329.5 104L333.5 103Z" transform="translate(60 60)" fill="none" pointer-events="visible" stroke="#ee6666" stroke-opacity="0.5" ecmeta_series_index="0" ecmeta_data_index="299" ecmeta_ssr_type="chart" class="zr0-cls-2"></path>
<style ><![CDATA[
.zr0-cls-0:hover {
pointer-events:none;
}
.zr0-cls-1:hover {
cursor:pointer;
fill:rgba(92,123,217,1);
}
.zr0-cls-2:hover {
cursor:pointer;
}
.zr0-cls-3:hover {
cursor:pointer;
fill:rgba(192,223,119,1);
}
.zr0-cls-4:hover {
cursor:pointer;
fill:rgba(242,221,105,1);
}
.zr0-cls-5:hover {
cursor:pointer;
fill:rgba(255,204,99,1);
}
.zr0-cls-6:hover {
cursor:pointer;
fill:rgba(255,158,105,1);
}
.zr0-cls-7:hover {
cursor:pointer;
fill:rgba(255,112,112,1);
}

]]>

</style>
</svg>