<svg width="600" height="400" xmlns="http://www.w3.org/2000/svg" xmlns:xlink="http://www.w3.org/1999/xlink" version="1.1" baseProfile="full" viewBox="0 0 600 400">
<rect width="600" height="400" x="0" y="0" fill="#fff"></rect>
<path d="M60 330.5L540 330.5" fill="none" pointer-events="visible" stroke="#E0E6F1" class="zr0-cls-0"></path>
<path d="M60 262.5L540 262.5" fill="none" pointer-events="visible" stroke="#E0E6F1" class="zr0-cls-0"></path>
<path d="M60 195.5L540 195.5" fill="none" pointer-events="visible" stroke="#E0E6F1" class="zr0-cls-0"></path>
<path d="M60 127.5L540 127.5" fill="none" pointer-events="visible" stroke="#E0E6F1" class="zr0-cls-0"></path>
<path d="M60 60.5L540 60.5" fill="none" pointer-events="visible" stroke="#E0E6F1" class="zr0-cls-0"></path>
<path d="M60.5 60L60.5 330" fill="none" pointer-events="visible" stroke="#E0E6F1" stroke-opacity="0.8" stroke-dasharray="4,2" class="zr0-cls-0"></path>
<path d="M60.5 60L60.5 330" fill="none" pointer-events="visible" stroke="#E0E6F1" stroke-opacity="0.8" stroke-dasharray="4,2" class="zr0-cls-0"></path>
<path d="M120.5 60L120.5 330" fill="none" pointer-events="visible" stroke="#E0E6F1" stroke-opacity="0.8" stroke-dasharray="4,2" class="zr0-cls-0"></path>
<path d="M180.5 60L180.5 330" fill="none" pointer-events="visible" stroke="#E0E6F1" stroke-opacity="0.8" stroke-dasharray="4,2" class="zr0-cls-0"></path>
<path d="M240.5 60L240.5 330" fill="none" pointer-events="visible" stroke="#E0E6F1" stroke-opacity="0.8" stroke-dasharray="4,2" class="zr0-cls-0"></path>
<path d="M300.5 60L300.5 330" fill="none" pointer-events="visible" stroke="#E0E6F1" stroke-opacity="0.8" stroke-dasharray="4,2" class="zr0-cls-0"></path>
<path d="M360.5 60L360.5 330" fill="none" pointer-events="visible" stroke="#E0E6F1" stroke-opacity="0.8" stroke-dasharray="4,2" class="zr0-cls-0"></path>
<path d="M420.5 60L420.5 330" fill="none" pointer-events="visible" stroke="#E0E6F1" stroke-opacity="0.8" stroke-dasharray="4,2" class="zr0-cls-0"></path>
<path d="M480.5 60L480.5 330" fill="none" pointer-events="visible" stroke="#E0E6F1" stroke-opacity="0.8" stroke-dasharray="4,2" class="zr0-cls-0"></path>
<path d="M540.5 60L540.5 330" fill="none" pointer-events="visible" stroke="#E0E6F1" stroke-opacity="0.8" stroke-dasharray="4,2" class="zr0-cls-0"></path>
<path d="M60.5 330L60.5 60" fill="none" pointer-events="visible" stroke="#ccc" stroke-linecap="round" class="zr0-cls-0"></path>
<text dominant-baseline="central" text-anchor="start" style="font: normal normal 12px sans-serif" y="6" transform="translate(60 338)" fill="#c6c6c6">03:00</text>
<text dominant-baseline="central" text-anchor="start" style="font: normal normal 12px sans-serif" y="6" transform="translate(120 338)" fill="#c6c6c6">04:00</text>
<text dominant-baseline="central" text-anchor="start" style="font: normal normal 12px sans-serif" y="6" transform="translate(180 338)" fill="#c6c6c6">05:00</text>
<text dominant-baseline="central" text-anchor="start" style="font: normal normal 12px sans-serif" y="6" transform="translate(240 338)" fill="#c6c6c6">06:00</text>
<text dominant-baseline="central" text-anchor="start" style="font: normal normal 12px sans-serif" y="6" transform="translate(300 338)" fill="#c6c6c6">07:00</text>
<text dominant-baseline="central" text-anchor="start" style="font: normal normal 12px sans-serif" y="6" transform="translate(360 338)" fill="#c6c6c6">08:00</text>
<text dominant-baseline="central" text-anchor="start" style="font: normal normal 12px sans-serif" y="6" transform="translate(420 338)" fill="#c6c6c6">09:00</text>
<text dominant-baseline="central" text-anchor="start" style="font: normal normal 12px sans-serif" y="6" transform="translate(480 338)" fill="#c6c6c6">10:00</text>
<path d="M79.5 220A9.5 9.5 0 0 1 89 229.5L89 247A9.5 9.5 0 0 1 79.5 256.5A9.5 9.5 0 0 1 70 247L70 229.5A9.5 9.5 0 0 1 79.5 220M95 287.5L114 287.5A10 10 0 0 1 124 297.5L124 314A10 10 0 0 1 114 324L95 324A10 10 0 0 1 85 314L85 297.5A10 10 0 0 1 95 287.5M85 262.5A6 6 0 0 0 79 256.5L85 254.5L85 262.5ZM89 281.5A6 6 0 0 0 95 287.5L89 289.5L89 281.5ZM89 297.5l-4 0l0 -51l4 0ZM130 220L148 220A10 10 0 0 1 158 230L158 246.5A10 10 0 0 1 148 256.5L130 256.5A10 10 0 0 1 120 246.5L120 230A10 10 0 0 1 130 220M114 287.5A6 6 0 0 0 120 281.5L120 289.5L114 287.5ZM130 256.5A6 6 0 0 0 124 262.5L124 254.5L130 256.5ZM124 297.5l-4 0l0 -51l4 0ZM158 287.5A4 4 0 0 1 162 291.5L162 320A4 4 0 0 1 158 324A4 4 0 0 1 154 320L154 291.5A4 4 0 0 1 158 287.5M154 262.5A6 6 0 0 0 148 256.5L154 254.5L154 262.5ZM158 286.5A1 1 0 0 0 159 287.5L158 289.5L158 286.5ZM158 297.5l-4 0l0 -51l4 0ZM164 220A6 6 0 0 1 170 226L170 250.5A6 6 0 0 1 164 256.5A6 6 0 0 1 158 250.5L158 226A6 6 0 0 1 164 220M157 287.5A1 1 0 0 0 158 286.5L158 289.5L157 287.5ZM165 256.5A3 3 0 0 0 162 259.5L162 254.5L165 256.5ZM162 297.5l-4 0l0 -51l4 0ZM172.5 287.5A6.5 6.5 0 0 1 179 294L179 317.5A6.5 6.5 0 0 1 172.5 324A6.5 6.5 0 0 1 166 317.5L166 294A6.5 6.5 0 0 1 172.5 287.5M166 259.5A3 3 0 0 0 163 256.5L166 254.5L166 259.5ZM170 284A3.5 3.5 0 0 0 173.5 287.5L170 289.5L170 284ZM170 297.5l-4 0l0 -51l4 0ZM185 220L217 220A10 10 0 0 1 227 230L227 246.5A10 10 0 0 1 217 256.5L185 256.5A10 10 0 0 1 175 246.5L175 230A10 10 0 0 1 185 220M171.5 287.5A3.5 3.5 0 0 0 175 284L175 289.5L171.5 287.5ZM185 256.5A6 6 0 0 0 179 262.5L179 254.5L185 256.5ZM179 297.5l-4 0l0 -51l4 0ZM233 152.5L244 152.5A10 10 0 0 1 254 162.5L254 179A10 10 0 0 1 244 189L233 189A10 10 0 0 1 223 179L223 162.5A10 10 0 0 1 233 152.5M217 220A6 6 0 0 0 223 214L223 222L217 220ZM233 189A6 6 0 0 0 227 195L227 187L233 189ZM227 230l-4 0l0 -51l4 0ZM233 152.5L244 152.5A10 10 0 0 1 254 162.5L254 179A10 10 0 0 1 244 189L233 189A10 10 0 0 1 223 179L223 162.5A10 10 0 0 1 233 152.5M254 162.5l-31 0l0 16.5l31 0ZM252 85A3.5 3.5 0 0 1 255.5 88.5L255.5 118A3.5 3.5 0 0 1 252 121.5A3.5 3.5 0 0 1 248.5 118L248.5 88.5A3.5 3.5 0 0 1 252 85M243 152.5A6 6 0 0 0 249 146.5L249 154.5L243 152.5ZM254 162.5l-5.5 0l0 -51l5.5 0ZM253.5 220A3.5 3.5 0 0 1 257 223.5L257 253A3.5 3.5 0 0 1 253.5 256.5A3.5 3.5 0 0 1 250 253L250 223.5A3.5 3.5 0 0 1 253.5 220M255.5 230l-5.5 0l0 -118.5l5.5 0ZM256.5 85A3.5 3.5 0 0 1 260 88.5L260 118A3.5 3.5 0 0 1 256.5 121.5A3.5 3.5 0 0 1 253 118L253 88.5A3.5 3.5 0 0 1 256.5 85M252.5 220A0.5 0.5 0 0 0 253 219.5L253 222L252.5 220ZM257.5 121.5A0.5 0.5 0 0 0 257 122L257 119.5L257.5 121.5ZM257 230l-4 0l0 -118.5l4 0ZM266 220L329 220A10 10 0 0 1 339 230L339 246.5A10 10 0 0 1 329 256.5L266 256.5A10 10 0 0 1 256 246.5L256 230A10 10 0 0 1 266 220M256 122A0.5 0.5 0 0 0 255.5 121.5L256 119.5L256 122ZM260 214A6 6 0 0 0 266 220L260 222L260 214ZM260 230l-4 0l0 -118.5l4 0ZM345 152.5L348 152.5A10 10 0 0 1 358 162.5L358 179A10 10 0 0 1 348 189L345 189A10 10 0 0 1 335 179L335 162.5A10 10 0 0 1 345 152.5M329 220A6 6 0 0 0 335 214L335 222L329 220ZM345 189A6 6 0 0 0 339 195L339 187L345 189ZM339 230l-4 0l0 -51l4 0ZM364 220L408 220A10 10 0 0 1 418 230L418 246.5A10 10 0 0 1 408 256.5L364 256.5A10 10 0 0 1 354 246.5L354 230A10 10 0 0 1 364 220M354 195A6 6 0 0 0 348 189L354 187L354 195ZM358 214A6 6 0 0 0 364 220L358 222L358 214ZM358 230l-4 0l0 -51l4 0ZM417.5 152.5A3.5 3.5 0 0 1 421 156L421 185.5A3.5 3.5 0 0 1 417.5 189A3.5 3.5 0 0 1 414 185.5L414 156A3.5 3.5 0 0 1 417.5 152.5M408 220A6 6 0 0 0 414 214L414 222L408 220ZM418.5 189A0.5 0.5 0 0 0 418 189.5L418 187L418.5 189ZM418 230l-4 0l0 -51l4 0ZM419.5 85A3.5 3.5 0 0 1 423 88.5L423 118A3.5 3.5 0 0 1 419.5 121.5A3.5 3.5 0 0 1 416 118L416 88.5A3.5 3.5 0 0 1 419.5 85M421 162.5l-5 0l0 -51l5 0ZM424 220A6 6 0 0 1 430 226L430 250.5A6 6 0 0 1 424 256.5A6 6 0 0 1 418 250.5L418 226A6 6 0 0 1 424 220M423 217.5A2.5 2.5 0 0 0 425.5 220L423 222L423 217.5ZM423 230l-5 0l0 -118.5l5 0ZM436 152.5L441 152.5A10 10 0 0 1 451 162.5L451 179A10 10 0 0 1 441 189L436 189A10 10 0 0 1 426 179L426 162.5A10 10 0 0 1 436 152.5M423 220A3 3 0 0 0 426 217L426 222L423 220ZM436 189A6 6 0 0 0 430 195L430 187L436 189ZM430 230l-4 0l0 -51l4 0ZM457 220L513 220A10 10 0 0 1 523 230L523 246.5A10 10 0 0 1 513 256.5L457 256.5A10 10 0 0 1 447 246.5L447 230A10 10 0 0 1 457 220M447 195A6 6 0 0 0 441 189L447 187L447 195ZM451 214A6 6 0 0 0 457 220L451 222L451 214ZM451 230l-4 0l0 -51l4 0Z" fill="url(#zr0-g0)" fill-opacity="0.25" ecmeta_series_index="0" ecmeta_data_index="19" ecmeta_ssr_type="chart" ecmeta_silent="true" class="zr0-cls-0"></path>
<path d="M252 87A1.5 1.5 0 0 1 253.5 88.5L253.5 118A1.5 1.5 0 0 1 252 119.5A1.5 1.5 0 0 1 250.5 118L250.5 88.5A1.5 1.5 0 0 1 252 87" fill="#EF8872" ecmeta_series_index="0" ecmeta_data_index="0" ecmeta_ssr_type="chart" class="zr0-cls-1"></path>
<path d="M256.5 87A1.5 1.5 0 0 1 258 88.5L258 118A1.5 1.5 0 0 1 256.5 119.5A1.5 1.5 0 0 1 255 118L255 88.5A1.5 1.5 0 0 1 256.5 87" fill="#EF8872" ecmeta_series_index="0" ecmeta_data_index="1" ecmeta_ssr_type="chart" class="zr0-cls-1"></path>
<path d="M419.5 87A1.5 1.5 0 0 1 421 88.5L421 118A1.5 1.5 0 0 1 419.5 119.5A1.5 1.5 0 0 1 418 118L418 88.5A1.5 1.5 0 0 1 419.5 87" fill="#EF8872" ecmeta_series_index="0" ecmeta_data_index="2" ecmeta_ssr_type="chart" class="zr0-cls-1"></path>
<path d="M233 154.5L244 154.5A8 8 0 0 1 252 162.5L252 179A8 8 0 0 1 244 187L233 187A8 8 0 0 1 225 179L225 162.5A8 8 0 0 1 233 154.5" fill="#59AAE1" ecmeta_series_index="0" ecmeta_data_index="3" ecmeta_ssr_type="chart" class="zr0-cls-2"></path>
<path d="M345 154.5L348 154.5A8 8 0 0 1 356 162.5L356 179A8 8 0 0 1 348 187L345 187A8 8 0 0 1 337 179L337 162.5A8 8 0 0 1 345 154.5" fill="#59AAE1" ecmeta_series_index="0" ecmeta_data_index="4" ecmeta_ssr_type="chart" class="zr0-cls-2"></path>
<path d="M417.5 154.5A1.5 1.5 0 0 1 419 156L419 185.5A1.5 1.5 0 0 1 417.5 187A1.5 1.5 0 0 1 416 185.5L416 156A1.5 1.5 0 0 1 417.5 154.5" fill="#59AAE1" ecmeta_series_index="0" ecmeta_data_index="5" ecmeta_ssr_type="chart" class="zr0-cls-2"></path>
<path d="M436 154.5L441 154.5A8 8 0 0 1 449 162.5L449 179A8 8 0 0 1 441 187L436 187A8 8 0 0 1 428 179L428 162.5A8 8 0 0 1 436 154.5" fill="#59AAE1" ecmeta_series_index="0" ecmeta_data_index="6" ecmeta_ssr_type="chart" class="zr0-cls-2"></path>
<path d="M233 154.5L244 154.5A8 8 0 0 1 252 162.5L252 179A8 8 0 0 1 244 187L233 187A8 8 0 0 1 225 179L225 162.5A8 8 0 0 1 233 154.5" fill="#59AAE1" ecmeta_series_index="0" ecmeta_data_index="7" ecmeta_ssr_type="chart" class="zr0-cls-2"></path>
<path d="M79.5 222A7.5 7.5 0 0 1 87 229.5L87 247A7.5 7.5 0 0 1 79.5 254.5A7.5 7.5 0 0 1 72 247L72 229.5A7.5 7.5 0 0 1 79.5 222" fill="#3478F6" ecmeta_series_index="0" ecmeta_data_index="8" ecmeta_ssr_type="chart" class="zr0-cls-3"></path>
<path d="M130 222L148 222A8 8 0 0 1 156 230L156 246.5A8 8 0 0 1 148 254.5L130 254.5A8 8 0 0 1 122 246.5L122 230A8 8 0 0 1 130 222" fill="#3478F6" ecmeta_series_index="0" ecmeta_data_index="9" ecmeta_ssr_type="chart" class="zr0-cls-3"></path>
<path d="M164 222A4 4 0 0 1 168 226L168 250.5A4 4 0 0 1 164 254.5A4 4 0 0 1 160 250.5L160 226A4 4 0 0 1 164 222" fill="#3478F6" ecmeta_series_index="0" ecmeta_data_index="10" ecmeta_ssr_type="chart" class="zr0-cls-3"></path>
<path d="M185 222L217 222A8 8 0 0 1 225 230L225 246.5A8 8 0 0 1 217 254.5L185 254.5A8 8 0 0 1 177 246.5L177 230A8 8 0 0 1 185 222" fill="#3478F6" ecmeta_series_index="0" ecmeta_data_index="11" ecmeta_ssr_type="chart" class="zr0-cls-3"></path>
<path d="M253.5 222A1.5 1.5 0 0 1 255 223.5L255 253A1.5 1.5 0 0 1 253.5 254.5A1.5 1.5 0 0 1 252 253L252 223.5A1.5 1.5 0 0 1 253.5 222" fill="#3478F6" ecmeta_series_index="0" ecmeta_data_index="12" ecmeta_ssr_type="chart" class="zr0-cls-3"></path>
<path d="M266 222L329 222A8 8 0 0 1 337 230L337 246.5A8 8 0 0 1 329 254.5L266 254.5A8 8 0 0 1 258 246.5L258 230A8 8 0 0 1 266 222" fill="#3478F6" ecmeta_series_index="0" ecmeta_data_index="13" ecmeta_ssr_type="chart" class="zr0-cls-3"></path>
<path d="M364 222L408 222A8 8 0 0 1 416 230L416 246.5A8 8 0 0 1 408 254.5L364 254.5A8 8 0 0 1 356 246.5L356 230A8 8 0 0 1 364 222" fill="#3478F6" ecmeta_series_index="0" ecmeta_data_index="14" ecmeta_ssr_type="chart" class="zr0-cls-3"></path>
<path d="M424 222A4 4 0 0 1 428 226L428 250.5A4 4 0 0 1 424 254.5A4 4 0 0 1 420 250.5L420 226A4 4 0 0 1 424 222" fill="#3478F6" ecmeta_series_index="0" ecmeta_data_index="15" ecmeta_ssr_type="chart" class="zr0-cls-3"></path>
<path d="M457 222L513 222A8 8 0 0 1 521 230L521 246.5A8 8 0 0 1 513 254.5L457 254.5A8 8 0 0 1 449 246.5L449 230A8 8 0 0 1 457 222" fill="#3478F6" ecmeta_series_index="0" ecmeta_data_index="16" ecmeta_ssr_type="chart" class="zr0-cls-3"></path>
<path d="M95 289.5L114 289.5A8 8 0 0 1 122 297.5L122 314A8 8 0 0 1 114 322L95 322A8 8 0 0 1 87 314L87 297.5A8 8 0 0 1 95 289.5" fill="#35349D" ecmeta_series_index="0" ecmeta_data_index="17" ecmeta_ssr_type="chart" class="zr0-cls-4"></path>
<path d="M158 289.5A2 2 0 0 1 160 291.5L160 320A2 2 0 0 1 158 322A2 2 0 0 1 156 320L156 291.5A2 2 0 0 1 158 289.5" fill="#35349D" ecmeta_series_index="0" ecmeta_data_index="18" ecmeta_ssr_type="chart" class="zr0-cls-4"></path>
<path d="M172.5 289.5A4.5 4.5 0 0 1 177 294L177 317.5A4.5 4.5 0 0 1 172.5 322A4.5 4.5 0 0 1 168 317.5L168 294A4.5 4.5 0 0 1 172.5 289.5" fill="#35349D" ecmeta_series_index="0" ecmeta_data_index="19" ecmeta_ssr_type="chart" class="zr0-cls-4"></path>
<text dominant-baseline="central" text-anchor="start" style="font: 12px sans-serif" x="65" y="73" fill="#8A8A8A">Awake</text>
<text dominant-baseline="central" text-anchor="start" style="font: 12px sans-serif" x="65" y="140.5" fill="#8A8A8A">REM</text>
<text dominant-baseline="central" text-anchor="start" style="font: 12px sans-serif" x="65" y="208" fill="#8A8A8A">Core</text>
<text dominant-baseline="central" text-anchor="start" style="font: 12px sans-serif" x="65" y="275.5" fill="#8A8A8A">Deep</text>
<defs >
<linearGradient gradientUnits="objectBoundingBox" x1="0" y1="0" x2="0" y2="1" id="zr0-g0">
<stop offset="12.5%" stop-color="#EF8872"></stop>
<stop offset="37.5%" stop-color="#59AAE1"></stop>
<stop offset="62.5%" stop-color="#3478F6"></stop>
<stop offset="87.5%" stop-color="#35349D"></stop>
</linearGradient>
</defs>
<style ><![CDATA[
.zr0-cls-0:hover {
pointer-events:none;
}
.zr0-cls-1:hover {
cursor:pointer;
fill:rgba(255,149,125,1);
}
.zr0-cls-2:hover {
cursor:pointer;
fill:rgba(97,187,247,1);
}
.zr0-cls-3:hover {
cursor:pointer;
fill:rgba(57,132,255,1);
}
.zr0-cls-4:hover {
cursor:pointer;
fill:rgba(58,57,172,1);
}

]]>

</style>
</svg>