<svg width="600" height="400" xmlns="http://www.w3.org/2000/svg" xmlns:xlink="http://www.w3.org/1999/xlink" version="1.1" baseProfile="full" viewBox="0 0 600 400">
<rect width="600" height="400" x="0" y="0" fill="#fff"></rect>
<path d="M90 320.5L540 320.5" fill="none" pointer-events="visible" stroke="#dbdee4" class="zr4-cls-20"></path>
<path d="M90 256.5L540 256.5" fill="none" pointer-events="visible" stroke="#dbdee4" class="zr4-cls-20"></path>
<path d="M90 192.5L540 192.5" fill="none" pointer-events="visible" stroke="#dbdee4" class="zr4-cls-20"></path>
<path d="M90 129.5L540 129.5" fill="none" pointer-events="visible" stroke="#dbdee4" class="zr4-cls-20"></path>
<path d="M90 65.5L540 65.5" fill="none" pointer-events="visible" stroke="#dbdee4" class="zr4-cls-20"></path>
<path d="M90.5 65L90.5 320" fill="none" pointer-events="visible" stroke="#dbdee4" stroke-opacity="0.8" stroke-dasharray="4,2" class="zr4-cls-20"></path>
<path d="M90.5 65L90.5 320" fill="none" pointer-events="visible" stroke="#dbdee4" stroke-opacity="0.8" stroke-dasharray="4,2" class="zr4-cls-20"></path>
<path d="M146.5 65L146.5 320" fill="none" pointer-events="visible" stroke="#dbdee4" stroke-opacity="0.8" stroke-dasharray="4,2" class="zr4-cls-20"></path>
<path d="M202.5 65L202.5 320" fill="none" pointer-events="visible" stroke="#dbdee4" stroke-opacity="0.8" stroke-dasharray="4,2" class="zr4-cls-20"></path>
<path d="M259.5 65L259.5 320" fill="none" pointer-events="visible" stroke="#dbdee4" stroke-opacity="0.8" stroke-dasharray="4,2" class="zr4-cls-20"></path>
<path d="M315.5 65L315.5 320" fill="none" pointer-events="visible" stroke="#dbdee4" stroke-opacity="0.8" stroke-dasharray="4,2" class="zr4-cls-20"></path>
<path d="M371.5 65L371.5 320" fill="none" pointer-events="visible" stroke="#dbdee4" stroke-opacity="0.8" stroke-dasharray="4,2" class="zr4-cls-20"></path>
<path d="M427.5 65L427.5 320" fill="none" pointer-events="visible" stroke="#dbdee4" stroke-opacity="0.8" stroke-dasharray="4,2" class="zr4-cls-20"></path>
<path d="M484.5 65L484.5 320" fill="none" pointer-events="visible" stroke="#dbdee4" stroke-opacity="0.8" stroke-dasharray="4,2" class="zr4-cls-20"></path>
<path d="M540.5 65L540.5 320" fill="none" pointer-events="visible" stroke="#dbdee4" stroke-opacity="0.8" stroke-dasharray="4,2" class="zr4-cls-20"></path>
<path d="M90.5 320L90.5 65" fill="none" pointer-events="visible" stroke="#ccc" stroke-linecap="round" class="zr4-cls-20"></path>
<text dominant-baseline="central" text-anchor="start" style="font: normal normal 12px sans-serif" y="6" transform="translate(90 328)" fill="#c6c6c6">03:00</text>
<text dominant-baseline="central" text-anchor="start" style="font: normal normal 12px sans-serif" y="6" transform="translate(146.25 328)" fill="#c6c6c6">04:00</text>
<text dominant-baseline="central" text-anchor="start" style="font: normal normal 12px sans-serif" y="6" transform="translate(202.5 328)" fill="#c6c6c6">05:00</text>
<text dominant-baseline="central" text-anchor="start" style="font: normal normal 12px sans-serif" y="6" transform="translate(258.75 328)" fill="#c6c6c6">06:00</text>
<text dominant-baseline="central" text-anchor="start" style="font: normal normal 12px sans-serif" y="6" transform="translate(315 328)" fill="#c6c6c6">07:00</text>
<text dominant-baseline="central" text-anchor="start" style="font: normal normal 12px sans-serif" y="6" transform="translate(371.25 328)" fill="#c6c6c6">08:00</text>
<text dominant-baseline="central" text-anchor="start" style="font: normal normal 12px sans-serif" y="6" transform="translate(427.5 328)" fill="#c6c6c6">09:00</text>
<text dominant-baseline="central" text-anchor="start" style="font: normal normal 12px sans-serif" y="6" transform="translate(483.75 328)" fill="#c6c6c6">10:00</text>
<path d="M108.3 217.5A9 9 0 0 1 117.3 226.5L117.3 241.2A9 9 0 0 1 108.3 250.3A9 9 0 0 1 99.3 241.2L99.3 226.5A9 9 0 0 1 108.3 217.5M123.3 281.3L140.1 281.3A10 10 0 0 1 150.1 291.3L150.1 304A10 10 0 0 1 140.1 314L123.3 314A10 10 0 0 1 113.3 304L113.3 291.3A10 10 0 0 1 123.3 281.3M114 256.3A6 6 0 0 0 108 250.3L114 248.3L114 256.3ZM117 275.3A6 6 0 0 0 123 281.2L117 283.3L117 275.3ZM117.3 291.3l-4 0l0 -51l4 0ZM156.1 217.5L172 217.5A10 10 0 0 1 182 227.5L182 240.3A10 10 0 0 1 172 250.3L156.1 250.3A10 10 0 0 1 146.1 240.3L146.1 227.5A10 10 0 0 1 156.1 217.5M141 281.3A6 6 0 0 0 147 275.3L147 283.3L141 281.3ZM156 250.3A6 6 0 0 0 150 256.3L150 248.3L156 250.3ZM150.1 291.3l-4 0l0 -51l4 0ZM181.9 281.3A3.9 3.9 0 0 1 185.8 285.1L185.8 310.1A3.9 3.9 0 0 1 181.9 314A3.9 3.9 0 0 1 178 310.1L178 285.1A3.9 3.9 0 0 1 181.9 281.3M178 256.3A6 6 0 0 0 172 250.3L178 248.3L178 256.3ZM182 280.4A0.9 0.9 0 0 0 182.9 281.3L182 283.3L182 280.4ZM182 291.3l-4 0l0 -51l4 0ZM187.5 217.5A5.8 5.8 0 0 1 193.3 223.3L193.3 244.5A5.8 5.8 0 0 1 187.5 250.3A5.8 5.8 0 0 1 181.8 244.5L181.8 223.3A5.8 5.8 0 0 1 187.5 217.5M181.1 281.3A0.9 0.9 0 0 0 182 280.4L182 283.3L181.1 281.3ZM187.8 250.3A2.8 2.8 0 0 0 185 253L185 248.3L187.8 250.3ZM185.8 291.3l-4 0l0 -51l4 0ZM195.5 281.3A6.2 6.2 0 0 1 201.7 287.5L201.7 307.8A6.2 6.2 0 0 1 195.5 314A6.2 6.2 0 0 1 189.3 307.8L189.3 287.5A6.2 6.2 0 0 1 195.5 281.3M190 253A2.8 2.8 0 0 0 187.3 250.3L190 248.3L190 253ZM193 278A3.2 3.2 0 0 0 196.2 281.3L193 283.3L193 278ZM193.3 291.3l-4 0l0 -51l4 0ZM207.7 217.5L236.7 217.5A10 10 0 0 1 246.7 227.5L246.7 240.3A10 10 0 0 1 236.7 250.3L207.7 250.3A10 10 0 0 1 197.7 240.3L197.7 227.5A10 10 0 0 1 207.7 217.5M194.8 281.3A3.2 3.2 0 0 0 198 278L198 283.3L194.8 281.3ZM207 250.3A6 6 0 0 0 201 256.3L201 248.3L207 250.3ZM201.7 291.3l-4 0l0 -51l4 0ZM252.7 153.8L262 153.8A10 10 0 0 1 272 163.8L272 176.5A10 10 0 0 1 262 186.5L252.7 186.5A10 10 0 0 1 242.7 176.5L242.7 163.8A10 10 0 0 1 252.7 153.8M237 217.5A6 6 0 0 0 243 211.5L243 219.5L237 217.5ZM252 186.5A6 6 0 0 0 246 192.5L246 184.5L252 186.5ZM246.7 227.5l-4 0l0 -51l4 0ZM252.7 153.8L262 153.8A10 10 0 0 1 272 163.8L272 176.5A10 10 0 0 1 262 186.5L252.7 186.5A10 10 0 0 1 242.7 176.5L242.7 163.8A10 10 0 0 1 252.7 153.8M272 163.8l-29.3 0l0 12.8l29.3 0ZM270 90A3.5 3.5 0 0 1 273.5 93.5L273.5 119.3A3.5 3.5 0 0 1 270 122.8A3.5 3.5 0 0 1 266.5 119.3L266.5 93.5A3.5 3.5 0 0 1 270 90M261 153.8A6 6 0 0 0 267 147.8L267 155.8L261 153.8ZM272 163.8l-5.5 0l0 -51l5.5 0ZM271.4 217.5A3.5 3.5 0 0 1 274.9 221L274.9 246.8A3.5 3.5 0 0 1 271.4 250.3A3.5 3.5 0 0 1 267.9 246.8L267.9 221A3.5 3.5 0 0 1 271.4 217.5M273.5 227.5l-5.6 0l0 -114.7l5.6 0ZM274.2 90A3.5 3.5 0 0 1 277.7 93.5L277.7 119.3A3.5 3.5 0 0 1 274.2 122.8A3.5 3.5 0 0 1 270.7 119.3L270.7 93.5A3.5 3.5 0 0 1 274.2 90M270.6 217.5A0.4 0.4 0 0 0 271 217.1L271 219.5L270.6 217.5ZM274.4 122.8A0.4 0.4 0 0 0 274 123.2L274 120.8L274.4 122.8ZM274.9 227.5l-4.2 0l0 -114.7l4.2 0ZM283.6 217.5L341.7 217.5A10 10 0 0 1 351.7 227.5L351.7 240.3A10 10 0 0 1 341.7 250.3L283.6 250.3A10 10 0 0 1 273.6 240.3L273.6 227.5A10 10 0 0 1 283.6 217.5M274 123.2A0.5 0.5 0 0 0 273.5 122.8L274 120.8L274 123.2ZM277 211.5A6 6 0 0 0 283 217.5L277 219.5L277 211.5ZM277.7 227.5l-4.1 0l0 -114.7l4.1 0ZM357.7 153.8L359.5 153.8A10 10 0 0 1 369.5 163.8L369.5 176.5A10 10 0 0 1 359.5 186.5L357.7 186.5A10 10 0 0 1 347.7 176.5L347.7 163.8A10 10 0 0 1 357.7 153.8M342 217.5A6 6 0 0 0 348 211.5L348 219.5L342 217.5ZM357 186.5A6 6 0 0 0 351 192.5L351 184.5L357 186.5ZM351.7 227.5l-4 0l0 -51l4 0ZM375.5 217.5L415.8 217.5A10 10 0 0 1 425.8 227.5L425.8 240.3A10 10 0 0 1 415.8 250.3L375.5 250.3A10 10 0 0 1 365.5 240.3L365.5 227.5A10 10 0 0 1 375.5 217.5M366 192.5A6 6 0 0 0 360 186.5L366 184.5L366 192.5ZM369 211.5A6 6 0 0 0 375 217.5L369 219.5L369 211.5ZM369.5 227.5l-4 0l0 -51l4 0ZM425.2 153.8A3.5 3.5 0 0 1 428.7 157.3L428.7 183A3.5 3.5 0 0 1 425.2 186.5A3.5 3.5 0 0 1 421.7 183L421.7 157.3A3.5 3.5 0 0 1 425.2 153.8M416 217.5A6 6 0 0 0 422 211.5L422 219.5L416 217.5ZM425.5 186.5A0.5 0.5 0 0 0 425 187L425 184.5L425.5 186.5ZM425.8 227.5l-4.1 0l0 -51l4.1 0ZM427 90A3.5 3.5 0 0 1 430.5 93.5L430.5 119.3A3.5 3.5 0 0 1 427 122.8A3.5 3.5 0 0 1 423.5 119.3L423.5 93.5A3.5 3.5 0 0 1 427 90M428.7 163.8l-5.1 0l0 -51l5.1 0ZM431.3 217.5A5.8 5.8 0 0 1 437 223.3L437 244.5A5.8 5.8 0 0 1 431.3 250.3A5.8 5.8 0 0 1 425.5 244.5L425.5 223.3A5.8 5.8 0 0 1 431.3 217.5M430 215.3A2.2 2.2 0 0 0 432.2 217.5L430 219.5L430 215.3ZM430.5 227.5l-5 0l0 -114.7l5 0ZM443 153.8L446.7 153.8A10 10 0 0 1 456.7 163.8L456.7 176.5A10 10 0 0 1 446.7 186.5L443 186.5A10 10 0 0 1 433 176.5L433 163.8A10 10 0 0 1 443 153.8M430.3 217.5A2.8 2.8 0 0 0 433 214.8L433 219.5L430.3 217.5ZM443 186.5A6 6 0 0 0 437 192.5L437 184.5L443 186.5ZM437 227.5l-4 0l0 -51l4 0ZM462.7 217.5L514.2 217.5A10 10 0 0 1 524.2 227.5L524.2 240.3A10 10 0 0 1 514.2 250.3L462.7 250.3A10 10 0 0 1 452.7 240.3L452.7 227.5A10 10 0 0 1 462.7 217.5M453 192.5A6 6 0 0 0 447 186.5L453 184.5L453 192.5ZM456 211.5A6 6 0 0 0 462 217.5L456 219.5L456 211.5ZM456.7 227.5l-4 0l0 -51l4 0Z" fill="url(#zr4-g0)" fill-opacity="0.25" ecmeta_series_index="0" ecmeta_data_index="19" ecmeta_ssr_type="chart" ecmeta_silent="true" class="zr4-cls-20"></path>
<path d="M270 92A1.5 1.5 0 0 1 271.5 93.5L271.5 119.3A1.5 1.5 0 0 1 270 120.8A1.5 1.5 0 0 1 268.5 119.3L268.5 93.5A1.5 1.5 0 0 1 270 92" fill="#EF8872" ecmeta_series_index="0" ecmeta_data_index="0" ecmeta_ssr_type="chart" class="zr4-cls-21"></path>
<path d="M274.2 92A1.5 1.5 0 0 1 275.7 93.5L275.7 119.3A1.5 1.5 0 0 1 274.2 120.8A1.5 1.5 0 0 1 272.7 119.3L272.7 93.5A1.5 1.5 0 0 1 274.2 92" fill="#EF8872" ecmeta_series_index="0" ecmeta_data_index="1" ecmeta_ssr_type="chart" class="zr4-cls-21"></path>
<path d="M427 92A1.5 1.5 0 0 1 428.5 93.5L428.5 119.3A1.5 1.5 0 0 1 427 120.8A1.5 1.5 0 0 1 425.5 119.3L425.5 93.5A1.5 1.5 0 0 1 427 92" fill="#EF8872" ecmeta_series_index="0" ecmeta_data_index="2" ecmeta_ssr_type="chart" class="zr4-cls-21"></path>
<path d="M252.7 155.8L262 155.8A8 8 0 0 1 270 163.8L270 176.5A8 8 0 0 1 262 184.5L252.7 184.5A8 8 0 0 1 244.7 176.5L244.7 163.8A8 8 0 0 1 252.7 155.8" fill="#59AAE1" ecmeta_series_index="0" ecmeta_data_index="3" ecmeta_ssr_type="chart" class="zr4-cls-22"></path>
<path d="M357.7 155.8L359.5 155.8A8 8 0 0 1 367.5 163.8L367.5 176.5A8 8 0 0 1 359.5 184.5L357.7 184.5A8 8 0 0 1 349.7 176.5L349.7 163.8A8 8 0 0 1 357.7 155.8" fill="#59AAE1" ecmeta_series_index="0" ecmeta_data_index="4" ecmeta_ssr_type="chart" class="zr4-cls-22"></path>
<path d="M425.2 155.8A1.5 1.5 0 0 1 426.7 157.3L426.7 183A1.5 1.5 0 0 1 425.2 184.5A1.5 1.5 0 0 1 423.7 183L423.7 157.3A1.5 1.5 0 0 1 425.2 155.8" fill="#59AAE1" ecmeta_series_index="0" ecmeta_data_index="5" ecmeta_ssr_type="chart" class="zr4-cls-22"></path>
<path d="M443 155.8L446.7 155.8A8 8 0 0 1 454.7 163.8L454.7 176.5A8 8 0 0 1 446.7 184.5L443 184.5A8 8 0 0 1 435 176.5L435 163.8A8 8 0 0 1 443 155.8" fill="#59AAE1" ecmeta_series_index="0" ecmeta_data_index="6" ecmeta_ssr_type="chart" class="zr4-cls-22"></path>
<path d="M252.7 155.8L262 155.8A8 8 0 0 1 270 163.8L270 176.5A8 8 0 0 1 262 184.5L252.7 184.5A8 8 0 0 1 244.7 176.5L244.7 163.8A8 8 0 0 1 252.7 155.8" fill="#59AAE1" ecmeta_series_index="0" ecmeta_data_index="7" ecmeta_ssr_type="chart" class="zr4-cls-22"></path>
<path d="M108.3 219.5A7 7 0 0 1 115.3 226.5L115.3 241.2A7 7 0 0 1 108.3 248.3A7 7 0 0 1 101.3 241.2L101.3 226.5A7 7 0 0 1 108.3 219.5" fill="#3478F6" ecmeta_series_index="0" ecmeta_data_index="8" ecmeta_ssr_type="chart" class="zr4-cls-23"></path>
<path d="M156.1 219.5L172 219.5A8 8 0 0 1 180 227.5L180 240.3A8 8 0 0 1 172 248.3L156.1 248.3A8 8 0 0 1 148.1 240.3L148.1 227.5A8 8 0 0 1 156.1 219.5" fill="#3478F6" ecmeta_series_index="0" ecmeta_data_index="9" ecmeta_ssr_type="chart" class="zr4-cls-23"></path>
<path d="M187.5 219.5A3.8 3.8 0 0 1 191.3 223.3L191.3 244.5A3.8 3.8 0 0 1 187.5 248.3A3.8 3.8 0 0 1 183.8 244.5L183.8 223.3A3.8 3.8 0 0 1 187.5 219.5" fill="#3478F6" ecmeta_series_index="0" ecmeta_data_index="10" ecmeta_ssr_type="chart" class="zr4-cls-23"></path>
<path d="M207.7 219.5L236.7 219.5A8 8 0 0 1 244.7 227.5L244.7 240.3A8 8 0 0 1 236.7 248.3L207.7 248.3A8 8 0 0 1 199.7 240.3L199.7 227.5A8 8 0 0 1 207.7 219.5" fill="#3478F6" ecmeta_series_index="0" ecmeta_data_index="11" ecmeta_ssr_type="chart" class="zr4-cls-23"></path>
<path d="M271.4 219.5A1.5 1.5 0 0 1 272.9 221L272.9 246.8A1.5 1.5 0 0 1 271.4 248.3A1.5 1.5 0 0 1 269.9 246.8L269.9 221A1.5 1.5 0 0 1 271.4 219.5" fill="#3478F6" ecmeta_series_index="0" ecmeta_data_index="12" ecmeta_ssr_type="chart" class="zr4-cls-23"></path>
<path d="M283.6 219.5L341.7 219.5A8 8 0 0 1 349.7 227.5L349.7 240.3A8 8 0 0 1 341.7 248.3L283.6 248.3A8 8 0 0 1 275.6 240.3L275.6 227.5A8 8 0 0 1 283.6 219.5" fill="#3478F6" ecmeta_series_index="0" ecmeta_data_index="13" ecmeta_ssr_type="chart" class="zr4-cls-23"></path>
<path d="M375.5 219.5L415.8 219.5A8 8 0 0 1 423.8 227.5L423.8 240.3A8 8 0 0 1 415.8 248.3L375.5 248.3A8 8 0 0 1 367.5 240.3L367.5 227.5A8 8 0 0 1 375.5 219.5" fill="#3478F6" ecmeta_series_index="0" ecmeta_data_index="14" ecmeta_ssr_type="chart" class="zr4-cls-23"></path>
<path d="M431.3 219.5A3.8 3.8 0 0 1 435 223.3L435 244.5A3.8 3.8 0 0 1 431.3 248.3A3.8 3.8 0 0 1 427.5 244.5L427.5 223.3A3.8 3.8 0 0 1 431.3 219.5" fill="#3478F6" ecmeta_series_index="0" ecmeta_data_index="15" ecmeta_ssr_type="chart" class="zr4-cls-23"></path>
<path d="M462.7 219.5L514.2 219.5A8 8 0 0 1 522.2 227.5L522.2 240.3A8 8 0 0 1 514.2 248.3L462.7 248.3A8 8 0 0 1 454.7 240.3L454.7 227.5A8 8 0 0 1 462.7 219.5" fill="#3478F6" ecmeta_series_index="0" ecmeta_data_index="16" ecmeta_ssr_type="chart" class="zr4-cls-23"></path>
<path d="M123.3 283.3L140.1 283.3A8 8 0 0 1 148.1 291.3L148.1 304A8 8 0 0 1 140.1 312L123.3 312A8 8 0 0 1 115.3 304L115.3 291.3A8 8 0 0 1 123.3 283.3" fill="#35349D" ecmeta_series_index="0" ecmeta_data_index="17" ecmeta_ssr_type="chart" class="zr4-cls-24"></path>
<path d="M181.9 283.3A1.9 1.9 0 0 1 183.8 285.1L183.8 310.1A1.9 1.9 0 0 1 181.9 312A1.9 1.9 0 0 1 180 310.1L180 285.1A1.9 1.9 0 0 1 181.9 283.3" fill="#35349D" ecmeta_series_index="0" ecmeta_data_index="18" ecmeta_ssr_type="chart" class="zr4-cls-24"></path>
<path d="M195.5 283.3A4.2 4.2 0 0 1 199.7 287.5L199.7 307.8A4.2 4.2 0 0 1 195.5 312A4.2 4.2 0 0 1 191.3 307.8L191.3 287.5A4.2 4.2 0 0 1 195.5 283.3" fill="#35349D" ecmeta_series_index="0" ecmeta_data_index="19" ecmeta_ssr_type="chart" class="zr4-cls-24"></path>
<text dominant-baseline="central" text-anchor="start" style="font: 12px sans-serif" x="95" y="78" fill="#8A8A8A">Awake</text>
<text dominant-baseline="central" text-anchor="start" style="font: 12px sans-serif" x="95" y="141.75" fill="#8A8A8A">REM</text>
<text dominant-baseline="central" text-anchor="start" style="font: 12px sans-serif" x="95" y="205.5" fill="#8A8A8A">Core</text>
<text dominant-baseline="central" text-anchor="start" style="font: 12px sans-serif" x="95" y="269.25" fill="#8A8A8A">Deep</text>
<defs >
<linearGradient gradientUnits="objectBoundingBox" x1="0" y1="0" x2="0" y2="1" id="zr4-g0">
<stop offset="12.5%" stop-color="#EF8872"></stop>
<stop offset="37.5%" stop-color="#59AAE1"></stop>
<stop offset="62.5%" stop-color="#3478F6"></stop>
<stop offset="87.5%" stop-color="#35349D"></stop>
</linearGradient>
</defs>
<style ><![CDATA[
.zr4-cls-20:hover {
pointer-events:none;
}
.zr4-cls-21:hover {
cursor:pointer;
fill:rgba(255,149,125,1);
}
.zr4-cls-22:hover {
cursor:pointer;
fill:rgba(97,187,247,1);
}
.zr4-cls-23:hover {
cursor:pointer;
fill:rgba(57,132,255,1);
}
.zr4-cls-24:hover {
cursor:pointer;
fill:rgba(58,57,172,1);
}

]]>

</style>
</svg>