<svg width="600" height="400" xmlns="http://www.w3.org/2000/svg" xmlns:xlink="http://www.w3.org/1999/xlink" version="1.1" baseProfile="full" viewBox="0 0 600 400">
<rect width="600" height="400" x="0" y="0" fill="#fff"></rect>
<path d="M60 330.5L540 330.5" fill="none" pointer-events="visible" stroke="#E0E6F1" class="zr3-cls-13"></path>
<path d="M60 285.5L540 285.5" fill="none" pointer-events="visible" stroke="#E0E6F1" class="zr3-cls-13"></path>
<path d="M60 240.5L540 240.5" fill="none" pointer-events="visible" stroke="#E0E6F1" class="zr3-cls-13"></path>
<path d="M60 195.5L540 195.5" fill="none" pointer-events="visible" stroke="#E0E6F1" class="zr3-cls-13"></path>
<path d="M60 150.5L540 150.5" fill="none" pointer-events="visible" stroke="#E0E6F1" class="zr3-cls-13"></path>
<path d="M60 105.5L540 105.5" fill="none" pointer-events="visible" stroke="#E0E6F1" class="zr3-cls-13"></path>
<path d="M60 60.5L540 60.5" fill="none" pointer-events="visible" stroke="#E0E6F1" class="zr3-cls-13"></path>
<path d="M60 330.5L540 330.5" fill="none" pointer-events="visible" stroke="#6E7079" stroke-linecap="round" class="zr3-cls-13"></path>
<path d="M60.5 330L60.5 335" fill="none" pointer-events="visible" stroke="#6E7079" class="zr3-cls-13"></path>
<path d="M128.5 330L128.5 335" fill="none" pointer-events="visible" stroke="#6E7079" class="zr3-cls-13"></path>
<path d="M197.5 330L197.5 335" fill="none" pointer-events="visible" stroke="#6E7079" class="zr3-cls-13"></path>
<path d="M265.5 330L265.5 335" fill="none" pointer-events="visible" stroke="#6E7079" class="zr3-cls-13"></path>
<path d="M334.5 330L334.5 335" fill="none" pointer-events="visible" stroke="#6E7079" class="zr3-cls-13"></path>
<path d="M403.5 330L403.5 335" fill="none" pointer-events="visible" stroke="#6E7079" class="zr3-cls-13"></path>
<path d="M471.5 330L471.5 335" fill="none" pointer-events="visible" stroke="#6E7079" class="zr3-cls-13"></path>
<path d="M540.5 330L540.5 335" fill="none" pointer-events="visible" stroke="#6E7079" class="zr3-cls-13"></path>
<text dominant-baseline="central" text-anchor="end" style="font-size:12px;font-family:sans-serif;" transform="translate(52 330)" fill="#6E7079">0</text>
<text dominant-baseline="central" text-anchor="end" style="font-size:12px;font-family:sans-serif;" transform="translate(52 285)" fill="#6E7079">1</text>
<text dominant-baseline="central" text-anchor="end" style="font-size:12px;font-family:sans-serif;" transform="translate(52 240)" fill="#6E7079">2</text>
<text dominant-baseline="central" text-anchor="end" style="font-size:12px;font-family:sans-serif;" transform="translate(52 195)" fill="#6E7079">3</text>
<text dominant-baseline="central" text-anchor="end" style="font-size:12px;font-family:sans-serif;" transform="translate(52 150)" fill="#6E7079">4</text>
<text dominant-baseline="central" text-anchor="end" style="font-size:12px;font-family:sans-serif;" transform="translate(52 105)" fill="#6E7079">5</text>
<text dominant-baseline="central" text-anchor="end" style="font-size:12px;font-family:sans-serif;" transform="translate(52 60)" fill="#6E7079">6</text>
<text dominant-baseline="central" text-anchor="middle" style="font-size:12px;font-family:sans-serif;" y="6" transform="translate(94.2857 338)" fill="#6E7079">Mon</text>
<text dominant-baseline="central" text-anchor="middle" style="font-size:12px;font-family:sans-serif;" y="6" transform="translate(162.8571 338)" fill="#6E7079">Tue</text>
<text dominant-baseline="central" text-anchor="middle" style="font-size:12px;font-family:sans-serif;" y="6" transform="translate(231.4286 338)" fill="#6E7079">Wed</text>
<text dominant-baseline="central" text-anchor="middle" style="font-size:12px;font-family:sans-serif;" y="6" transform="translate(300 338)" fill="#6E7079">Thu</text>
<text dominant-baseline="central" text-anchor="middle" style="font-size:12px;font-family:sans-serif;" y="6" transform="translate(368.5714 338)" fill="#6E7079">Fri</text>
<text dominant-baseline="central" text-anchor="middle" style="font-size:12px;font-family:sans-serif;" y="6" transform="translate(437.1429 338)" fill="#6E7079">Sat</text>
<text dominant-baseline="central" text-anchor="middle" style="font-size:12px;font-family:sans-serif;" y="6" transform="translate(505.7143 338)" fill="#6E7079">Sun</text>
<circle cx="94.3" cy="215.5" r="4" fill="#5470c6" ecmeta_series_index="0" ecmeta_data_index="0" ecmeta_ssr_type="chart" class="zr3-cls-14"></circle>
<polygon points="96.3 257.3 99 252.7 101.5 248.2 103.6 243.6 105.4 239.1 106.9 234.5 108.1 230 108.9 225.5 109.5 220.9 109.7 216.4 109.6 211.8 109.2 207.3 108.5 202.7 107.5 198.2 106.1 193.6 104.5 189.1 102.5 184.5 100.3 180 99.2 175.5 97.5 170.9 98.8 166.4 101.2 161.8 103.3 157.3 106 152.7 108.9 148.2 111.3 143.6 113.2 139.1 114.7 134.5 115.6 130 116.2 125.5 116.2 120.9 115.8 116.4 114.9 111.8 113.5 107.3 111.7 102.7 109.3 98.2 106.5 93.6 103.7 89.1 101.6 84.5 99.2 80 97.4 75.5 96.1 70.9 94.7 66.4 93.9 66.4 92.5 70.9 91.2 75.5 89.3 80 87 84.5 84.9 89.1 82 93.6 79.2 98.2 76.9 102.7 75.1 107.3 73.7 111.8 72.8 116.4 72.4 120.9 72.4 125.5 72.9 130 73.9 134.5 75.4 139.1 77.3 143.6 79.7 148.2 82.6 152.7 85.2 157.3 87.3 161.8 89.8 166.4 91 170.9 89.4 175.5 88.3 180 86.1 184.5 84.1 189.1 82.4 193.6 81.1 198.2 80.1 202.7 79.3 207.3 79 211.8 78.9 216.4 79.1 220.9 79.6 225.5 80.5 230 81.7 234.5 83.2 239.1 85 243.6 87.1 248.2 89.5 252.7 92.3 257.3" fill="#5470c6" fill-opacity="0.6" ecmeta_series_index="0" ecmeta_data_index="0" ecmeta_ssr_type="chart" ecmeta_silent="true" class="zr3-cls-13"></polygon>
<circle cx="94.3" cy="215.1" r="4" fill="#5470c6" ecmeta_series_index="0" ecmeta_data_index="1" ecmeta_ssr_type="chart" class="zr3-cls-14"></circle>
<circle cx="94.3" cy="122.9" r="4" fill="#5470c6" ecmeta_series_index="0" ecmeta_data_index="2" ecmeta_ssr_type="chart" class="zr3-cls-14"></circle>
<circle cx="94.3" cy="135.2" r="4" fill="#5470c6" ecmeta_series_index="0" ecmeta_data_index="3" ecmeta_ssr_type="chart" class="zr3-cls-14"></circle>
<circle cx="94.3" cy="110.2" r="4" fill="#5470c6" ecmeta_series_index="0" ecmeta_data_index="4" ecmeta_ssr_type="chart" class="zr3-cls-14"></circle>
<circle cx="162.9" cy="120.7" r="4" fill="#91cc75" ecmeta_series_index="0" ecmeta_data_index="5" ecmeta_ssr_type="chart" class="zr3-cls-15"></circle>
<polygon points="163.6 243.6 165 239.1 166.2 234.5 167.3 230 169.6 225.5 171.7 220.9 173.5 216.4 175 211.8 176.1 207.3 177 202.7 177.5 198.2 177.8 193.6 177.7 189.1 177.3 184.5 176.6 180 175.5 175.5 174.2 170.9 172.5 166.4 171.8 161.8 170.9 157.3 170.6 152.7 170.4 148.2 169.9 143.6 169.3 139.1 170.7 134.5 172.5 130 174 125.5 175.1 120.9 176 116.4 177.8 111.8 179.4 107.3 180.5 102.7 181.1 98.2 181.2 93.6 180.9 89.1 180.1 84.5 178.8 80 177.1 75.5 176.6 70.9 175.7 66.4 174.5 61.8 173 57.3 171.1 52.7 169 48.2 167.8 43.6 166.7 39.1 165.6 34.5 164.2 30 161.5 30 160.2 34.5 159 39.1 158 43.6 156.7 48.2 154.6 52.7 152.7 57.3 151.2 61.8 150 66.4 149.1 70.9 148.6 75.5 146.9 80 145.6 84.5 144.8 89.1 144.5 93.6 144.6 98.2 145.3 102.7 146.3 107.3 147.9 111.8 149.7 116.4 150.6 120.9 151.8 125.5 153.2 130 155 134.5 156.4 139.1 155.8 143.6 155.3 148.2 155.2 152.7 154.8 157.3 153.9 161.8 153.2 166.4 151.5 170.9 150.2 175.5 149.2 180 148.4 184.5 148 189.1 147.9 193.6 148.2 198.2 148.7 202.7 149.6 207.3 150.7 211.8 152.2 216.4 154 220.9 156.2 225.5 158.4 230 159.5 234.5 160.7 239.1 162.1 243.6" fill="#91cc75" fill-opacity="0.6" ecmeta_series_index="0" ecmeta_data_index="5" ecmeta_ssr_type="chart" ecmeta_silent="true" class="zr3-cls-13"></polygon>
<circle cx="162.9" cy="184.4" r="4" fill="#91cc75" ecmeta_series_index="0" ecmeta_data_index="6" ecmeta_ssr_type="chart" class="zr3-cls-15"></circle>
<circle cx="162.9" cy="200.8" r="4" fill="#91cc75" ecmeta_series_index="0" ecmeta_data_index="7" ecmeta_ssr_type="chart" class="zr3-cls-15"></circle>
<circle cx="162.9" cy="92.1" r="4" fill="#91cc75" ecmeta_series_index="0" ecmeta_data_index="8" ecmeta_ssr_type="chart" class="zr3-cls-15"></circle>
<circle cx="162.9" cy="70.8" r="4" fill="#91cc75" ecmeta_series_index="0" ecmeta_data_index="9" ecmeta_ssr_type="chart" class="zr3-cls-15"></circle>
<circle cx="231.4" cy="208.9" r="4" fill="#fac858" ecmeta_series_index="0" ecmeta_data_index="10" ecmeta_ssr_type="chart" class="zr3-cls-16"></circle>
<polygon points="231.7 325.5 232.1 320.9 232.6 316.4 233.4 311.8 234.7 307.3 236 302.7 237.3 298.2 238.4 293.6 239.6 289.1 240.7 284.5 242 280 243 275.5 243.9 270.9 245.2 266.4 246.1 261.8 246.8 257.3 247.5 252.7 248.1 248.2 248.3 243.6 248.4 239.1 248.5 234.5 248.7 230 248.9 225.5 249.3 220.9 250.3 216.4 250.9 211.8 251.3 207.3 251.3 202.7 251 198.2 250.5 193.6 249.9 189.1 248.7 184.5 247.5 180 246.4 175.5 245 170.9 243.4 166.4 241.9 161.8 240.3 157.3 238.7 152.7 237.1 148.2 235.6 143.6 234.3 139.1 233.2 134.5 232.5 130 232.1 125.5 231.8 120.9 231.7 116.4 231.2 116.4 231 120.9 230.7 125.5 230.4 130 229.6 134.5 228.6 139.1 227.3 143.6 225.8 148.2 224.2 152.7 222.5 157.3 221 161.8 219.5 166.4 217.9 170.9 216.5 175.5 215.3 180 214.1 184.5 213 189.1 212.4 193.6 211.9 198.2 211.6 202.7 211.6 207.3 212 211.8 212.6 216.4 213.5 220.9 213.9 225.5 214.1 230 214.3 234.5 214.4 239.1 214.5 243.6 214.8 248.2 215.3 252.7 216 257.3 216.8 261.8 217.7 266.4 219 270.9 219.9 275.5 220.9 280 222.2 284.5 223.3 289.1 224.4 293.6 225.6 298.2 226.9 302.7 228.2 307.3 229.5 311.8 230.3 316.4 230.8 320.9 231.2 325.5" fill="#fac858" fill-opacity="0.6" ecmeta_series_index="0" ecmeta_data_index="10" ecmeta_ssr_type="chart" ecmeta_silent="true" class="zr3-cls-13"></polygon>
<circle cx="231.4" cy="249.6" r="4" fill="#fac858" ecmeta_series_index="0" ecmeta_data_index="11" ecmeta_ssr_type="chart" class="zr3-cls-16"></circle>
<circle cx="231.4" cy="178.4" r="4" fill="#fac858" ecmeta_series_index="0" ecmeta_data_index="12" ecmeta_ssr_type="chart" class="zr3-cls-16"></circle>
<circle cx="231.4" cy="179.4" r="4" fill="#fac858" ecmeta_series_index="0" ecmeta_data_index="13" ecmeta_ssr_type="chart" class="zr3-cls-16"></circle>
<circle cx="231.4" cy="269.1" r="4" fill="#fac858" ecmeta_series_index="0" ecmeta_data_index="14" ecmeta_ssr_type="chart" class="zr3-cls-16"></circle>
<circle cx="231.4" cy="268.6" r="4" fill="#fac858" ecmeta_series_index="0" ecmeta_data_index="15" ecmeta_ssr_type="chart" class="zr3-cls-16"></circle>
<circle cx="231.4" cy="263.7" r="4" fill="#fac858" ecmeta_series_index="0" ecmeta_data_index="16" ecmeta_ssr_type="chart" class="zr3-cls-16"></circle>
<circle cx="231.4" cy="226.1" r="4" fill="#fac858" ecmeta_series_index="0" ecmeta_data_index="17" ecmeta_ssr_type="chart" class="zr3-cls-16"></circle>
<circle cx="231.4" cy="185" r="4" fill="#fac858" ecmeta_series_index="0" ecmeta_data_index="18" ecmeta_ssr_type="chart" class="zr3-cls-16"></circle>
<circle cx="231.4" cy="285.5" r="4" fill="#fac858" ecmeta_series_index="0" ecmeta_data_index="19" ecmeta_ssr_type="chart" class="zr3-cls-16"></circle>
<circle cx="231.4" cy="266.4" r="4" fill="#fac858" ecmeta_series_index="0" ecmeta_data_index="20" ecmeta_ssr_type="chart" class="zr3-cls-16"></circle>
<circle cx="231.4" cy="268.3" r="4" fill="#fac858" ecmeta_series_index="0" ecmeta_data_index="21" ecmeta_ssr_type="chart" class="zr3-cls-16"></circle>
<circle cx="231.4" cy="226.4" r="4" fill="#fac858" ecmeta_series_index="0" ecmeta_data_index="22" ecmeta_ssr_type="chart" class="zr3-cls-16"></circle>
<circle cx="231.4" cy="205.2" r="4" fill="#fac858" ecmeta_series_index="0" ecmeta_data_index="23" ecmeta_ssr_type="chart" class="zr3-cls-16"></circle>
<circle cx="231.4" cy="227.9" r="4" fill="#fac858" ecmeta_series_index="0" ecmeta_data_index="24" ecmeta_ssr_type="chart" class="zr3-cls-16"></circle>
<circle cx="231.4" cy="256.8" r="4" fill="#fac858" ecmeta_series_index="0" ecmeta_data_index="25" ecmeta_ssr_type="chart" class="zr3-cls-16"></circle>
<circle cx="231.4" cy="168" r="4" fill="#fac858" ecmeta_series_index="0" ecmeta_data_index="26" ecmeta_ssr_type="chart" class="zr3-cls-16"></circle>
<circle cx="231.4" cy="189.2" r="4" fill="#fac858" ecmeta_series_index="0" ecmeta_data_index="27" ecmeta_ssr_type="chart" class="zr3-cls-16"></circle>
<circle cx="231.4" cy="183.9" r="4" fill="#fac858" ecmeta_series_index="0" ecmeta_data_index="28" ecmeta_ssr_type="chart" class="zr3-cls-16"></circle>
<circle cx="231.4" cy="211.2" r="4" fill="#fac858" ecmeta_series_index="0" ecmeta_data_index="29" ecmeta_ssr_type="chart" class="zr3-cls-16"></circle>
<circle cx="231.4" cy="242.8" r="4" fill="#fac858" ecmeta_series_index="0" ecmeta_data_index="30" ecmeta_ssr_type="chart" class="zr3-cls-16"></circle>
<circle cx="231.4" cy="199.8" r="4" fill="#fac858" ecmeta_series_index="0" ecmeta_data_index="31" ecmeta_ssr_type="chart" class="zr3-cls-16"></circle>
<circle cx="231.4" cy="275.4" r="4" fill="#fac858" ecmeta_series_index="0" ecmeta_data_index="32" ecmeta_ssr_type="chart" class="zr3-cls-16"></circle>
<circle cx="231.4" cy="240.3" r="4" fill="#fac858" ecmeta_series_index="0" ecmeta_data_index="33" ecmeta_ssr_type="chart" class="zr3-cls-16"></circle>
<circle cx="231.4" cy="156.5" r="4" fill="#fac858" ecmeta_series_index="0" ecmeta_data_index="34" ecmeta_ssr_type="chart" class="zr3-cls-16"></circle>
<circle cx="231.4" cy="176" r="4" fill="#fac858" ecmeta_series_index="0" ecmeta_data_index="35" ecmeta_ssr_type="chart" class="zr3-cls-16"></circle>
<circle cx="231.4" cy="196.7" r="4" fill="#fac858" ecmeta_series_index="0" ecmeta_data_index="36" ecmeta_ssr_type="chart" class="zr3-cls-16"></circle>
<circle cx="231.4" cy="194.3" r="4" fill="#fac858" ecmeta_series_index="0" ecmeta_data_index="37" ecmeta_ssr_type="chart" class="zr3-cls-16"></circle>
<circle cx="231.4" cy="239.3" r="4" fill="#fac858" ecmeta_series_index="0" ecmeta_data_index="38" ecmeta_ssr_type="chart" class="zr3-cls-16"></circle>
<circle cx="231.4" cy="189.9" r="4" fill="#fac858" ecmeta_series_index="0" ecmeta_data_index="39" ecmeta_ssr_type="chart" class="zr3-cls-16"></circle>
<circle cx="231.4" cy="280.5" r="4" fill="#fac858" ecmeta_series_index="0" ecmeta_data_index="40" ecmeta_ssr_type="chart" class="zr3-cls-16"></circle>
<circle cx="231.4" cy="212.8" r="4" fill="#fac858" ecmeta_series_index="0" ecmeta_data_index="41" ecmeta_ssr_type="chart" class="zr3-cls-16"></circle>
<circle cx="231.4" cy="218.6" r="4" fill="#fac858" ecmeta_series_index="0" ecmeta_data_index="42" ecmeta_ssr_type="chart" class="zr3-cls-16"></circle>
<circle cx="231.4" cy="174.4" r="4" fill="#fac858" ecmeta_series_index="0" ecmeta_data_index="43" ecmeta_ssr_type="chart" class="zr3-cls-16"></circle>
<circle cx="231.4" cy="227.6" r="4" fill="#fac858" ecmeta_series_index="0" ecmeta_data_index="44" ecmeta_ssr_type="chart" class="zr3-cls-16"></circle>
<circle cx="300" cy="182.4" r="4" fill="#ee6666" ecmeta_series_index="0" ecmeta_data_index="45" ecmeta_ssr_type="chart" class="zr3-cls-17"></circle>
<polygon points="300.1 275.5 300.4 270.9 301.1 266.4 302.1 261.8 303.1 257.3 303.9 252.7 304.6 248.2 305.1 243.6 305.6 239.1 306.4 234.5 307.3 230 308.2 225.5 309.4 220.9 310.3 216.4 311 211.8 311.7 207.3 313.2 202.7 314.8 198.2 315.9 193.6 316.5 189.1 317 184.5 317.5 180 318.5 175.5 319.8 170.9 321.1 166.4 321.9 161.8 322.1 157.3 322.1 152.7 321.8 148.2 321.3 143.6 320.5 139.1 319.5 134.5 318.3 130 316.6 125.5 314.7 120.9 312.6 116.4 311.4 111.8 310.3 107.3 308.9 102.7 307.2 98.2 305.5 93.6 303.9 89.1 302.6 84.5 301.7 80 301.2 75.5 300.7 70.9 300.1 66.4 299.9 66.4 299.3 70.9 298.8 75.5 298.3 80 297.4 84.5 296.1 89.1 294.5 93.6 292.8 98.2 291.1 102.7 289.7 107.3 288.6 111.8 287.4 116.4 285.3 120.9 283.4 125.5 281.7 130 280.5 134.5 279.5 139.1 278.7 143.6 278.2 148.2 277.9 152.7 277.9 157.3 278.1 161.8 278.9 166.4 280.2 170.9 281.5 175.5 282.5 180 283 184.5 283.5 189.1 284.1 193.6 285.2 198.2 286.8 202.7 288.3 207.3 289 211.8 289.7 216.4 290.6 220.9 291.8 225.5 292.7 230 293.6 234.5 294.4 239.1 294.9 243.6 295.4 248.2 296.1 252.7 296.9 257.3 297.9 261.8 298.9 266.4 299.6 270.9 299.9 275.5" fill="#ee6666" fill-opacity="0.6" ecmeta_series_index="0" ecmeta_data_index="45" ecmeta_ssr_type="chart" ecmeta_silent="true" class="zr3-cls-13"></polygon>
<circle cx="300" cy="223.2" r="4" fill="#ee6666" ecmeta_series_index="0" ecmeta_data_index="46" ecmeta_ssr_type="chart" class="zr3-cls-17"></circle>
<circle cx="300" cy="221.3" r="4" fill="#ee6666" ecmeta_series_index="0" ecmeta_data_index="47" ecmeta_ssr_type="chart" class="zr3-cls-17"></circle>
<circle cx="300" cy="169.2" r="4" fill="#ee6666" ecmeta_series_index="0" ecmeta_data_index="48" ecmeta_ssr_type="chart" class="zr3-cls-17"></circle>
<circle cx="300" cy="194.7" r="4" fill="#ee6666" ecmeta_series_index="0" ecmeta_data_index="49" ecmeta_ssr_type="chart" class="zr3-cls-17"></circle>
<circle cx="300" cy="232.6" r="4" fill="#ee6666" ecmeta_series_index="0" ecmeta_data_index="50" ecmeta_ssr_type="chart" class="zr3-cls-17"></circle>
<circle cx="300" cy="124.3" r="4" fill="#ee6666" ecmeta_series_index="0" ecmeta_data_index="51" ecmeta_ssr_type="chart" class="zr3-cls-17"></circle>
<circle cx="300" cy="180.4" r="4" fill="#ee6666" ecmeta_series_index="0" ecmeta_data_index="52" ecmeta_ssr_type="chart" class="zr3-cls-17"></circle>
<circle cx="300" cy="127.4" r="4" fill="#ee6666" ecmeta_series_index="0" ecmeta_data_index="53" ecmeta_ssr_type="chart" class="zr3-cls-17"></circle>
<circle cx="300" cy="192.5" r="4" fill="#ee6666" ecmeta_series_index="0" ecmeta_data_index="54" ecmeta_ssr_type="chart" class="zr3-cls-17"></circle>
<circle cx="300" cy="141.2" r="4" fill="#ee6666" ecmeta_series_index="0" ecmeta_data_index="55" ecmeta_ssr_type="chart" class="zr3-cls-17"></circle>
<circle cx="300" cy="162.9" r="4" fill="#ee6666" ecmeta_series_index="0" ecmeta_data_index="56" ecmeta_ssr_type="chart" class="zr3-cls-17"></circle>
<circle cx="300" cy="132.7" r="4" fill="#ee6666" ecmeta_series_index="0" ecmeta_data_index="57" ecmeta_ssr_type="chart" class="zr3-cls-17"></circle>
<circle cx="300" cy="162.1" r="4" fill="#ee6666" ecmeta_series_index="0" ecmeta_data_index="58" ecmeta_ssr_type="chart" class="zr3-cls-17"></circle>
<circle cx="300" cy="111.8" r="4" fill="#ee6666" ecmeta_series_index="0" ecmeta_data_index="59" ecmeta_ssr_type="chart" class="zr3-cls-17"></circle>
<circle cx="300" cy="160.9" r="4" fill="#ee6666" ecmeta_series_index="0" ecmeta_data_index="60" ecmeta_ssr_type="chart" class="zr3-cls-17"></circle>
<circle cx="300" cy="163.1" r="4" fill="#ee6666" ecmeta_series_index="0" ecmeta_data_index="61" ecmeta_ssr_type="chart" class="zr3-cls-17"></circle>
<circle cx="300" cy="133.5" r="4" fill="#ee6666" ecmeta_series_index="0" ecmeta_data_index="62" ecmeta_ssr_type="chart" class="zr3-cls-17"></circle>
<circle cx="300" cy="140.2" r="4" fill="#ee6666" ecmeta_series_index="0" ecmeta_data_index="63" ecmeta_ssr_type="chart" class="zr3-cls-17"></circle>
<circle cx="300" cy="225.4" r="4" fill="#ee6666" ecmeta_series_index="0" ecmeta_data_index="64" ecmeta_ssr_type="chart" class="zr3-cls-17"></circle>
<circle cx="300" cy="160.1" r="4" fill="#ee6666" ecmeta_series_index="0" ecmeta_data_index="65" ecmeta_ssr_type="chart" class="zr3-cls-17"></circle>
<circle cx="300" cy="187" r="4" fill="#ee6666" ecmeta_series_index="0" ecmeta_data_index="66" ecmeta_ssr_type="chart" class="zr3-cls-17"></circle>
<circle cx="300" cy="157.3" r="4" fill="#ee6666" ecmeta_series_index="0" ecmeta_data_index="67" ecmeta_ssr_type="chart" class="zr3-cls-17"></circle>
<circle cx="300" cy="109.4" r="4" fill="#ee6666" ecmeta_series_index="0" ecmeta_data_index="68" ecmeta_ssr_type="chart" class="zr3-cls-17"></circle>
<circle cx="300" cy="128.3" r="4" fill="#ee6666" ecmeta_series_index="0" ecmeta_data_index="69" ecmeta_ssr_type="chart" class="zr3-cls-17"></circle>
<circle cx="368.6" cy="85.1" r="4" fill="#73c0de" ecmeta_series_index="0" ecmeta_data_index="70" ecmeta_ssr_type="chart" class="zr3-cls-18"></circle>
<polygon points="369 243.6 369.9 239.1 371 234.5 372.7 230 374.7 225.5 376.4 220.9 377.9 216.4 379.6 211.8 381 207.3 382 202.7 382.8 198.2 383.7 193.6 384.7 189.1 385.3 184.5 385.5 180 385.3 175.5 384.6 170.9 383.6 166.4 382.1 161.8 380.2 157.3 378.5 152.7 377.3 148.2 376.3 143.6 375.8 139.1 376.2 134.5 377.4 130 379.2 125.5 381.1 120.9 382.6 116.4 383.6 111.8 384.3 107.3 384.9 102.7 385.7 98.2 386 93.6 386.1 89.1 385.7 84.5 385 80 383.9 75.5 382.4 70.9 380.6 66.4 378.4 61.8 376.4 57.3 374 52.7 371.4 48.2 369.6 43.6 368.7 39.1 368.4 39.1 367.5 43.6 365.8 48.2 363.1 52.7 360.8 57.3 358.8 61.8 356.6 66.4 354.7 70.9 353.3 75.5 352.2 80 351.5 84.5 351.1 89.1 351.1 93.6 351.5 98.2 352.2 102.7 352.9 107.3 353.6 111.8 354.5 116.4 356 120.9 357.9 125.5 359.7 130 360.9 134.5 361.3 139.1 360.8 143.6 359.8 148.2 358.6 152.7 357 157.3 355.1 161.8 353.6 166.4 352.5 170.9 351.9 175.5 351.6 180 351.8 184.5 352.5 189.1 353.4 193.6 354.3 198.2 355.1 202.7 356.2 207.3 357.5 211.8 359.2 216.4 360.7 220.9 362.4 225.5 364.4 230 366.1 234.5 367.2 239.1 368.2 243.6" fill="#73c0de" fill-opacity="0.6" ecmeta_series_index="0" ecmeta_data_index="70" ecmeta_ssr_type="chart" ecmeta_silent="true" class="zr3-cls-13"></polygon>
<circle cx="368.6" cy="191.8" r="4" fill="#73c0de" ecmeta_series_index="0" ecmeta_data_index="71" ecmeta_ssr_type="chart" class="zr3-cls-18"></circle>
<circle cx="368.6" cy="90.4" r="4" fill="#73c0de" ecmeta_series_index="0" ecmeta_data_index="72" ecmeta_ssr_type="chart" class="zr3-cls-18"></circle>
<circle cx="368.6" cy="202" r="4" fill="#73c0de" ecmeta_series_index="0" ecmeta_data_index="73" ecmeta_ssr_type="chart" class="zr3-cls-18"></circle>
<circle cx="368.6" cy="92.7" r="4" fill="#73c0de" ecmeta_series_index="0" ecmeta_data_index="74" ecmeta_ssr_type="chart" class="zr3-cls-18"></circle>
<circle cx="368.6" cy="92.6" r="4" fill="#73c0de" ecmeta_series_index="0" ecmeta_data_index="75" ecmeta_ssr_type="chart" class="zr3-cls-18"></circle>
<circle cx="368.6" cy="185.5" r="4" fill="#73c0de" ecmeta_series_index="0" ecmeta_data_index="76" ecmeta_ssr_type="chart" class="zr3-cls-18"></circle>
<circle cx="368.6" cy="171.8" r="4" fill="#73c0de" ecmeta_series_index="0" ecmeta_data_index="77" ecmeta_ssr_type="chart" class="zr3-cls-18"></circle>
<circle cx="368.6" cy="153.7" r="4" fill="#73c0de" ecmeta_series_index="0" ecmeta_data_index="78" ecmeta_ssr_type="chart" class="zr3-cls-18"></circle>
<circle cx="368.6" cy="199" r="4" fill="#73c0de" ecmeta_series_index="0" ecmeta_data_index="79" ecmeta_ssr_type="chart" class="zr3-cls-18"></circle>
<circle cx="368.6" cy="148.2" r="4" fill="#73c0de" ecmeta_series_index="0" ecmeta_data_index="80" ecmeta_ssr_type="chart" class="zr3-cls-18"></circle>
<circle cx="368.6" cy="82.6" r="4" fill="#73c0de" ecmeta_series_index="0" ecmeta_data_index="81" ecmeta_ssr_type="chart" class="zr3-cls-18"></circle>
<circle cx="368.6" cy="88.7" r="4" fill="#73c0de" ecmeta_series_index="0" ecmeta_data_index="82" ecmeta_ssr_type="chart" class="zr3-cls-18"></circle>
<circle cx="368.6" cy="189.3" r="4" fill="#73c0de" ecmeta_series_index="0" ecmeta_data_index="83" ecmeta_ssr_type="chart" class="zr3-cls-18"></circle>
<circle cx="368.6" cy="107" r="4" fill="#73c0de" ecmeta_series_index="0" ecmeta_data_index="84" ecmeta_ssr_type="chart" class="zr3-cls-18"></circle>
<circle cx="437.1" cy="231.6" r="4" fill="#3ba272" ecmeta_series_index="0" ecmeta_data_index="85" ecmeta_ssr_type="chart" class="zr3-cls-19"></circle>
<polygon points="438.4 307.3 442.7 302.7 446.5 298.2 449.9 293.6 452.8 289.1 455.2 284.5 457.1 280 459 275.5 461.5 270.9 463.3 266.4 464.9 261.8 466.9 257.3 468.1 252.7 468.5 248.2 468.1 243.6 467 239.1 465 234.5 462.3 230 458.8 225.5 454.5 220.9 451.7 216.4 450.9 211.8 449.9 207.3 448.5 202.7 446.8 198.2 444.8 193.6 442.5 189.1 440.6 184.5 439.3 180 438 175.5 436.3 175.5 434.9 180 433.7 184.5 431.8 189.1 429.5 193.6 427.5 198.2 425.8 202.7 424.4 207.3 423.4 211.8 422.6 216.4 419.8 220.9 415.5 225.5 412 230 409.3 234.5 407.3 239.1 406.2 243.6 405.8 248.2 406.2 252.7 407.4 257.3 409.4 261.8 411 266.4 412.8 270.9 415.3 275.5 417.1 280 419.1 284.5 421.5 289.1 424.4 293.6 427.8 298.2 431.6 302.7 435.9 307.3" fill="#3ba272" fill-opacity="0.6" ecmeta_series_index="0" ecmeta_data_index="85" ecmeta_ssr_type="chart" ecmeta_silent="true" class="zr3-cls-13"></polygon>
<circle cx="437.1" cy="218" r="4" fill="#3ba272" ecmeta_series_index="0" ecmeta_data_index="86" ecmeta_ssr_type="chart" class="zr3-cls-19"></circle>
<circle cx="437.1" cy="262.1" r="4" fill="#3ba272" ecmeta_series_index="0" ecmeta_data_index="87" ecmeta_ssr_type="chart" class="zr3-cls-19"></circle>
<circle cx="437.1" cy="266" r="4" fill="#3ba272" ecmeta_series_index="0" ecmeta_data_index="88" ecmeta_ssr_type="chart" class="zr3-cls-19"></circle>
<circle cx="437.1" cy="262.3" r="4" fill="#3ba272" ecmeta_series_index="0" ecmeta_data_index="89" ecmeta_ssr_type="chart" class="zr3-cls-19"></circle>
<circle cx="505.7" cy="177.8" r="4" fill="#fc8452" ecmeta_series_index="0" ecmeta_data_index="90" ecmeta_ssr_type="chart" class="zr3-cls-20"></circle>
<polygon points="506.2 284.5 506.7 280 507.1 275.5 507.4 270.9 507.7 266.4 507.9 261.8 508.6 257.3 509.5 252.7 510.4 248.2 511.1 243.6 512 239.1 513.9 234.5 515.5 230 516.8 225.5 518.8 220.9 520.8 216.4 522.4 211.8 523.9 207.3 524.9 202.7 525.9 198.2 527 193.6 528 189.1 528.4 184.5 528.7 180 528.3 175.5 527.4 170.9 526.7 166.4 526.4 161.8 525.6 157.3 524.2 152.7 522.8 148.2 521.9 143.6 520.4 139.1 518.7 134.5 517.8 130 516.7 125.5 515.4 120.9 514.3 116.4 512.9 111.8 511.7 107.3 510.7 102.7 509.7 98.2 508.8 93.6 508.1 89.1 507.2 84.5 506.3 80 505.1 80 504.2 84.5 503.4 89.1 502.7 93.6 501.7 98.2 500.7 102.7 499.7 107.3 498.5 111.8 497.1 116.4 496 120.9 494.7 125.5 493.7 130 492.7 134.5 491 139.1 489.6 143.6 488.6 148.2 487.2 152.7 485.8 157.3 485 161.8 484.7 166.4 484 170.9 483.1 175.5 482.8 180 483 184.5 483.4 189.1 484.4 193.6 485.5 198.2 486.5 202.7 487.5 207.3 489.1 211.8 490.6 216.4 492.6 220.9 494.6 225.5 495.9 230 497.5 234.5 499.4 239.1 500.3 243.6 501 248.2 502 252.7 502.9 257.3 503.5 261.8 503.8 266.4 504 270.9 504.4 275.5 504.8 280 505.2 284.5" fill="#fc8452" fill-opacity="0.6" ecmeta_series_index="0" ecmeta_data_index="90" ecmeta_ssr_type="chart" ecmeta_silent="true" class="zr3-cls-13"></polygon>
<circle cx="505.7" cy="196.7" r="4" fill="#fc8452" ecmeta_series_index="0" ecmeta_data_index="91" ecmeta_ssr_type="chart" class="zr3-cls-20"></circle>
<circle cx="505.7" cy="210.8" r="4" fill="#fc8452" ecmeta_series_index="0" ecmeta_data_index="92" ecmeta_ssr_type="chart" class="zr3-cls-20"></circle>
<circle cx="505.7" cy="194.2" r="4" fill="#fc8452" ecmeta_series_index="0" ecmeta_data_index="93" ecmeta_ssr_type="chart" class="zr3-cls-20"></circle>
<circle cx="505.7" cy="181.1" r="4" fill="#fc8452" ecmeta_series_index="0" ecmeta_data_index="94" ecmeta_ssr_type="chart" class="zr3-cls-20"></circle>
<circle cx="505.7" cy="139.9" r="4" fill="#fc8452" ecmeta_series_index="0" ecmeta_data_index="95" ecmeta_ssr_type="chart" class="zr3-cls-20"></circle>
<circle cx="505.7" cy="166.7" r="4" fill="#fc8452" ecmeta_series_index="0" ecmeta_data_index="96" ecmeta_ssr_type="chart" class="zr3-cls-20"></circle>
<circle cx="505.7" cy="244.4" r="4" fill="#fc8452" ecmeta_series_index="0" ecmeta_data_index="97" ecmeta_ssr_type="chart" class="zr3-cls-20"></circle>
<circle cx="505.7" cy="156.4" r="4" fill="#fc8452" ecmeta_series_index="0" ecmeta_data_index="98" ecmeta_ssr_type="chart" class="zr3-cls-20"></circle>
<circle cx="505.7" cy="179.3" r="4" fill="#fc8452" ecmeta_series_index="0" ecmeta_data_index="99" ecmeta_ssr_type="chart" class="zr3-cls-20"></circle>
<circle cx="505.7" cy="124.3" r="4" fill="#fc8452" ecmeta_series_index="0" ecmeta_data_index="100" ecmeta_ssr_type="chart" class="zr3-cls-20"></circle>
<circle cx="505.7" cy="150" r="4" fill="#fc8452" ecmeta_series_index="0" ecmeta_data_index="101" ecmeta_ssr_type="chart" class="zr3-cls-20"></circle>
<circle cx="505.7" cy="216.9" r="4" fill="#fc8452" ecmeta_series_index="0" ecmeta_data_index="102" ecmeta_ssr_type="chart" class="zr3-cls-20"></circle>
<circle cx="505.7" cy="120.2" r="4" fill="#fc8452" ecmeta_series_index="0" ecmeta_data_index="103" ecmeta_ssr_type="chart" class="zr3-cls-20"></circle>
<circle cx="505.7" cy="193.8" r="4" fill="#fc8452" ecmeta_series_index="0" ecmeta_data_index="104" ecmeta_ssr_type="chart" class="zr3-cls-20"></circle>
<style ><![CDATA[
.zr3-cls-13:hover {
pointer-events:none;
}
.zr3-cls-14:hover {
cursor:pointer;
fill:rgba(92,123,217,1);
}
.zr3-cls-15:hover {
cursor:pointer;
fill:rgba(159,224,128,1);
}
.zr3-cls-16:hover {
cursor:pointer;
fill:rgba(255,220,96,1);
}
.zr3-cls-17:hover {
cursor:pointer;
fill:rgba(255,112,112,1);
}
.zr3-cls-18:hover {
cursor:pointer;
fill:rgba(126,211,244,1);
}
.zr3-cls-19:hover {
cursor:pointer;
fill:rgba(64,178,125,1);
}
.zr3-cls-20:hover {
cursor:pointer;
fill:rgba(255,145,90,1);
}

]]>

</style>
</svg>