<svg width="600" height="400" xmlns="http://www.w3.org/2000/svg" xmlns:xlink="http://www.w3.org/1999/xlink" version="1.1" baseProfile="full" viewBox="0 0 600 400">
<rect width="600" height="400" x="0" y="0" fill="#fff"></rect>
<path d="M60 330.5L540 330.5" fill="none" pointer-events="visible" stroke="#E0E6F1" class="zr0-cls-0"></path>
<path d="M60 285.5L540 285.5" fill="none" pointer-events="visible" stroke="#E0E6F1" class="zr0-cls-0"></path>
<path d="M60 240.5L540 240.5" fill="none" pointer-events="visible" stroke="#E0E6F1" class="zr0-cls-0"></path>
<path d="M60 195.5L540 195.5" fill="none" pointer-events="visible" stroke="#E0E6F1" class="zr0-cls-0"></path>
<path d="M60 150.5L540 150.5" fill="none" pointer-events="visible" stroke="#E0E6F1" class="zr0-cls-0"></path>
<path d="M60 105.5L540 105.5" fill="none" pointer-events="visible" stroke="#E0E6F1" class="zr0-cls-0"></path>
<path d="M60 60.5L540 60.5" fill="none" pointer-events="visible" stroke="#E0E6F1" class="zr0-cls-0"></path>
<path d="M60 330.5L540 330.5" fill="none" pointer-events="visible" stroke="#6E7079" stroke-linecap="round" class="zr0-cls-0"></path>
<path d="M60.5 330L60.5 335" fill="none" pointer-events="visible" stroke="#6E7079" class="zr0-cls-0"></path>
<path d="M128.5 330L128.5 335" fill="none" pointer-events="visible" stroke="#6E7079" class="zr0-cls-0"></path>
<path d="M197.5 330L197.5 335" fill="none" pointer-events="visible" stroke="#6E7079" class="zr0-cls-0"></path>
<path d="M265.5 330L265.5 335" fill="none" pointer-events="visible" stroke="#6E7079" class="zr0-cls-0"></path>
<path d="M334.5 330L334.5 335" fill="none" pointer-events="visible" stroke="#6E7079" class="zr0-cls-0"></path>
<path d="M403.5 330L403.5 335" fill="none" pointer-events="visible" stroke="#6E7079" class="zr0-cls-0"></path>
<path d="M471.5 330L471.5 335" fill="none" pointer-events="visible" stroke="#6E7079" class="zr0-cls-0"></path>
<path d="M540.5 330L540.5 335" fill="none" pointer-events="visible" stroke="#6E7079" class="zr0-cls-0"></path>
<text dominant-baseline="central" text-anchor="end" style="font-size:12px;font-family:sans-serif;" transform="translate(52 330)" fill="#6E7079">0</text>
<text dominant-baseline="central" text-anchor="end" style="font-size:12px;font-family:sans-serif;" transform="translate(52 285)" fill="#6E7079">1</text>
<text dominant-baseline="central" text-anchor="end" style="font-size:12px;font-family:sans-serif;" transform="translate(52 240)" fill="#6E7079">2</text>
<text dominant-baseline="central" text-anchor="end" style="font-size:12px;font-family:sans-serif;" transform="translate(52 195)" fill="#6E7079">3</text>
<text dominant-baseline="central" text-anchor="end" style="font-size:12px;font-family:sans-serif;" transform="translate(52 150)" fill="#6E7079">4</text>
<text dominant-baseline="central" text-anchor="end" style="font-size:12px;font-family:sans-serif;" transform="translate(52 105)" fill="#6E7079">5</text>
<text dominant-baseline="central" text-anchor="end" style="font-size:12px;font-family:sans-serif;" transform="translate(52 60)" fill="#6E7079">6</text>
<text dominant-baseline="central" text-anchor="middle" style="font-size:12px;font-family:sans-serif;" y="6" transform="translate(94.2857 338)" fill="#6E7079">Mon</text>
<text dominant-baseline="central" text-anchor="middle" style="font-size:12px;font-family:sans-serif;" y="6" transform="translate(162.8571 338)" fill="#6E7079">Tue</text>
<text dominant-baseline="central" text-anchor="middle" style="font-size:12px;font-family:sans-serif;" y="6" transform="translate(231.4286 338)" fill="#6E7079">Wed</text>
<text dominant-baseline="central" text-anchor="middle" style="font-size:12px;font-family:sans-serif;" y="6" transform="translate(300 338)" fill="#6E7079">Thu</text>
<text dominant-baseline="central" text-anchor="middle" style="font-size:12px;font-family:sans-serif;" y="6" transform="translate(368.5714 338)" fill="#6E7079">Fri</text>
<text dominant-baseline="central" text-anchor="middle" style="font-size:12px;font-family:sans-serif;" y="6" transform="translate(437.1429 338)" fill="#6E7079">Sat</text>
<text dominant-baseline="central" text-anchor="middle" style="font-size:12px;font-family:sans-serif;" y="6" transform="translate(505.7143 338)" fill="#6E7079">Sun</text>
<circle cx="94.3" cy="159.1" r="4" fill="#5470c6" ecmeta_series_index="0" ecmeta_data_index="0" ecmeta_ssr_type="chart" class="zr0-cls-1"></circle>
<polygon points="94.4 280 94.6 275.5 95 270.9 95.9 266.4 96.9 261.8 98.3 257.3 99.7 252.7 101.1 248.2 102.4 243.6 103.6 239.1 104.8 234.5 106.2 230 107.6 225.5 108.9 220.9 110.2 216.4 111.3 211.8 112 207.3 112.5 202.7 113 198.2 113.2 193.6 113 189.1 112.4 184.5 112.1 180 112.2 175.5 112.2 170.9 112.4 166.4 112.2 161.8 111.7 157.3 110.9 152.7 110.3 148.2 109.6 143.6 109 139.1 108.2 134.5 107.3 130 106.5 125.5 105.5 120.9 104.3 116.4 103.1 111.8 102.1 107.3 101.1 102.7 99.9 98.2 98.7 93.6 97.8 89.1 97.1 84.5 96.6 80 96.1 75.5 95.6 70.9 95 66.4 94.4 61.8 94.2 61.8 93.6 66.4 93 70.9 92.5 75.5 92 80 91.5 84.5 90.7 89.1 89.9 93.6 88.6 98.2 87.5 102.7 86.4 107.3 85.5 111.8 84.2 116.4 83 120.9 82.1 125.5 81.3 130 80.3 134.5 79.6 139.1 79 143.6 78.3 148.2 77.7 152.7 76.8 157.3 76.4 161.8 76.2 166.4 76.3 170.9 76.4 175.5 76.4 180 76.1 184.5 75.6 189.1 75.4 193.6 75.6 198.2 76.1 202.7 76.5 207.3 77.3 211.8 78.4 216.4 79.7 220.9 80.9 225.5 82.3 230 83.8 234.5 84.9 239.1 86.2 243.6 87.5 248.2 88.9 252.7 90.2 257.3 91.6 261.8 92.7 266.4 93.6 270.9 94 275.5 94.2 280" fill="#5470c6" fill-opacity="0.6" ecmeta_series_index="0" ecmeta_data_index="0" ecmeta_ssr_type="chart" ecmeta_silent="true" class="zr0-cls-0"></polygon>
<circle cx="94.3" cy="155.4" r="4" fill="#5470c6" ecmeta_series_index="0" ecmeta_data_index="1" ecmeta_ssr_type="chart" class="zr0-cls-1"></circle>
<circle cx="94.3" cy="133.1" r="4" fill="#5470c6" ecmeta_series_index="0" ecmeta_data_index="2" ecmeta_ssr_type="chart" class="zr0-cls-1"></circle>
<circle cx="94.3" cy="233.3" r="4" fill="#5470c6" ecmeta_series_index="0" ecmeta_data_index="3" ecmeta_ssr_type="chart" class="zr0-cls-1"></circle>
<circle cx="94.3" cy="206.8" r="4" fill="#5470c6" ecmeta_series_index="0" ecmeta_data_index="4" ecmeta_ssr_type="chart" class="zr0-cls-1"></circle>
<circle cx="94.3" cy="192.6" r="4" fill="#5470c6" ecmeta_series_index="0" ecmeta_data_index="5" ecmeta_ssr_type="chart" class="zr0-cls-1"></circle>
<circle cx="94.3" cy="177.9" r="4" fill="#5470c6" ecmeta_series_index="0" ecmeta_data_index="6" ecmeta_ssr_type="chart" class="zr0-cls-1"></circle>
<circle cx="94.3" cy="198" r="4" fill="#5470c6" ecmeta_series_index="0" ecmeta_data_index="7" ecmeta_ssr_type="chart" class="zr0-cls-1"></circle>
<circle cx="94.3" cy="105.1" r="4" fill="#5470c6" ecmeta_series_index="0" ecmeta_data_index="8" ecmeta_ssr_type="chart" class="zr0-cls-1"></circle>
<circle cx="94.3" cy="216.5" r="4" fill="#5470c6" ecmeta_series_index="0" ecmeta_data_index="9" ecmeta_ssr_type="chart" class="zr0-cls-1"></circle>
<circle cx="94.3" cy="188.7" r="4" fill="#5470c6" ecmeta_series_index="0" ecmeta_data_index="10" ecmeta_ssr_type="chart" class="zr0-cls-1"></circle>
<circle cx="94.3" cy="159.7" r="4" fill="#5470c6" ecmeta_series_index="0" ecmeta_data_index="11" ecmeta_ssr_type="chart" class="zr0-cls-1"></circle>
<circle cx="94.3" cy="230.6" r="4" fill="#5470c6" ecmeta_series_index="0" ecmeta_data_index="12" ecmeta_ssr_type="chart" class="zr0-cls-1"></circle>
<circle cx="94.3" cy="177" r="4" fill="#5470c6" ecmeta_series_index="0" ecmeta_data_index="13" ecmeta_ssr_type="chart" class="zr0-cls-1"></circle>
<circle cx="94.3" cy="206" r="4" fill="#5470c6" ecmeta_series_index="0" ecmeta_data_index="14" ecmeta_ssr_type="chart" class="zr0-cls-1"></circle>
<circle cx="94.3" cy="127.8" r="4" fill="#5470c6" ecmeta_series_index="0" ecmeta_data_index="15" ecmeta_ssr_type="chart" class="zr0-cls-1"></circle>
<circle cx="94.3" cy="212.1" r="4" fill="#5470c6" ecmeta_series_index="0" ecmeta_data_index="16" ecmeta_ssr_type="chart" class="zr0-cls-1"></circle>
<circle cx="94.3" cy="138.4" r="4" fill="#5470c6" ecmeta_series_index="0" ecmeta_data_index="17" ecmeta_ssr_type="chart" class="zr0-cls-1"></circle>
<circle cx="94.3" cy="140.2" r="4" fill="#5470c6" ecmeta_series_index="0" ecmeta_data_index="18" ecmeta_ssr_type="chart" class="zr0-cls-1"></circle>
<circle cx="94.3" cy="224.3" r="4" fill="#5470c6" ecmeta_series_index="0" ecmeta_data_index="19" ecmeta_ssr_type="chart" class="zr0-cls-1"></circle>
<circle cx="94.3" cy="216" r="4" fill="#5470c6" ecmeta_series_index="0" ecmeta_data_index="20" ecmeta_ssr_type="chart" class="zr0-cls-1"></circle>
<circle cx="94.3" cy="170.9" r="4" fill="#5470c6" ecmeta_series_index="0" ecmeta_data_index="21" ecmeta_ssr_type="chart" class="zr0-cls-1"></circle>
<circle cx="94.3" cy="164.3" r="4" fill="#5470c6" ecmeta_series_index="0" ecmeta_data_index="22" ecmeta_ssr_type="chart" class="zr0-cls-1"></circle>
<circle cx="94.3" cy="150.6" r="4" fill="#5470c6" ecmeta_series_index="0" ecmeta_data_index="23" ecmeta_ssr_type="chart" class="zr0-cls-1"></circle>
<circle cx="94.3" cy="182.6" r="4" fill="#5470c6" ecmeta_series_index="0" ecmeta_data_index="24" ecmeta_ssr_type="chart" class="zr0-cls-1"></circle>
<circle cx="94.3" cy="105.6" r="4" fill="#5470c6" ecmeta_series_index="0" ecmeta_data_index="25" ecmeta_ssr_type="chart" class="zr0-cls-1"></circle>
<circle cx="94.3" cy="226.5" r="4" fill="#5470c6" ecmeta_series_index="0" ecmeta_data_index="26" ecmeta_ssr_type="chart" class="zr0-cls-1"></circle>
<circle cx="94.3" cy="199.6" r="4" fill="#5470c6" ecmeta_series_index="0" ecmeta_data_index="27" ecmeta_ssr_type="chart" class="zr0-cls-1"></circle>
<circle cx="94.3" cy="226.1" r="4" fill="#5470c6" ecmeta_series_index="0" ecmeta_data_index="28" ecmeta_ssr_type="chart" class="zr0-cls-1"></circle>
<circle cx="94.3" cy="125.5" r="4" fill="#5470c6" ecmeta_series_index="0" ecmeta_data_index="29" ecmeta_ssr_type="chart" class="zr0-cls-1"></circle>
<circle cx="94.3" cy="109.1" r="4" fill="#5470c6" ecmeta_series_index="0" ecmeta_data_index="30" ecmeta_ssr_type="chart" class="zr0-cls-1"></circle>
<circle cx="94.3" cy="140.7" r="4" fill="#5470c6" ecmeta_series_index="0" ecmeta_data_index="31" ecmeta_ssr_type="chart" class="zr0-cls-1"></circle>
<circle cx="94.3" cy="158.5" r="4" fill="#5470c6" ecmeta_series_index="0" ecmeta_data_index="32" ecmeta_ssr_type="chart" class="zr0-cls-1"></circle>
<circle cx="94.3" cy="135" r="4" fill="#5470c6" ecmeta_series_index="0" ecmeta_data_index="33" ecmeta_ssr_type="chart" class="zr0-cls-1"></circle>
<circle cx="94.3" cy="190.8" r="4" fill="#5470c6" ecmeta_series_index="0" ecmeta_data_index="34" ecmeta_ssr_type="chart" class="zr0-cls-1"></circle>
<circle cx="94.3" cy="154.8" r="4" fill="#5470c6" ecmeta_series_index="0" ecmeta_data_index="35" ecmeta_ssr_type="chart" class="zr0-cls-1"></circle>
<circle cx="94.3" cy="138.6" r="4" fill="#5470c6" ecmeta_series_index="0" ecmeta_data_index="36" ecmeta_ssr_type="chart" class="zr0-cls-1"></circle>
<circle cx="94.3" cy="174.6" r="4" fill="#5470c6" ecmeta_series_index="0" ecmeta_data_index="37" ecmeta_ssr_type="chart" class="zr0-cls-1"></circle>
<circle cx="94.3" cy="188.2" r="4" fill="#5470c6" ecmeta_series_index="0" ecmeta_data_index="38" ecmeta_ssr_type="chart" class="zr0-cls-1"></circle>
<circle cx="94.3" cy="130.3" r="4" fill="#5470c6" ecmeta_series_index="0" ecmeta_data_index="39" ecmeta_ssr_type="chart" class="zr0-cls-1"></circle>
<circle cx="94.3" cy="224.8" r="4" fill="#5470c6" ecmeta_series_index="0" ecmeta_data_index="40" ecmeta_ssr_type="chart" class="zr0-cls-1"></circle>
<circle cx="94.3" cy="224.7" r="4" fill="#5470c6" ecmeta_series_index="0" ecmeta_data_index="41" ecmeta_ssr_type="chart" class="zr0-cls-1"></circle>
<circle cx="94.3" cy="175.8" r="4" fill="#5470c6" ecmeta_series_index="0" ecmeta_data_index="42" ecmeta_ssr_type="chart" class="zr0-cls-1"></circle>
<circle cx="94.3" cy="139" r="4" fill="#5470c6" ecmeta_series_index="0" ecmeta_data_index="43" ecmeta_ssr_type="chart" class="zr0-cls-1"></circle>
<circle cx="94.3" cy="216.8" r="4" fill="#5470c6" ecmeta_series_index="0" ecmeta_data_index="44" ecmeta_ssr_type="chart" class="zr0-cls-1"></circle>
<circle cx="94.3" cy="106.8" r="4" fill="#5470c6" ecmeta_series_index="0" ecmeta_data_index="45" ecmeta_ssr_type="chart" class="zr0-cls-1"></circle>
<circle cx="94.3" cy="187.5" r="4" fill="#5470c6" ecmeta_series_index="0" ecmeta_data_index="46" ecmeta_ssr_type="chart" class="zr0-cls-1"></circle>
<circle cx="94.3" cy="217.4" r="4" fill="#5470c6" ecmeta_series_index="0" ecmeta_data_index="47" ecmeta_ssr_type="chart" class="zr0-cls-1"></circle>
<circle cx="94.3" cy="174.9" r="4" fill="#5470c6" ecmeta_series_index="0" ecmeta_data_index="48" ecmeta_ssr_type="chart" class="zr0-cls-1"></circle>
<circle cx="94.3" cy="190.1" r="4" fill="#5470c6" ecmeta_series_index="0" ecmeta_data_index="49" ecmeta_ssr_type="chart" class="zr0-cls-1"></circle>
<circle cx="94.3" cy="157.4" r="4" fill="#5470c6" ecmeta_series_index="0" ecmeta_data_index="50" ecmeta_ssr_type="chart" class="zr0-cls-1"></circle>
<circle cx="94.3" cy="221.6" r="4" fill="#5470c6" ecmeta_series_index="0" ecmeta_data_index="51" ecmeta_ssr_type="chart" class="zr0-cls-1"></circle>
<circle cx="94.3" cy="106.5" r="4" fill="#5470c6" ecmeta_series_index="0" ecmeta_data_index="52" ecmeta_ssr_type="chart" class="zr0-cls-1"></circle>
<circle cx="94.3" cy="184.3" r="4" fill="#5470c6" ecmeta_series_index="0" ecmeta_data_index="53" ecmeta_ssr_type="chart" class="zr0-cls-1"></circle>
<circle cx="94.3" cy="237.8" r="4" fill="#5470c6" ecmeta_series_index="0" ecmeta_data_index="54" ecmeta_ssr_type="chart" class="zr0-cls-1"></circle>
<circle cx="162.9" cy="138.8" r="4" fill="#91cc75" ecmeta_series_index="0" ecmeta_data_index="55" ecmeta_ssr_type="chart" class="zr0-cls-2"></circle>
<polygon points="162.9 243.6 163.2 239.1 163.5 234.5 163.9 230 164.6 225.5 165.3 220.9 166.3 216.4 167.4 211.8 168.3 207.3 169.6 202.7 170.7 198.2 171.6 193.6 172.4 189.1 173.2 184.5 174.1 180 175.1 175.5 176.4 170.9 177.7 166.4 178.9 161.8 180 157.3 180.9 152.7 181.7 148.2 182.4 143.6 183.1 139.1 183.6 134.5 183.8 130 184 125.5 184.4 120.9 184.5 116.4 184.4 111.8 183.8 107.3 182.7 102.7 181.2 98.2 179.5 93.6 177.6 89.1 175.7 84.5 174.1 80 172.5 75.5 171 70.9 169.7 66.4 168.4 61.8 167.2 57.3 166 52.7 165.3 48.2 164.5 43.6 163.6 39.1 162.9 34.5 162.8 34.5 162.1 39.1 161.2 43.6 160.4 48.2 159.7 52.7 158.5 57.3 157.4 61.8 156 66.4 154.7 70.9 153.2 75.5 151.7 80 150 84.5 148.1 89.1 146.3 93.6 144.5 98.2 143 102.7 141.9 107.3 141.3 111.8 141.2 116.4 141.4 120.9 141.7 125.5 141.9 130 142.1 134.5 142.6 139.1 143.4 143.6 144 148.2 144.8 152.7 145.8 157.3 146.9 161.8 148.1 166.4 149.3 170.9 150.6 175.5 151.6 180 152.5 184.5 153.3 189.1 154.1 193.6 155 198.2 156.2 202.7 157.4 207.3 158.4 211.8 159.4 216.4 160.4 220.9 161.1 225.5 161.8 230 162.2 234.5 162.6 239.1 162.8 243.6" fill="#91cc75" fill-opacity="0.6" ecmeta_series_index="0" ecmeta_data_index="55" ecmeta_ssr_type="chart" ecmeta_silent="true" class="zr0-cls-0"></polygon>
<circle cx="162.9" cy="104.6" r="4" fill="#91cc75" ecmeta_series_index="0" ecmeta_data_index="56" ecmeta_ssr_type="chart" class="zr0-cls-2"></circle>
<circle cx="162.9" cy="136.6" r="4" fill="#91cc75" ecmeta_series_index="0" ecmeta_data_index="57" ecmeta_ssr_type="chart" class="zr0-cls-2"></circle>
<circle cx="162.9" cy="201.1" r="4" fill="#91cc75" ecmeta_series_index="0" ecmeta_data_index="58" ecmeta_ssr_type="chart" class="zr0-cls-2"></circle>
<circle cx="162.9" cy="129.3" r="4" fill="#91cc75" ecmeta_series_index="0" ecmeta_data_index="59" ecmeta_ssr_type="chart" class="zr0-cls-2"></circle>
<circle cx="162.9" cy="121.8" r="4" fill="#91cc75" ecmeta_series_index="0" ecmeta_data_index="60" ecmeta_ssr_type="chart" class="zr0-cls-2"></circle>
<circle cx="162.9" cy="114.3" r="4" fill="#91cc75" ecmeta_series_index="0" ecmeta_data_index="61" ecmeta_ssr_type="chart" class="zr0-cls-2"></circle>
<circle cx="162.9" cy="173.2" r="4" fill="#91cc75" ecmeta_series_index="0" ecmeta_data_index="62" ecmeta_ssr_type="chart" class="zr0-cls-2"></circle>
<circle cx="162.9" cy="180.9" r="4" fill="#91cc75" ecmeta_series_index="0" ecmeta_data_index="63" ecmeta_ssr_type="chart" class="zr0-cls-2"></circle>
<circle cx="162.9" cy="115.3" r="4" fill="#91cc75" ecmeta_series_index="0" ecmeta_data_index="64" ecmeta_ssr_type="chart" class="zr0-cls-2"></circle>
<circle cx="162.9" cy="114.9" r="4" fill="#91cc75" ecmeta_series_index="0" ecmeta_data_index="65" ecmeta_ssr_type="chart" class="zr0-cls-2"></circle>
<circle cx="162.9" cy="96.6" r="4" fill="#91cc75" ecmeta_series_index="0" ecmeta_data_index="66" ecmeta_ssr_type="chart" class="zr0-cls-2"></circle>
<circle cx="162.9" cy="98.2" r="4" fill="#91cc75" ecmeta_series_index="0" ecmeta_data_index="67" ecmeta_ssr_type="chart" class="zr0-cls-2"></circle>
<circle cx="162.9" cy="126.2" r="4" fill="#91cc75" ecmeta_series_index="0" ecmeta_data_index="68" ecmeta_ssr_type="chart" class="zr0-cls-2"></circle>
<circle cx="162.9" cy="82.2" r="4" fill="#91cc75" ecmeta_series_index="0" ecmeta_data_index="69" ecmeta_ssr_type="chart" class="zr0-cls-2"></circle>
<circle cx="162.9" cy="146.8" r="4" fill="#91cc75" ecmeta_series_index="0" ecmeta_data_index="70" ecmeta_ssr_type="chart" class="zr0-cls-2"></circle>
<circle cx="162.9" cy="191.2" r="4" fill="#91cc75" ecmeta_series_index="0" ecmeta_data_index="71" ecmeta_ssr_type="chart" class="zr0-cls-2"></circle>
<circle cx="162.9" cy="175.5" r="4" fill="#91cc75" ecmeta_series_index="0" ecmeta_data_index="72" ecmeta_ssr_type="chart" class="zr0-cls-2"></circle>
<circle cx="162.9" cy="128.9" r="4" fill="#91cc75" ecmeta_series_index="0" ecmeta_data_index="73" ecmeta_ssr_type="chart" class="zr0-cls-2"></circle>
<circle cx="162.9" cy="185" r="4" fill="#91cc75" ecmeta_series_index="0" ecmeta_data_index="74" ecmeta_ssr_type="chart" class="zr0-cls-2"></circle>
<circle cx="162.9" cy="162.4" r="4" fill="#91cc75" ecmeta_series_index="0" ecmeta_data_index="75" ecmeta_ssr_type="chart" class="zr0-cls-2"></circle>
<circle cx="162.9" cy="84.5" r="4" fill="#91cc75" ecmeta_series_index="0" ecmeta_data_index="76" ecmeta_ssr_type="chart" class="zr0-cls-2"></circle>
<circle cx="162.9" cy="182.8" r="4" fill="#91cc75" ecmeta_series_index="0" ecmeta_data_index="77" ecmeta_ssr_type="chart" class="zr0-cls-2"></circle>
<circle cx="162.9" cy="78.2" r="4" fill="#91cc75" ecmeta_series_index="0" ecmeta_data_index="78" ecmeta_ssr_type="chart" class="zr0-cls-2"></circle>
<circle cx="162.9" cy="195.5" r="4" fill="#91cc75" ecmeta_series_index="0" ecmeta_data_index="79" ecmeta_ssr_type="chart" class="zr0-cls-2"></circle>
<circle cx="162.9" cy="108" r="4" fill="#91cc75" ecmeta_series_index="0" ecmeta_data_index="80" ecmeta_ssr_type="chart" class="zr0-cls-2"></circle>
<circle cx="162.9" cy="158" r="4" fill="#91cc75" ecmeta_series_index="0" ecmeta_data_index="81" ecmeta_ssr_type="chart" class="zr0-cls-2"></circle>
<circle cx="162.9" cy="143.1" r="4" fill="#91cc75" ecmeta_series_index="0" ecmeta_data_index="82" ecmeta_ssr_type="chart" class="zr0-cls-2"></circle>
<circle cx="162.9" cy="98.3" r="4" fill="#91cc75" ecmeta_series_index="0" ecmeta_data_index="83" ecmeta_ssr_type="chart" class="zr0-cls-2"></circle>
<circle cx="162.9" cy="135.5" r="4" fill="#91cc75" ecmeta_series_index="0" ecmeta_data_index="84" ecmeta_ssr_type="chart" class="zr0-cls-2"></circle>
<circle cx="162.9" cy="79.4" r="4" fill="#91cc75" ecmeta_series_index="0" ecmeta_data_index="85" ecmeta_ssr_type="chart" class="zr0-cls-2"></circle>
<circle cx="162.9" cy="132" r="4" fill="#91cc75" ecmeta_series_index="0" ecmeta_data_index="86" ecmeta_ssr_type="chart" class="zr0-cls-2"></circle>
<circle cx="162.9" cy="80.8" r="4" fill="#91cc75" ecmeta_series_index="0" ecmeta_data_index="87" ecmeta_ssr_type="chart" class="zr0-cls-2"></circle>
<circle cx="162.9" cy="118" r="4" fill="#91cc75" ecmeta_series_index="0" ecmeta_data_index="88" ecmeta_ssr_type="chart" class="zr0-cls-2"></circle>
<circle cx="162.9" cy="131.3" r="4" fill="#91cc75" ecmeta_series_index="0" ecmeta_data_index="89" ecmeta_ssr_type="chart" class="zr0-cls-2"></circle>
<circle cx="162.9" cy="124" r="4" fill="#91cc75" ecmeta_series_index="0" ecmeta_data_index="90" ecmeta_ssr_type="chart" class="zr0-cls-2"></circle>
<circle cx="162.9" cy="98.8" r="4" fill="#91cc75" ecmeta_series_index="0" ecmeta_data_index="91" ecmeta_ssr_type="chart" class="zr0-cls-2"></circle>
<circle cx="162.9" cy="162.6" r="4" fill="#91cc75" ecmeta_series_index="0" ecmeta_data_index="92" ecmeta_ssr_type="chart" class="zr0-cls-2"></circle>
<circle cx="162.9" cy="80.1" r="4" fill="#91cc75" ecmeta_series_index="0" ecmeta_data_index="93" ecmeta_ssr_type="chart" class="zr0-cls-2"></circle>
<circle cx="162.9" cy="140.9" r="4" fill="#91cc75" ecmeta_series_index="0" ecmeta_data_index="94" ecmeta_ssr_type="chart" class="zr0-cls-2"></circle>
<circle cx="162.9" cy="130.1" r="4" fill="#91cc75" ecmeta_series_index="0" ecmeta_data_index="95" ecmeta_ssr_type="chart" class="zr0-cls-2"></circle>
<circle cx="162.9" cy="106.8" r="4" fill="#91cc75" ecmeta_series_index="0" ecmeta_data_index="96" ecmeta_ssr_type="chart" class="zr0-cls-2"></circle>
<circle cx="162.9" cy="173.6" r="4" fill="#91cc75" ecmeta_series_index="0" ecmeta_data_index="97" ecmeta_ssr_type="chart" class="zr0-cls-2"></circle>
<circle cx="162.9" cy="122.9" r="4" fill="#91cc75" ecmeta_series_index="0" ecmeta_data_index="98" ecmeta_ssr_type="chart" class="zr0-cls-2"></circle>
<circle cx="162.9" cy="164.9" r="4" fill="#91cc75" ecmeta_series_index="0" ecmeta_data_index="99" ecmeta_ssr_type="chart" class="zr0-cls-2"></circle>
<circle cx="231.4" cy="273.5" r="4" fill="#fac858" ecmeta_series_index="0" ecmeta_data_index="100" ecmeta_ssr_type="chart" class="zr0-cls-3"></circle>
<polygon points="232.9 320.9 235 316.4 237.5 311.8 239.8 307.3 241.7 302.7 243.4 298.2 245.8 293.6 248.8 289.1 252.1 284.5 254.7 280 256.8 275.5 258.2 270.9 259 266.4 259.1 261.8 258.6 257.3 257.5 252.7 255.8 248.2 253.4 243.6 250.4 239.1 247.1 234.5 244.5 230 242.7 225.5 242.4 220.9 241.6 216.4 240.3 211.8 238.6 207.3 237.9 202.7 238 198.2 238.5 193.6 238.9 189.1 239.1 184.5 239.1 180 239 175.5 238.8 170.9 238.3 166.4 237.8 161.8 237 157.3 236.1 152.7 235.1 148.2 233.8 143.6 232.5 139.1 230.4 139.1 229 143.6 227.8 148.2 226.7 152.7 225.8 157.3 225.1 161.8 224.5 166.4 224.1 170.9 223.8 175.5 223.7 180 223.8 184.5 224 189.1 224.3 193.6 224.8 198.2 225 202.7 224.3 207.3 222.5 211.8 221.3 216.4 220.5 220.9 220.1 225.5 218.3 230 215.7 234.5 212.4 239.1 209.4 243.6 207.1 248.2 205.3 252.7 204.2 257.3 203.7 261.8 203.9 266.4 204.7 270.9 206.1 275.5 208.1 280 210.8 284.5 214.1 289.1 217.1 293.6 219.5 298.2 221.1 302.7 223.1 307.3 225.3 311.8 227.9 316.4 229.9 320.9" fill="#fac858" fill-opacity="0.6" ecmeta_series_index="0" ecmeta_data_index="100" ecmeta_ssr_type="chart" ecmeta_silent="true" class="zr0-cls-0"></polygon>
<circle cx="231.4" cy="246.1" r="4" fill="#fac858" ecmeta_series_index="0" ecmeta_data_index="101" ecmeta_ssr_type="chart" class="zr0-cls-3"></circle>
<circle cx="231.4" cy="280.5" r="4" fill="#fac858" ecmeta_series_index="0" ecmeta_data_index="102" ecmeta_ssr_type="chart" class="zr0-cls-3"></circle>
<circle cx="231.4" cy="252" r="4" fill="#fac858" ecmeta_series_index="0" ecmeta_data_index="103" ecmeta_ssr_type="chart" class="zr0-cls-3"></circle>
<circle cx="231.4" cy="180.9" r="4" fill="#fac858" ecmeta_series_index="0" ecmeta_data_index="104" ecmeta_ssr_type="chart" class="zr0-cls-3"></circle>
<circle cx="300" cy="133.1" r="4" fill="#ee6666" ecmeta_series_index="0" ecmeta_data_index="105" ecmeta_ssr_type="chart" class="zr0-cls-4"></circle>
<polygon points="300.1 284.5 300.6 280 301.1 275.5 301.6 270.9 302 266.4 302.6 261.8 303.4 257.3 304.7 252.7 305.8 248.2 306.7 243.6 307.5 239.1 308 234.5 308.7 230 309.1 225.5 310.1 220.9 311.3 216.4 312.1 211.8 313.4 207.3 314.8 202.7 316 198.2 317.2 193.6 318.3 189.1 319.3 184.5 320 180 320.4 175.5 320.9 170.9 321.4 166.4 322.1 161.8 322.3 157.3 322.2 152.7 321.6 148.2 320.4 143.6 318.9 139.1 316.9 134.5 315.3 130 313.5 125.5 311.5 120.9 310 116.4 308.7 111.8 307.4 107.3 306.2 102.7 304.9 98.2 303.8 93.6 302.7 89.1 301.7 84.5 301.1 80 300.6 75.5 300.3 70.9 299.7 70.9 299.4 75.5 298.9 80 298.3 84.5 297.3 89.1 296.2 93.6 295.1 98.2 293.8 102.7 292.6 107.3 291.3 111.8 290 116.4 288.5 120.9 286.5 125.5 284.7 130 283.1 134.5 281.1 139.1 279.6 143.6 278.4 148.2 277.8 152.7 277.7 157.3 277.9 161.8 278.6 166.4 279.1 170.9 279.6 175.5 280 180 280.7 184.5 281.7 189.1 282.8 193.6 284 198.2 285.2 202.7 286.6 207.3 287.9 211.8 288.7 216.4 289.9 220.9 290.9 225.5 291.3 230 292 234.5 292.5 239.1 293.3 243.6 294.2 248.2 295.3 252.7 296.6 257.3 297.4 261.8 298 266.4 298.4 270.9 298.9 275.5 299.4 280 299.9 284.5" fill="#ee6666" fill-opacity="0.6" ecmeta_series_index="0" ecmeta_data_index="105" ecmeta_ssr_type="chart" ecmeta_silent="true" class="zr0-cls-0"></polygon>
<circle cx="300" cy="175.7" r="4" fill="#ee6666" ecmeta_series_index="0" ecmeta_data_index="106" ecmeta_ssr_type="chart" class="zr0-cls-4"></circle>
<circle cx="300" cy="163.3" r="4" fill="#ee6666" ecmeta_series_index="0" ecmeta_data_index="107" ecmeta_ssr_type="chart" class="zr0-cls-4"></circle>
<circle cx="300" cy="221.8" r="4" fill="#ee6666" ecmeta_series_index="0" ecmeta_data_index="108" ecmeta_ssr_type="chart" class="zr0-cls-4"></circle>
<circle cx="300" cy="241.3" r="4" fill="#ee6666" ecmeta_series_index="0" ecmeta_data_index="109" ecmeta_ssr_type="chart" class="zr0-cls-4"></circle>
<circle cx="300" cy="111.6" r="4" fill="#ee6666" ecmeta_series_index="0" ecmeta_data_index="110" ecmeta_ssr_type="chart" class="zr0-cls-4"></circle>
<circle cx="300" cy="179.7" r="4" fill="#ee6666" ecmeta_series_index="0" ecmeta_data_index="111" ecmeta_ssr_type="chart" class="zr0-cls-4"></circle>
<circle cx="300" cy="131.5" r="4" fill="#ee6666" ecmeta_series_index="0" ecmeta_data_index="112" ecmeta_ssr_type="chart" class="zr0-cls-4"></circle>
<circle cx="300" cy="165.6" r="4" fill="#ee6666" ecmeta_series_index="0" ecmeta_data_index="113" ecmeta_ssr_type="chart" class="zr0-cls-4"></circle>
<circle cx="300" cy="213.5" r="4" fill="#ee6666" ecmeta_series_index="0" ecmeta_data_index="114" ecmeta_ssr_type="chart" class="zr0-cls-4"></circle>
<circle cx="300" cy="144.9" r="4" fill="#ee6666" ecmeta_series_index="0" ecmeta_data_index="115" ecmeta_ssr_type="chart" class="zr0-cls-4"></circle>
<circle cx="300" cy="214.7" r="4" fill="#ee6666" ecmeta_series_index="0" ecmeta_data_index="116" ecmeta_ssr_type="chart" class="zr0-cls-4"></circle>
<circle cx="300" cy="180.3" r="4" fill="#ee6666" ecmeta_series_index="0" ecmeta_data_index="117" ecmeta_ssr_type="chart" class="zr0-cls-4"></circle>
<circle cx="300" cy="167.2" r="4" fill="#ee6666" ecmeta_series_index="0" ecmeta_data_index="118" ecmeta_ssr_type="chart" class="zr0-cls-4"></circle>
<circle cx="300" cy="211.1" r="4" fill="#ee6666" ecmeta_series_index="0" ecmeta_data_index="119" ecmeta_ssr_type="chart" class="zr0-cls-4"></circle>
<circle cx="300" cy="179.8" r="4" fill="#ee6666" ecmeta_series_index="0" ecmeta_data_index="120" ecmeta_ssr_type="chart" class="zr0-cls-4"></circle>
<circle cx="300" cy="155" r="4" fill="#ee6666" ecmeta_series_index="0" ecmeta_data_index="121" ecmeta_ssr_type="chart" class="zr0-cls-4"></circle>
<circle cx="300" cy="119.9" r="4" fill="#ee6666" ecmeta_series_index="0" ecmeta_data_index="122" ecmeta_ssr_type="chart" class="zr0-cls-4"></circle>
<circle cx="300" cy="155.3" r="4" fill="#ee6666" ecmeta_series_index="0" ecmeta_data_index="123" ecmeta_ssr_type="chart" class="zr0-cls-4"></circle>
<circle cx="300" cy="162" r="4" fill="#ee6666" ecmeta_series_index="0" ecmeta_data_index="124" ecmeta_ssr_type="chart" class="zr0-cls-4"></circle>
<circle cx="300" cy="167.7" r="4" fill="#ee6666" ecmeta_series_index="0" ecmeta_data_index="125" ecmeta_ssr_type="chart" class="zr0-cls-4"></circle>
<circle cx="300" cy="237.3" r="4" fill="#ee6666" ecmeta_series_index="0" ecmeta_data_index="126" ecmeta_ssr_type="chart" class="zr0-cls-4"></circle>
<circle cx="300" cy="189" r="4" fill="#ee6666" ecmeta_series_index="0" ecmeta_data_index="127" ecmeta_ssr_type="chart" class="zr0-cls-4"></circle>
<circle cx="300" cy="127.2" r="4" fill="#ee6666" ecmeta_series_index="0" ecmeta_data_index="128" ecmeta_ssr_type="chart" class="zr0-cls-4"></circle>
<circle cx="300" cy="141.3" r="4" fill="#ee6666" ecmeta_series_index="0" ecmeta_data_index="129" ecmeta_ssr_type="chart" class="zr0-cls-4"></circle>
<circle cx="368.6" cy="202.7" r="4" fill="#73c0de" ecmeta_series_index="0" ecmeta_data_index="130" ecmeta_ssr_type="chart" class="zr0-cls-5"></circle>
<polygon points="368.9 252.7 369.3 248.2 370.4 243.6 371.4 239.1 372.2 234.5 373 230 373.8 225.5 374.6 220.9 375.7 216.4 377 211.8 378 207.3 378.7 202.7 379.3 198.2 379.9 193.6 380.6 189.1 381.7 184.5 382.4 180 382.9 175.5 383.2 170.9 383.3 166.4 383.2 161.8 383.5 157.3 384.2 152.7 384.8 148.2 385.2 143.6 385.4 139.1 385.7 134.5 386.1 130 386.9 125.5 387.5 120.9 387.6 116.4 387.2 111.8 386.4 107.3 385.2 102.7 384.3 98.2 383.5 93.6 382.4 89.1 381.2 84.5 379.9 80 378.3 75.5 376.6 70.9 375.1 66.4 373.6 61.8 372.3 57.3 371 52.7 369.9 48.2 369.1 43.6 368.6 39.1 368.5 39.1 368 43.6 367.3 48.2 366.1 52.7 364.8 57.3 363.5 61.8 362.1 66.4 360.6 70.9 358.8 75.5 357.3 80 356 84.5 354.8 89.1 353.6 93.6 352.9 98.2 352 102.7 350.8 107.3 350 111.8 349.6 116.4 349.7 120.9 350.3 125.5 351 130 351.4 134.5 351.8 139.1 351.9 143.6 352.3 148.2 353 152.7 353.7 157.3 354 161.8 353.9 166.4 353.9 170.9 354.2 175.5 354.8 180 355.5 184.5 356.6 189.1 357.3 193.6 357.8 198.2 358.4 202.7 359.2 207.3 360.2 211.8 361.4 216.4 362.5 220.9 363.4 225.5 364.2 230 364.9 234.5 365.8 239.1 366.7 243.6 367.8 248.2 368.3 252.7" fill="#73c0de" fill-opacity="0.6" ecmeta_series_index="0" ecmeta_data_index="130" ecmeta_ssr_type="chart" ecmeta_silent="true" class="zr0-cls-0"></polygon>
<circle cx="368.6" cy="92.9" r="4" fill="#73c0de" ecmeta_series_index="0" ecmeta_data_index="131" ecmeta_ssr_type="chart" class="zr0-cls-5"></circle>
<circle cx="368.6" cy="128.7" r="4" fill="#73c0de" ecmeta_series_index="0" ecmeta_data_index="132" ecmeta_ssr_type="chart" class="zr0-cls-5"></circle>
<circle cx="368.6" cy="101.1" r="4" fill="#73c0de" ecmeta_series_index="0" ecmeta_data_index="133" ecmeta_ssr_type="chart" class="zr0-cls-5"></circle>
<circle cx="368.6" cy="147.1" r="4" fill="#73c0de" ecmeta_series_index="0" ecmeta_data_index="134" ecmeta_ssr_type="chart" class="zr0-cls-5"></circle>
<circle cx="368.6" cy="89.9" r="4" fill="#73c0de" ecmeta_series_index="0" ecmeta_data_index="135" ecmeta_ssr_type="chart" class="zr0-cls-5"></circle>
<circle cx="368.6" cy="110.1" r="4" fill="#73c0de" ecmeta_series_index="0" ecmeta_data_index="136" ecmeta_ssr_type="chart" class="zr0-cls-5"></circle>
<circle cx="368.6" cy="134.6" r="4" fill="#73c0de" ecmeta_series_index="0" ecmeta_data_index="137" ecmeta_ssr_type="chart" class="zr0-cls-5"></circle>
<circle cx="368.6" cy="144.5" r="4" fill="#73c0de" ecmeta_series_index="0" ecmeta_data_index="138" ecmeta_ssr_type="chart" class="zr0-cls-5"></circle>
<circle cx="368.6" cy="117.9" r="4" fill="#73c0de" ecmeta_series_index="0" ecmeta_data_index="139" ecmeta_ssr_type="chart" class="zr0-cls-5"></circle>
<circle cx="368.6" cy="83.1" r="4" fill="#73c0de" ecmeta_series_index="0" ecmeta_data_index="140" ecmeta_ssr_type="chart" class="zr0-cls-5"></circle>
<circle cx="368.6" cy="145.9" r="4" fill="#73c0de" ecmeta_series_index="0" ecmeta_data_index="141" ecmeta_ssr_type="chart" class="zr0-cls-5"></circle>
<circle cx="368.6" cy="183.8" r="4" fill="#73c0de" ecmeta_series_index="0" ecmeta_data_index="142" ecmeta_ssr_type="chart" class="zr0-cls-5"></circle>
<circle cx="368.6" cy="145.9" r="4" fill="#73c0de" ecmeta_series_index="0" ecmeta_data_index="143" ecmeta_ssr_type="chart" class="zr0-cls-5"></circle>
<circle cx="368.6" cy="85.7" r="4" fill="#73c0de" ecmeta_series_index="0" ecmeta_data_index="144" ecmeta_ssr_type="chart" class="zr0-cls-5"></circle>
<circle cx="368.6" cy="108.2" r="4" fill="#73c0de" ecmeta_series_index="0" ecmeta_data_index="145" ecmeta_ssr_type="chart" class="zr0-cls-5"></circle>
<circle cx="368.6" cy="154.6" r="4" fill="#73c0de" ecmeta_series_index="0" ecmeta_data_index="146" ecmeta_ssr_type="chart" class="zr0-cls-5"></circle>
<circle cx="368.6" cy="171.9" r="4" fill="#73c0de" ecmeta_series_index="0" ecmeta_data_index="147" ecmeta_ssr_type="chart" class="zr0-cls-5"></circle>
<circle cx="368.6" cy="96.4" r="4" fill="#73c0de" ecmeta_series_index="0" ecmeta_data_index="148" ecmeta_ssr_type="chart" class="zr0-cls-5"></circle>
<circle cx="368.6" cy="115.7" r="4" fill="#73c0de" ecmeta_series_index="0" ecmeta_data_index="149" ecmeta_ssr_type="chart" class="zr0-cls-5"></circle>
<circle cx="368.6" cy="203" r="4" fill="#73c0de" ecmeta_series_index="0" ecmeta_data_index="150" ecmeta_ssr_type="chart" class="zr0-cls-5"></circle>
<circle cx="368.6" cy="173.6" r="4" fill="#73c0de" ecmeta_series_index="0" ecmeta_data_index="151" ecmeta_ssr_type="chart" class="zr0-cls-5"></circle>
<circle cx="368.6" cy="206.5" r="4" fill="#73c0de" ecmeta_series_index="0" ecmeta_data_index="152" ecmeta_ssr_type="chart" class="zr0-cls-5"></circle>
<circle cx="368.6" cy="212.1" r="4" fill="#73c0de" ecmeta_series_index="0" ecmeta_data_index="153" ecmeta_ssr_type="chart" class="zr0-cls-5"></circle>
<circle cx="368.6" cy="177.8" r="4" fill="#73c0de" ecmeta_series_index="0" ecmeta_data_index="154" ecmeta_ssr_type="chart" class="zr0-cls-5"></circle>
<circle cx="437.1" cy="254.1" r="4" fill="#3ba272" ecmeta_series_index="0" ecmeta_data_index="155" ecmeta_ssr_type="chart" class="zr0-cls-6"></circle>
<polygon points="441.4 330 442.4 325.5 443.4 320.9 444.4 316.4 445.4 311.8 446.4 307.3 447.2 302.7 448 298.2 448.9 293.6 450.1 289.1 450.8 284.5 451.2 280 451.2 275.5 450.9 270.9 450.2 266.4 449.7 261.8 449 257.3 448.7 252.7 449.2 248.2 449.7 243.6 450.4 239.1 451.5 234.5 452.9 230 454.2 225.5 455.3 220.9 456 216.4 456.1 211.8 456.1 207.3 456 202.7 456 198.2 455.6 193.6 454.8 189.1 453.5 184.5 451.9 180 449.8 175.5 447.7 170.9 445.5 166.4 443.4 161.8 441.5 157.3 439.6 152.7 438.2 148.2 437.4 143.6 436.9 143.6 436.1 148.2 434.7 152.7 432.8 157.3 430.9 161.8 428.8 166.4 426.6 170.9 424.4 175.5 422.4 180 420.7 184.5 419.5 189.1 418.7 193.6 418.3 198.2 418.2 202.7 418.2 207.3 418.1 211.8 418.3 216.4 419 220.9 420 225.5 421.3 230 422.7 234.5 423.9 239.1 424.6 243.6 425.1 248.2 425.6 252.7 425.3 257.3 424.6 261.8 424.1 266.4 423.4 270.9 423.1 275.5 423.1 280 423.5 284.5 424.2 289.1 425.3 293.6 426.3 298.2 427 302.7 427.8 307.3 428.9 311.8 429.9 316.4 430.8 320.9 431.9 325.5 432.8 330" fill="#3ba272" fill-opacity="0.6" ecmeta_series_index="0" ecmeta_data_index="155" ecmeta_ssr_type="chart" ecmeta_silent="true" class="zr0-cls-0"></polygon>
<circle cx="437.1" cy="266.9" r="4" fill="#3ba272" ecmeta_series_index="0" ecmeta_data_index="156" ecmeta_ssr_type="chart" class="zr0-cls-6"></circle>
<circle cx="437.1" cy="200.3" r="4" fill="#3ba272" ecmeta_series_index="0" ecmeta_data_index="157" ecmeta_ssr_type="chart" class="zr0-cls-6"></circle>
<circle cx="437.1" cy="248" r="4" fill="#3ba272" ecmeta_series_index="0" ecmeta_data_index="158" ecmeta_ssr_type="chart" class="zr0-cls-6"></circle>
<circle cx="437.1" cy="193.6" r="4" fill="#3ba272" ecmeta_series_index="0" ecmeta_data_index="159" ecmeta_ssr_type="chart" class="zr0-cls-6"></circle>
<circle cx="437.1" cy="272.3" r="4" fill="#3ba272" ecmeta_series_index="0" ecmeta_data_index="160" ecmeta_ssr_type="chart" class="zr0-cls-6"></circle>
<circle cx="437.1" cy="195.7" r="4" fill="#3ba272" ecmeta_series_index="0" ecmeta_data_index="161" ecmeta_ssr_type="chart" class="zr0-cls-6"></circle>
<circle cx="437.1" cy="190" r="4" fill="#3ba272" ecmeta_series_index="0" ecmeta_data_index="162" ecmeta_ssr_type="chart" class="zr0-cls-6"></circle>
<circle cx="437.1" cy="301.2" r="4" fill="#3ba272" ecmeta_series_index="0" ecmeta_data_index="163" ecmeta_ssr_type="chart" class="zr0-cls-6"></circle>
<circle cx="437.1" cy="294.1" r="4" fill="#3ba272" ecmeta_series_index="0" ecmeta_data_index="164" ecmeta_ssr_type="chart" class="zr0-cls-6"></circle>
<circle cx="437.1" cy="296.7" r="4" fill="#3ba272" ecmeta_series_index="0" ecmeta_data_index="165" ecmeta_ssr_type="chart" class="zr0-cls-6"></circle>
<circle cx="437.1" cy="254.5" r="4" fill="#3ba272" ecmeta_series_index="0" ecmeta_data_index="166" ecmeta_ssr_type="chart" class="zr0-cls-6"></circle>
<circle cx="437.1" cy="312.7" r="4" fill="#3ba272" ecmeta_series_index="0" ecmeta_data_index="167" ecmeta_ssr_type="chart" class="zr0-cls-6"></circle>
<circle cx="437.1" cy="250.2" r="4" fill="#3ba272" ecmeta_series_index="0" ecmeta_data_index="168" ecmeta_ssr_type="chart" class="zr0-cls-6"></circle>
<circle cx="437.1" cy="214.3" r="4" fill="#3ba272" ecmeta_series_index="0" ecmeta_data_index="169" ecmeta_ssr_type="chart" class="zr0-cls-6"></circle>
<circle cx="437.1" cy="299.4" r="4" fill="#3ba272" ecmeta_series_index="0" ecmeta_data_index="170" ecmeta_ssr_type="chart" class="zr0-cls-6"></circle>
<circle cx="437.1" cy="197.3" r="4" fill="#3ba272" ecmeta_series_index="0" ecmeta_data_index="171" ecmeta_ssr_type="chart" class="zr0-cls-6"></circle>
<circle cx="437.1" cy="184.5" r="4" fill="#3ba272" ecmeta_series_index="0" ecmeta_data_index="172" ecmeta_ssr_type="chart" class="zr0-cls-6"></circle>
<circle cx="437.1" cy="194.6" r="4" fill="#3ba272" ecmeta_series_index="0" ecmeta_data_index="173" ecmeta_ssr_type="chart" class="zr0-cls-6"></circle>
<circle cx="437.1" cy="220.2" r="4" fill="#3ba272" ecmeta_series_index="0" ecmeta_data_index="174" ecmeta_ssr_type="chart" class="zr0-cls-6"></circle>
<circle cx="437.1" cy="188.5" r="4" fill="#3ba272" ecmeta_series_index="0" ecmeta_data_index="175" ecmeta_ssr_type="chart" class="zr0-cls-6"></circle>
<circle cx="437.1" cy="208.5" r="4" fill="#3ba272" ecmeta_series_index="0" ecmeta_data_index="176" ecmeta_ssr_type="chart" class="zr0-cls-6"></circle>
<circle cx="437.1" cy="207.3" r="4" fill="#3ba272" ecmeta_series_index="0" ecmeta_data_index="177" ecmeta_ssr_type="chart" class="zr0-cls-6"></circle>
<circle cx="437.1" cy="212.6" r="4" fill="#3ba272" ecmeta_series_index="0" ecmeta_data_index="178" ecmeta_ssr_type="chart" class="zr0-cls-6"></circle>
<circle cx="437.1" cy="280.3" r="4" fill="#3ba272" ecmeta_series_index="0" ecmeta_data_index="179" ecmeta_ssr_type="chart" class="zr0-cls-6"></circle>
<circle cx="505.7" cy="134" r="4" fill="#fc8452" ecmeta_series_index="0" ecmeta_data_index="180" ecmeta_ssr_type="chart" class="zr0-cls-7"></circle>
<polygon points="505.9 284.5 506.2 280 506.5 275.5 507.7 270.9 509.3 266.4 510.6 261.8 511.8 257.3 512.8 252.7 513.7 248.2 514.5 243.6 515.7 239.1 516.7 234.5 517.5 230 518.3 225.5 519 220.9 519.3 216.4 519.4 211.8 519.5 207.3 519.6 202.7 519.6 198.2 519.4 193.6 519.2 189.1 519.9 184.5 521.4 180 523.1 175.5 524.4 170.9 525.1 166.4 525.6 161.8 525.7 157.3 525.7 152.7 525.7 148.2 525.3 143.6 524.7 139.1 523.7 134.5 522.5 130 520.9 125.5 519 120.9 517.1 116.4 515.3 111.8 513.3 107.3 511.1 102.7 509.3 98.2 508.4 93.6 507.6 89.1 507.2 84.5 506.8 80 506.2 75.5 505.9 70.9 505.5 70.9 505.2 75.5 504.7 80 504.2 84.5 503.8 89.1 503 93.6 502.1 98.2 500.3 102.7 498.1 107.3 496.2 111.8 494.4 116.4 492.4 120.9 490.5 125.5 488.9 130 487.7 134.5 486.8 139.1 486.1 143.6 485.7 148.2 485.7 152.7 485.8 157.3 485.9 161.8 486.3 166.4 487 170.9 488.3 175.5 490 180 491.5 184.5 492.2 189.1 492 193.6 491.8 198.2 491.8 202.7 492 207.3 492 211.8 492.1 216.4 492.4 220.9 493.1 225.5 493.9 230 494.8 234.5 495.8 239.1 496.9 243.6 497.8 248.2 498.7 252.7 499.6 257.3 500.8 261.8 502.2 266.4 503.7 270.9 505 275.5 505.2 280 505.5 284.5" fill="#fc8452" fill-opacity="0.6" ecmeta_series_index="0" ecmeta_data_index="180" ecmeta_ssr_type="chart" ecmeta_silent="true" class="zr0-cls-0"></polygon>
<circle cx="505.7" cy="144.7" r="4" fill="#fc8452" ecmeta_series_index="0" ecmeta_data_index="181" ecmeta_ssr_type="chart" class="zr0-cls-7"></circle>
<circle cx="505.7" cy="141.7" r="4" fill="#fc8452" ecmeta_series_index="0" ecmeta_data_index="182" ecmeta_ssr_type="chart" class="zr0-cls-7"></circle>
<circle cx="505.7" cy="229.9" r="4" fill="#fc8452" ecmeta_series_index="0" ecmeta_data_index="183" ecmeta_ssr_type="chart" class="zr0-cls-7"></circle>
<circle cx="505.7" cy="148" r="4" fill="#fc8452" ecmeta_series_index="0" ecmeta_data_index="184" ecmeta_ssr_type="chart" class="zr0-cls-7"></circle>
<circle cx="505.7" cy="112.6" r="4" fill="#fc8452" ecmeta_series_index="0" ecmeta_data_index="185" ecmeta_ssr_type="chart" class="zr0-cls-7"></circle>
<circle cx="505.7" cy="181.9" r="4" fill="#fc8452" ecmeta_series_index="0" ecmeta_data_index="186" ecmeta_ssr_type="chart" class="zr0-cls-7"></circle>
<circle cx="505.7" cy="143.5" r="4" fill="#fc8452" ecmeta_series_index="0" ecmeta_data_index="187" ecmeta_ssr_type="chart" class="zr0-cls-7"></circle>
<circle cx="505.7" cy="228" r="4" fill="#fc8452" ecmeta_series_index="0" ecmeta_data_index="188" ecmeta_ssr_type="chart" class="zr0-cls-7"></circle>
<circle cx="505.7" cy="158.2" r="4" fill="#fc8452" ecmeta_series_index="0" ecmeta_data_index="189" ecmeta_ssr_type="chart" class="zr0-cls-7"></circle>
<circle cx="505.7" cy="204.6" r="4" fill="#fc8452" ecmeta_series_index="0" ecmeta_data_index="190" ecmeta_ssr_type="chart" class="zr0-cls-7"></circle>
<circle cx="505.7" cy="163" r="4" fill="#fc8452" ecmeta_series_index="0" ecmeta_data_index="191" ecmeta_ssr_type="chart" class="zr0-cls-7"></circle>
<circle cx="505.7" cy="168.6" r="4" fill="#fc8452" ecmeta_series_index="0" ecmeta_data_index="192" ecmeta_ssr_type="chart" class="zr0-cls-7"></circle>
<circle cx="505.7" cy="230.8" r="4" fill="#fc8452" ecmeta_series_index="0" ecmeta_data_index="193" ecmeta_ssr_type="chart" class="zr0-cls-7"></circle>
<circle cx="505.7" cy="163.1" r="4" fill="#fc8452" ecmeta_series_index="0" ecmeta_data_index="194" ecmeta_ssr_type="chart" class="zr0-cls-7"></circle>
<circle cx="505.7" cy="120.3" r="4" fill="#fc8452" ecmeta_series_index="0" ecmeta_data_index="195" ecmeta_ssr_type="chart" class="zr0-cls-7"></circle>
<circle cx="505.7" cy="137" r="4" fill="#fc8452" ecmeta_series_index="0" ecmeta_data_index="196" ecmeta_ssr_type="chart" class="zr0-cls-7"></circle>
<circle cx="505.7" cy="242.8" r="4" fill="#fc8452" ecmeta_series_index="0" ecmeta_data_index="197" ecmeta_ssr_type="chart" class="zr0-cls-7"></circle>
<circle cx="505.7" cy="226.8" r="4" fill="#fc8452" ecmeta_series_index="0" ecmeta_data_index="198" ecmeta_ssr_type="chart" class="zr0-cls-7"></circle>
<circle cx="505.7" cy="187.5" r="4" fill="#fc8452" ecmeta_series_index="0" ecmeta_data_index="199" ecmeta_ssr_type="chart" class="zr0-cls-7"></circle>
<circle cx="505.7" cy="146.5" r="4" fill="#fc8452" ecmeta_series_index="0" ecmeta_data_index="200" ecmeta_ssr_type="chart" class="zr0-cls-7"></circle>
<circle cx="505.7" cy="230.6" r="4" fill="#fc8452" ecmeta_series_index="0" ecmeta_data_index="201" ecmeta_ssr_type="chart" class="zr0-cls-7"></circle>
<circle cx="505.7" cy="144.1" r="4" fill="#fc8452" ecmeta_series_index="0" ecmeta_data_index="202" ecmeta_ssr_type="chart" class="zr0-cls-7"></circle>
<circle cx="505.7" cy="196.6" r="4" fill="#fc8452" ecmeta_series_index="0" ecmeta_data_index="203" ecmeta_ssr_type="chart" class="zr0-cls-7"></circle>
<circle cx="505.7" cy="198.5" r="4" fill="#fc8452" ecmeta_series_index="0" ecmeta_data_index="204" ecmeta_ssr_type="chart" class="zr0-cls-7"></circle>
<style ><![CDATA[
.zr0-cls-0:hover {
pointer-events:none;
}
.zr0-cls-1:hover {
cursor:pointer;
fill:rgba(92,123,217,1);
}
.zr0-cls-2:hover {
cursor:pointer;
fill:rgba(159,224,128,1);
}
.zr0-cls-3:hover {
cursor:pointer;
fill:rgba(255,220,96,1);
}
.zr0-cls-4:hover {
cursor:pointer;
fill:rgba(255,112,112,1);
}
.zr0-cls-5:hover {
cursor:pointer;
fill:rgba(126,211,244,1);
}
.zr0-cls-6:hover {
cursor:pointer;
fill:rgba(64,178,125,1);
}
.zr0-cls-7:hover {
cursor:pointer;
fill:rgba(255,145,90,1);
}

]]>

</style>
</svg>